<?xml version="1.0" standalone="no"?>
<!DOCTYPE svg PUBLIC "-//W3C//DTD SVG 1.1//EN" "http://www.w3.org/Graphics/SVG/1.1/DTD/svg11.dtd" >
<svg xmlns="http://www.w3.org/2000/svg" xmlns:xlink="http://www.w3.org/1999/xlink" version="1.1">
<metadata>
Created by FontForge 20150318 at Mon Oct 26 14:57:12 2015
 By uniteet7
Copyright (c) 2011 by Pablo Impallari. www.impallari.com. All rights reserved.
</metadata>
<defs>
<font id="LobsterTwoBold" horiz-adv-x="505" >
  <font-face 
    font-family="LobsterTwoBold"
    font-weight="700"
    font-stretch="normal"
    units-per-em="1000"
    panose-1="2 0 5 6 0 0 0 2 0 3"
    ascent="800"
    descent="-200"
    x-height="500"
    cap-height="750"
    bbox="-170 -259 8008 1511"
    underline-thickness="50"
    underline-position="-50"
    unicode-range="U+0020-FB04"
  />
<missing-glyph horiz-adv-x="385" 
 />
    <glyph glyph-name="IJ" unicode="IJ" horiz-adv-x="680" 
d="M357 748v-690q35 -4 58.5 -24.5t23.5 -51.5q0 -9 -2 -21q-27 21 -52 21q-24 0 -38.5 -19t-14.5 -46q0 -36 24 -55t55 -19q74 0 74 123v751l149 33v-710q0 -247 -214 -247q-89 0 -133.5 39t-44.5 106q0 37 11 62h-40v678q-100 -48 -100 -168q0 -28 4.5 -51t9.5 -32.5
t12.5 -21t8.5 -12.5q-130 0 -130 121q0 94 91 165t206 71q16 0 42 -2z" />
    <glyph glyph-name="ij" unicode="ij" horiz-adv-x="507" 
d="M314 500h144v-464q44 17 66.5 48.5t29.5 94.5h42q-8 -89 -45 -129.5t-93 -58.5v-71q0 -51 -12.5 -86t-34 -52.5t-44 -24.5t-48.5 -7q-59 0 -99 31t-40 82q0 88 134 133v504zM47 500l7688 668v-340q0 -41 11 -55t41 -14q19 0 31 6q0 -3 -2 -4.5t-4 -1.5h-1q-3 0 -8.5 -18
t-10 -47t-4.5 -53q0 -23 -3711.5 -82t-4029.5 -59zM7580 1301q0 33 23 56.5t56 23.5t56.5 -23.5t23.5 -56.5t-23.5 -56t-56.5 -23t-56 23t-23 56zM7849 1301q0 33 23 56.5t56 23.5t56.5 -23.5t23.5 -56.5t-23.5 -56t-56.5 -23t-56 23t-23 56zM7777 540q0 -18 13 -31t28 -13
q40 0 40 89v29q-81 -34 -81 -74z" />
    <glyph glyph-name="ff" unicode="ff" horiz-adv-x="511" 
d="M431 749q66 0 106 -40.5t46 -108.5h-47q-6 33 -15 47t-32 14q-54 0 -54 -79v-82h100v-40h-100v-540q0 -51 -13 -86.5t-35.5 -52.5t-45 -24t-48.5 -7q-87 0 -125 63q-35 -63 -114 -63q-62 0 -106 37.5t-44 94.5q0 49 35 75.5t108 50.5v571q0 50 13 86t36 53t45 24t48 7
q81 0 123 -64q34 64 119 64zM191 460v-423l100 18v534q0 34 -14.5 52.5t-33.5 18.5q-21 0 -36.5 -21.5t-15.5 -59.5v-79h73v-40h-73zM238 -161q27 0 40 16t13 62v113l-100 -19v-91q0 -34 -6 -60q16 -21 53 -21zM-43 -111q0 -23 16.5 -36.5t33.5 -13.5q41 0 41 78v58
q-91 -32 -91 -86z" />
    <glyph glyph-name="fi" unicode="fi" horiz-adv-x="532" 
d="M-45 -113q0 -26 17.5 -37t33.5 -11q17 0 29 19t12 59v58q-92 -31 -92 -88zM303 618q0 31 34 37q-9 40 -63 40q-82 0 -82 -113v-82h81v-40h-80v-540q0 -49 -12.5 -84t-34.5 -53t-44.5 -25.5t-49.5 -7.5q-63 0 -106.5 37.5t-43.5 92.5q0 51 36.5 78t108.5 50v526
q0 215 205 215q189 0 189 -130q0 -31 -20 -48.5t-48 -17.5t-49 17.5t-21 47.5zM312 500h144v-340q0 -41 11 -55t41 -14q29 0 48.5 25t22.5 63h42q-6 -47 -21 -82t-32.5 -54t-40 -30.5t-40 -15t-36.5 -3.5q-139 0 -139 155v351z" />
    <glyph glyph-name="fl" unicode="fl" horiz-adv-x="546" 
d="M470 680l1 -520q0 -41 11 -55t41 -14q29 0 48.5 25t22.5 63h42q-6 -47 -21 -82t-32.5 -54t-40 -30.5t-40 -15t-36.5 -3.5q-139 0 -139 155v521q-42 16 -86 16q-51 0 -51 -76v-110h94v-40h-93v-543q0 -167 -144 -167q-55 0 -99.5 37t-44.5 94q0 50 36 76.5t108 50.5v574
q0 167 144 167q42 0 93 -11t88 -23t98 -35zM-44 -114q0 -19 15.5 -33t33.5 -14t30.5 18.5t12.5 59.5v58q-92 -33 -92 -89z" />
    <glyph glyph-name="ffi" unicode="ffi" horiz-adv-x="764" 
d="M422 500h266v-340q0 -41 11 -55t41 -14q29 0 48.5 25t22.5 63h42q-6 -47 -21 -82t-32.5 -54t-40 -30.5t-40 -15t-36.5 -3.5q-139 0 -139 155v311h-121v-543q0 -49 -12.5 -83.5t-34 -51.5t-44.5 -24.5t-50 -7.5q-79 0 -119 53q-38 -53 -110 -53q-61 0 -105.5 37t-44.5 94
q0 50 36 76.5t108 50.5v574q0 167 146 167q82 0 133 -51q46 51 147 51q35 0 66.5 -5.5t63 -19t50.5 -40t19 -64.5q0 -67 -63 -67q-30 0 -52 15t-22 47q0 41 25 41q7 0 8 -1q-11 40 -64 40q-82 0 -82 -113v-82zM193 460v-424l85 16v408h-85zM224 -175q55 0 55 92v110l-86 -19
v-88q0 -32 -7 -65q5 -30 38 -30zM278 500v34q0 77 23 125q-19 17 -45 17q-63 0 -63 -89v-87h85zM-38 -111q0 -23 16 -36.5t33 -13.5q18 0 30.5 18.5t12.5 59.5v58q-92 -32 -92 -86z" />
    <glyph glyph-name="ffl" unicode="ffl" horiz-adv-x="779" 
d="M47 -250q-55 0 -99.5 37t-44.5 94q0 50 36 76.5t108 50.5v574q0 167 145 167q74 0 124 -42q37 42 108 42q42 0 93 -11t88 -23t98 -35v-520q0 -40 11 -54.5t42 -14.5q29 0 48.5 25t22.5 63h42q-6 -47 -21 -82t-32.5 -54t-40.5 -30.5t-40.5 -15t-36.5 -3.5q-60 0 -99 46
t-39 139v491q-42 16 -86 16q-51 0 -51 -76v-110h94v-40h-93v-540q0 -49 -12.5 -84t-34 -53t-44.5 -25.5t-49 -7.5q-79 0 -121 52q-37 -52 -116 -52zM194 460v-423l84 15v408h-84zM187 -144q12 -31 43 -31q49 0 49 92v110l-85 -19v-88q0 -39 -7 -64zM278 500v79q0 51 13 87
q-15 10 -34 10q-66 0 -66 -89v-87h87zM-38 -114q0 -19 15.5 -33t33.5 -14t30.5 18.5t12.5 59.5v58q-92 -33 -92 -89z" />
    <glyph glyph-name="E_x" unicode="Ex" horiz-adv-x="787" 
d="M431 462h141l70 -178q63 90 63 147q0 4 -5 24q-12 -2 -17 -2q-31 0 -45.5 20.5t-14.5 43.5q0 18 13 28.5t34 10.5q40 0 65 -34t25 -80q0 -81 -96 -214l20 -49q11 -27 17.5 -41.5t23.5 -30.5t37 -16q29 0 48.5 25t22.5 63h42q-8 -58 -27 -97.5t-45 -57t-48 -24t-46 -6.5
q-46 0 -79 31t-66 103q-44 -64 -124 -104t-165 -40q-100 0 -166.5 55t-66.5 164q0 73 36 135.5t100 78.5q-91 57 -91 152q0 73 48.5 128t128.5 55q75 0 124 -32t49 -100q0 -35 -15 -63.5t-45 -28.5q-27 0 -48 22q28 9 28 68q0 39 -20.5 57t-48.5 18q-35 0 -55.5 -32.5
t-20.5 -78.5q0 -55 34 -101.5t99 -62.5q-61 -14 -96.5 -74.5t-35.5 -128.5q0 -70 35.5 -104t92.5 -34q55 0 111 29.5t88 77.5z" />
    <glyph glyph-name="F_i" unicode="Fi" horiz-adv-x="823" 
d="M436 450h126v-74h-126v-376h-146v668h-9q-51 0 -78.5 -29t-27.5 -101q0 -54 8.5 -85t20 -45t11.5 -15q-68 0 -101 32.5t-33 109.5q0 93 71 154t221 61q31 0 109 -10t126 -10q72 0 141 19q0 -31 -3 -55t-12 -48.5t-28 -38t-48 -13.5q-36 0 -70 8.5t-77.5 24t-74.5 23.5
v-200zM603 500h144v-340q0 -41 11 -55t41 -14q29 0 48.5 25t22.5 63h42q-6 -47 -21 -82t-32.5 -54t-40 -30.5t-40 -15t-36.5 -3.5q-139 0 -139 155v351z" />
    <glyph glyph-name="T_h" unicode="Th" horiz-adv-x="1009" 
d="M117 514q0 -44 7.5 -69.5t17.5 -38t11 -14.5q-68 0 -100.5 32t-32.5 106q0 94 75 156.5t227 62.5q16 0 117 -13t159 -13q83 0 116 24q-8 -23 -11.5 -40t-6.5 -61t-3 -118v-82q39 58 107 58q64 0 103 -42.5t39 -137.5q0 -23 -2 -76.5t-2 -71.5q0 -44 11.5 -64.5
t41.5 -20.5t42.5 21t22.5 67h42q-7 -58 -23.5 -97.5t-38.5 -57t-41.5 -24t-42.5 -6.5q-76 0 -112 48.5t-36 133.5q0 18 1 65t1 63q0 109 -52 109q-48 0 -59 -87v-326h-135v638q-2 0 -134 17v-655h-146v664q-163 -7 -163 -150z" />
    <glyph glyph-name="T_i" unicode="Ti" horiz-adv-x="783" 
d="M281 0l1 671q-21 3 -40 3q-62 0 -94.5 -34.5t-32.5 -117.5q0 -34 6 -60.5t12.5 -38t13 -20.5t7.5 -11q-134 0 -134 132q0 99 69.5 162t206.5 63q34 0 126.5 -8t149.5 -8q83 0 114 14q26 -47 26 -86q0 -43 -26.5 -61.5t-59.5 -18.5q-16 0 -39 5t-42 11.5t-56.5 19
l-61.5 20.5v-637h-146zM563 500h144v-340q0 -41 11 -55t41 -14q29 0 48.5 25t22.5 63h42q-6 -47 -21 -82t-32.5 -54t-40 -30.5t-40 -15t-36.5 -3.5q-139 0 -139 155v351z" />
    <glyph glyph-name="a_x" unicode="ax" horiz-adv-x="899" 
d="M315 500h144v-340q0 -20 2.5 -33t15.5 -24.5t36 -11.5q38 0 77 27.5t63 67.5l-124 314h141l85 -215q62 89 62 146q0 17 -5 24q-12 -2 -17 -2q-31 0 -45.5 20.5t-14.5 43.5q0 18 13 28.5t34 10.5q40 0 65.5 -34t25.5 -80q0 -78 -96 -213l20 -50q7 -17 10 -25t10.5 -22.5
t14.5 -21.5t18 -13t24 -6q29 0 48.5 25t23.5 63h42q-8 -58 -27.5 -97.5t-45.5 -57t-48 -24t-46 -6.5q-46 0 -79 31t-65 103q-78 -134 -207 -134q-42 0 -80 25.5t-54 67.5q-42 -93 -130 -93q-73 0 -124.5 56t-51.5 176q0 48 10.5 95.5t32.5 89.5t60 68t88 26q75 0 94 -53v48z
M266 443q-44 0 -67 -65t-23 -143q0 -50 7.5 -82t21 -44t22.5 -15t23 -3q24 0 44.5 24t20.5 64v226q-14 38 -49 38z" />
    <glyph glyph-name="a_z" unicode="a&#x7a;" horiz-adv-x="906" 
d="M315 500h144v-340q0 -41 11 -55t41 -14q12 0 20 4q-9 -58 -26 -79.5t-58 -21.5q-91 0 -112 92q-42 -92 -129 -92q-73 0 -124.5 56t-51.5 176q0 48 10.5 95.5t32.5 89.5t60 68t88 26q75 0 94 -53v48zM843 91q-11 1 -17.5 8.5t-6.5 17.5q0 15 12 26.5t35 11.5
q27 0 41.5 -18t14.5 -44q0 -35 -27 -64t-74 -29h-276l196 446h-74q-51 0 -51 -14q0 -3 2.5 -4t6 -2t6 -8t2.5 -21q0 -20 -13 -31t-31 -11q-22 0 -39.5 14.5t-17.5 40.5q0 33 26 61.5t70 28.5h275l-191 -423q5 0 23 -2t35.5 -3t29.5 -1q43 0 43 20zM266 443q-44 0 -67 -65
t-23 -143q0 -50 7.5 -82t21 -44t22.5 -15t23 -3q24 0 44.5 24t20.5 64v226q-14 38 -49 38z" />
    <glyph glyph-name="b_s" unicode="bs" horiz-adv-x="786" 
d="M846 179h42q-43 -64 -117 -118q-34 -67 -130 -67q-84 0 -127 44t-43 111q0 33 15.5 53t38.5 20q62 0 62 -49q0 -16 -11 -27t-28 -11q-21 0 -30 13q16 -75 74 -75q25 0 37 13t12 43q0 40 -8.5 72t-32.5 100t-44 138q-46 -102 -127 -134q2 -24 2 -37q0 -39 -5.5 -74.5
t-20.5 -73t-38.5 -64.5t-63.5 -44.5t-91 -17.5q-82 0 -123.5 41t-41.5 114v531l144 20v-225q43 30 78 30q57 0 97.5 -39t56.5 -112q63 19 114 157l144 20q26 -101 54.5 -188.5t39.5 -127.5t11 -85q32 21 60 49zM328 259q0 13 -2 37q-27 14 -27 55q0 18 8 29q-24 52 -64 52
q-37 0 -52 -18v-264q0 -59 50 -59q33 0 53.5 27.5t27 62.5t6.5 78z" />
    <glyph glyph-name="b_s_x" unicode="bsx" horiz-adv-x="1165" 
d="M774 500h141l85 -215q79 108 79 155q0 9 -1 14q-4 0 -7.5 -1t-7.5 -1q-30 0 -46 17t-16 40q0 25 18.5 40t43.5 15q31 0 53.5 -23t22.5 -68q0 -94 -115 -249l18 -45q1 -3 7 -19t8.5 -21.5t9 -17.5t13 -16.5t16.5 -9t23 -4.5q29 0 48.5 25t23.5 63h42q-8 -58 -27.5 -97.5
t-45.5 -57t-48 -24t-46 -6.5q-48 0 -81.5 34t-68.5 115q-20 -17 -46 -32t-58.5 -31t-41.5 -21q-36 -65 -129 -65q-84 0 -127 44t-43 111q0 33 15.5 53t38.5 20q62 0 62 -49q0 -16 -11 -27t-28 -11q-21 0 -30 13q16 -75 74 -75q25 0 37 13t12 43q0 40 -8.5 72t-32.5 100
t-44 138q-46 -102 -127 -134q2 -24 2 -37q0 -39 -5.5 -74.5t-20.5 -73t-38.5 -64.5t-63.5 -44.5t-91 -17.5q-82 0 -123.5 41t-41.5 114v531l144 20v-225q43 30 78 30q57 0 97.5 -39t56.5 -112q63 19 114 157l144 20q26 -101 55 -189t39.5 -127.5t10.5 -85.5v-6q72 33 108 72
zM328 259q0 13 -2 37q-27 14 -27 55q0 18 8 29q-24 52 -64 52q-37 0 -52 -18v-264q0 -59 50 -59q33 0 53.5 27.5t27 62.5t6.5 78z" />
    <glyph glyph-name="b_s_z" unicode="bs&#x7a;" horiz-adv-x="1158" 
d="M46 149l1 531l144 20v-225q43 30 78 30q57 0 97.5 -39t56.5 -112q36 9 70.5 50t58.5 107l144 20q16 -62 38 -142t29 -108t13 -62t6 -61q0 -164 -150 -164q-78 0 -121.5 44t-43.5 107q0 77 60 77q24 0 40 -13t16 -34q0 -18 -11 -29t-28 -11q-21 0 -30 13q16 -75 74 -75
q27 0 38 19t11 61q0 25 -4.5 52t-10 47.5t-22.5 80.5t-29 106q-50 -103 -141 -135q1 -12 1 -36q0 -39 -5.5 -74.5t-20.5 -73t-38.5 -64.5t-63.5 -44.5t-91 -17.5q-82 0 -124 41.5t-42 113.5zM1095 91q-11 1 -17.5 8.5t-6.5 17.5q0 15 12 26.5t35 11.5q27 0 41.5 -18
t14.5 -44q0 -35 -27 -64t-74 -29h-276l196 446h-74q-51 0 -51 -14q0 -3 2.5 -4t6 -2t6 -8t2.5 -21q0 -20 -13 -31t-31 -11q-22 0 -39.5 14.5t-17.5 40.5q0 33 26 61.5t70 28.5h275l-191 -423q5 0 23 -2t35.5 -3t29.5 -1q43 0 43 20zM328 259q0 13 -2 37q-27 14 -27 55
q0 18 8 29q-24 52 -64 52q-37 0 -52 -18v-264q0 -59 50 -59q33 0 53.5 27.5t27 62.5t6.5 78z" />
    <glyph glyph-name="c_x" unicode="cx" horiz-adv-x="779" 
d="M289 356q3 15 3 34q0 66 -39 66q-34 0 -55 -72.5t-21 -149.5q0 -158 129 -158q56 0 114.5 30t94.5 84l-122 310h141l83 -211q76 103 76 151q0 9 -1 14q-4 0 -7.5 -1t-7.5 -1q-30 0 -46 17t-16 40q0 25 18.5 40t43.5 15q31 0 53.5 -23t22.5 -68q0 -94 -112 -245l20 -49
q7 -17 10 -25t10.5 -22.5t14.5 -21.5t18 -13t24 -6q29 0 48.5 25t23.5 63h42q-8 -57 -27.5 -97t-45 -57.5t-47 -24t-44.5 -6.5q-50 0 -83 32t-66 107q-49 -64 -127.5 -101.5t-159.5 -37.5q-97 0 -159 55t-62 179q0 45 10 90.5t31 90t63 72.5t99 28q41 0 69.5 -11t41 -30
t17.5 -36t5 -36q0 -26 -11 -39t-29 -13q-19 0 -38 12z" />
    <glyph glyph-name="c_z" unicode="c&#x7a;" horiz-adv-x="781" 
d="M720 91q-11 1 -17.5 8.5t-6.5 17.5q0 15 12 26.5t35 11.5q27 0 41.5 -18t14.5 -44q0 -35 -27 -64t-74 -29h-265l160 446h-36q-51 0 -51 -14q0 -3 2.5 -4t6 -2t6 -8t2.5 -21q0 -20 -13 -31t-31 -11q-22 0 -39.5 14.5t-17.5 40.5q0 33 26 61.5t70 28.5h237l-155 -423
q20 0 50 -6t43 -6q27 0 27 26zM288 345q3 16 3 30q0 77 -41 77q-37 0 -57 -67t-20 -152q0 -89 24 -121t77 -32q54 0 96 57q-2 -72 -32.5 -107.5t-110.5 -35.5q-90 0 -143 55.5t-53 174.5q0 37 5 73t19 74.5t36 67.5t59.5 47.5t85.5 18.5q70 0 101 -34t31 -78
q0 -27 -10.5 -43.5t-28.5 -16.5q-20 0 -41 12z" />
    <glyph glyph-name="e_x" unicode="ex" horiz-adv-x="765" 
d="M394 500h141l89 -227q88 118 88 167q0 9 -1 14q-4 0 -7.5 -1t-7.5 -1q-30 0 -46 17t-16 40q0 25 18.5 40t43.5 15q31 0 53.5 -23t22.5 -68q0 -98 -124 -260l14 -34q11 -27 17.5 -41.5t23.5 -30.5t37 -16q29 0 48.5 25t22.5 63h42q-6 -47 -20.5 -82t-31.5 -54t-38.5 -30.5
t-38 -15t-34.5 -3.5q-49 0 -82.5 31t-67.5 107q-48 -62 -125.5 -100t-160.5 -38q-97 0 -159 54.5t-62 177.5q0 45 10 90t31.5 89.5t63.5 72t99 27.5q38 0 65 -10.5t40 -23t20 -33t8 -32t1 -27.5q0 -72 -55.5 -122t-135.5 -55q11 -126 126 -126q56 0 115.5 30t95.5 83z
M294 385q0 67 -38 67q-33 0 -53.5 -63.5t-23.5 -138.5q50 4 82.5 43t32.5 92z" />
    <glyph glyph-name="e_z" unicode="e&#x7a;" horiz-adv-x="796" 
d="M264 89q27 0 56.5 15.5t50.5 37.5q0 -81 -37 -114.5t-104 -33.5q-92 0 -145 56t-53 176q0 46 10 91.5t31.5 89.5t63.5 71t99 27q38 0 65 -10.5t40 -23t20 -33t8 -32t1 -27.5q0 -72 -55.5 -122t-135.5 -55q9 -113 85 -113zM733 91q-11 1 -17.5 8.5t-6.5 17.5q0 15 12 26.5
t35 11.5q27 0 41.5 -18t14.5 -44q0 -35 -27 -64t-74 -29h-276l196 446h-74q-51 0 -51 -14q0 -3 2.5 -4t6 -2t6 -8t2.5 -21q0 -20 -13 -31t-31 -11q-22 0 -39.5 14.5t-17.5 40.5q0 33 26 61.5t70 28.5h275l-191 -423q5 0 23 -2t35.5 -3t29.5 -1q43 0 43 20zM292 385
q0 67 -37 67q-33 0 -53.5 -63.5t-23.5 -138.5q50 4 82 43t32 92z" />
    <glyph glyph-name="eacute_x" unicode="&#xe9;x" horiz-adv-x="798" 
d="M394 500h141l89 -227q88 118 88 167q0 9 -1 14q-4 0 -7.5 -1t-7.5 -1q-30 0 -46 17t-16 40q0 25 18.5 40t43.5 15q31 0 53.5 -23t22.5 -68q0 -98 -124 -260l14 -34q11 -27 17.5 -41.5t23.5 -30.5t37 -16q29 0 48.5 25t22.5 63h42q-6 -47 -20.5 -82t-31.5 -54t-38.5 -30.5
t-38 -15t-34.5 -3.5q-49 0 -82.5 31t-67.5 107q-48 -62 -125.5 -100t-160.5 -38q-97 0 -159 54.5t-62 177.5q0 45 10 90t31.5 89.5t63.5 72t99 27.5q38 0 65 -10.5t40 -23t20 -33t8 -32t1 -27.5q0 -72 -55.5 -122t-135.5 -55q11 -126 126 -126q56 0 115.5 30t95.5 83z
M193 561l51 189h105l-81 -189h-75zM294 385q0 67 -38 67q-33 0 -53.5 -63.5t-23.5 -138.5q50 4 82.5 43t32.5 92z" />
    <glyph glyph-name="f_f_t" unicode="fft" horiz-adv-x="783" 
d="M54 -250q-62 0 -106.5 37t-44.5 94q0 50 36 76.5t108 50.5v574q0 167 146 167q75 0 125 -44q36 44 115 44q89 0 274 -69v-180h61v-40h-61v-300q0 -38 11.5 -53.5t36.5 -15.5q67 0 76 88h42q-8 -57 -28 -97t-46.5 -57.5t-48.5 -24t-45 -6.5q-63 0 -102 46t-39 139v281
h-136v-540q0 -94 -41 -132t-102 -38q-80 0 -120 55q-36 -55 -111 -55zM194 460v-423l88 15v408h-88zM564 500v170q-42 16 -87 16q-50 0 -50 -76v-110h137zM189 -135q0 -40 39 -40q55 0 55 92v111l-89 -20v-88q0 -28 -5 -55zM282 500v79q0 48 13 85q-19 12 -39 12
q-62 0 -62 -89v-87h88zM-38 -111q0 -23 16 -36.5t33 -13.5q18 0 30.5 18.5t12.5 59.5v58q-92 -32 -92 -86z" />
    <glyph glyph-name="f_i_x" unicode="fix" horiz-adv-x="914" 
d="M303 618q0 31 34 37q-9 40 -63 40q-82 0 -82 -113v-82h81v-40h-80v-540q0 -49 -12.5 -84t-34.5 -53t-44.5 -25.5t-49.5 -7.5q-63 0 -106.5 37.5t-43.5 92.5q0 51 36.5 78t108.5 50v526q0 215 205 215q189 0 189 -130q0 -31 -20 -48.5t-48 -17.5t-49 17.5t-21 47.5z
M312 500h144v-340q0 -68 55 -68q37 0 76 26t63 67l-124 315h141l84 -213q77 106 77 153q0 9 -1 14q-4 0 -7.5 -1t-7.5 -1q-30 0 -46 17t-16 40q0 25 18.5 40t43.5 15q31 0 53.5 -23t22.5 -68q0 -93 -113 -247l19 -47q11 -27 17.5 -41.5t23.5 -30.5t37 -16q29 0 48.5 25
t22.5 63h42q-8 -58 -27 -97.5t-45 -57t-48 -24t-46 -6.5q-47 0 -80 31.5t-66 105.5q-41 -59 -102 -98t-126 -39q-61 0 -97 46t-36 139v321zM-45 -113q0 -26 17.5 -37t33.5 -11q17 0 29 19t12 59v58q-92 -31 -92 -88z" />
    <glyph glyph-name="f_i_z" unicode="fi&#x7a;" horiz-adv-x="902" 
d="M-45 -113q0 -26 17.5 -37t33.5 -11q17 0 29 19t12 59v58q-92 -31 -92 -88zM303 618q0 31 34 37q-9 40 -63 40q-82 0 -82 -113v-82h81v-40h-80v-540q0 -49 -12.5 -84t-34.5 -53t-44.5 -25.5t-49.5 -7.5q-63 0 -106.5 37.5t-43.5 92.5q0 51 36.5 78t108.5 50v526
q0 215 205 215q189 0 189 -130q0 -31 -20 -48.5t-48 -17.5t-49 17.5t-21 47.5zM312 500h144v-340q0 -41 11 -55t41 -14q19 0 31 6q1 -7 1 -20q0 -45 -27 -64t-62 -19q-139 0 -139 155v351zM839 91q-11 1 -17.5 8.5t-6.5 17.5q0 15 12 26.5t35 11.5q27 0 41.5 -18t14.5 -44
q0 -35 -27 -64t-74 -29h-276l196 446h-74q-51 0 -51 -14q0 -3 2.5 -4t6 -2t6 -8t2.5 -21q0 -20 -13 -31t-31 -11q-22 0 -39.5 14.5t-17.5 40.5q0 33 26 61.5t70 28.5h275l-191 -423q5 0 23 -2t35.5 -3t29.5 -1q43 0 43 20z" />
    <glyph glyph-name="f_l_x" unicode="flx" horiz-adv-x="928" 
d="M539 500h141l84 -213q78 105 78 153q0 9 -1 14q-4 0 -7.5 -1t-7.5 -1q-30 0 -46 17t-16 40q0 25 18.5 40t43.5 15q31 0 53.5 -23t22.5 -68q0 -96 -114 -247l19 -47q10 -27 17.5 -42t24 -30.5t36.5 -15.5q29 0 48.5 25t22.5 63h42q-8 -58 -27 -97.5t-45 -57t-48 -24
t-46 -6.5q-47 0 -80 31.5t-66 104.5q-41 -59 -99 -97.5t-123 -38.5q-61 0 -99 46.5t-38 138.5v491q-42 16 -86 16q-51 0 -51 -76v-110h94v-40h-93v-543q0 -167 -144 -167q-55 0 -99.5 37t-44.5 94q0 50 36 76.5t108 50.5v574q0 167 144 167q42 0 93 -11t88 -23t98 -35v-520
q0 -68 55 -68q37 0 76 25.5t63 66.5zM-44 -114q0 -19 15.5 -33t33.5 -14t30.5 18.5t12.5 59.5v58q-92 -33 -92 -89z" />
    <glyph glyph-name="f_l_z" unicode="fl&#x7a;" horiz-adv-x="937" 
d="M470 680l1 -520q0 -41 11 -55t41 -14q20 0 30 6q2 -14 2 -21q0 -37 -24.5 -59.5t-64.5 -22.5q-139 0 -139 155v521q-42 16 -86 16q-51 0 -51 -76v-110h94v-40h-93v-543q0 -167 -144 -167q-55 0 -99.5 37t-44.5 94q0 50 36 76.5t108 50.5v574q0 167 144 167q42 0 93 -11
t88 -23t98 -35zM-44 -114q0 -19 15.5 -33t33.5 -14t30.5 18.5t12.5 59.5v58q-92 -33 -92 -89zM874 91q-11 1 -17.5 8.5t-6.5 17.5q0 15 12 26.5t35 11.5q27 0 41.5 -18t14.5 -44q0 -35 -27 -64t-74 -29h-276l196 446h-74q-51 0 -51 -14q0 -3 2.5 -4t6 -2t6 -8t2.5 -21
q0 -20 -13 -31t-31 -11q-22 0 -39.5 14.5t-17.5 40.5q0 33 26 61.5t70 28.5h275l-191 -423q5 0 23 -2t35.5 -3t29.5 -1q43 0 43 20z" />
    <glyph glyph-name="f_t" unicode="ft" horiz-adv-x="547" 
d="M471 460l1 -300q0 -40 10.5 -54.5t41.5 -14.5q29 0 48.5 25t22.5 63h42q-6 -47 -21 -82t-32.5 -54t-40.5 -30.5t-40.5 -15t-36.5 -3.5q-60 0 -99 46t-39 139v281h-137v-543q0 -167 -144 -167q-55 0 -99.5 37t-44.5 94q0 50 36 76.5t108 50.5v574q0 167 145 167
q42 0 93 -11t88 -23t98 -35v-180h61v-40h-61zM328 500v170q-42 16 -86 16q-51 0 -51 -76v-110h137zM-44 -114q0 -19 15.5 -33t33.5 -14t30.5 18.5t12.5 59.5v58q-92 -33 -92 -89z" />
    <glyph glyph-name="f_u" unicode="fu" horiz-adv-x="772" 
d="M191 500h267v-340q0 -69 41 -69q27 0 45 25t18 63v321h144v-340q0 -38 10 -53.5t36 -15.5q68 0 77 88h42q-6 -47 -21 -82t-32.5 -54t-40 -30.5t-40.5 -15t-37 -3.5q-98 0 -119 95q-37 -95 -133 -95q-134 0 -134 155v311h-123v-540q0 -51 -13 -86.5t-35 -52.5t-43.5 -24
t-45.5 -7q-62 0 -106 37.5t-44 94.5q0 49 35 75.5t108 50.5v571q0 50 13 86t36 53t45 24t48 7q67 0 106 -42t45 -107h-47q-6 33 -15 47t-31 14q-56 0 -56 -82v-79zM-43 -111q0 -23 16.5 -36.5t33.5 -13.5q41 0 41 78v58q-91 -32 -91 -86z" />
    <glyph glyph-name="f_x" unicode="fx" horiz-adv-x="676" 
d="M191 500h238l89 -205q72 99 72 145q0 9 -1 14q-4 0 -7.5 -1t-7.5 -1q-30 0 -46 17t-16 40q0 25 18.5 40t43.5 15q31 0 53.5 -23t22.5 -66q0 -92 -106 -239l25 -57q12 -28 19.5 -42.5t23.5 -30t35 -15.5q29 0 48.5 25t22.5 63h42q-25 -185 -163 -185q-53 0 -88.5 41
t-80.5 144l-3 6q-67 -50 -67 -99q0 -8 1 -12q4 1 12 1q25 0 39.5 -17.5t14.5 -45.5q0 -41 -47 -41q-41 0 -62 25t-21 64q0 44 31 94t75 85l-96 221h-114v-540q0 -51 -13 -86.5t-35 -52.5t-43.5 -24t-45.5 -7q-62 0 -106 37.5t-44 94.5q0 49 35 75.5t108 50.5v571q0 50 13 86
t36 53t45 24t48 7q67 0 106 -42t45 -107h-47q-6 33 -15 47t-31 14q-56 0 -56 -82v-79zM-43 -111q0 -23 16.5 -36.5t33.5 -13.5q41 0 41 78v58q-91 -32 -91 -86z" />
    <glyph glyph-name="g_p" unicode="gp" horiz-adv-x="974" 
d="M554 537h144v-75q40 43 108 43q74 0 121 -59.5t47 -195.5q0 -46 -9 -88.5t-29 -81.5t-57.5 -62.5t-88.5 -23.5q-50 0 -92 3v-211l-144 -36v252q-58 -2 -96 -11v-71q0 -170 -143 -170q-56 0 -95.5 31t-39.5 85q0 87 134 135v79q-38 -66 -112 -66q-72 0 -123.5 54.5
t-51.5 169.5q0 63 18 121t64 102t113 44q73 0 92 -50v45h144v-459q64 14 96 19v477zM742 76q48 0 70.5 57t22.5 129q0 171 -79 171q-18 0 -34 -13t-24 -36v-309q14 1 44 1zM266 443q-45 0 -69 -62.5t-24 -135.5q0 -46 7 -76t20.5 -41t23 -14t22.5 -3q22 0 42.5 19t25.5 52
v226q-4 13 -16.5 24t-31.5 11zM233 -130q0 -16 12.5 -29t29.5 -13t28 23.5t11 65.5v29q-81 -34 -81 -76z" />
    <glyph glyph-name="g_x" unicode="gx" horiz-adv-x="913" 
d="M314 500h144v-462q109 42 185 155l-121 307h141l85 -215q79 108 79 155q0 9 -1 14q-4 0 -7.5 -1t-7.5 -1q-30 0 -46 17t-16 40q0 25 18.5 40t43.5 15q31 0 53.5 -23t22.5 -68q0 -94 -115 -249l18 -45q11 -27 17.5 -41.5t23.5 -30.5t37 -16q29 0 48 25t23 63h42
q-8 -58 -27.5 -97.5t-45.5 -57t-48 -24t-46 -6.5q-47 0 -79.5 31.5t-65.5 105.5q-63 -88 -211 -137v-74q0 -170 -144 -170q-56 0 -95.5 31t-39.5 85q0 73 135 126v88q-38 -66 -112 -66q-72 0 -123.5 54.5t-51.5 169.5q0 63 18 121t64 102t113 44q73 0 92 -50v45zM266 443
q-45 0 -69 -62.5t-24 -135.5q0 -46 7 -76t20.5 -41t23 -14t22.5 -3q22 0 42.5 19t25.5 52v226q-4 13 -16.5 24t-31.5 11zM233 -130q0 -16 12 -29t30 -13q17 0 28 23.5t11 65.5v29q-81 -32 -81 -76z" />
    <glyph glyph-name="g_z" unicode="g&#x7a;" horiz-adv-x="907" 
d="M314 500h144v-580q0 -51 -12.5 -86.5t-34.5 -52.5t-44 -24t-48 -7q-59 0 -99 31t-40 82q0 88 134 133v84q-39 -66 -113 -66q-71 0 -122.5 54.5t-51.5 166.5q0 48 10.5 93t32.5 86t62.5 66t94.5 25q68 0 87 -50v45zM844 91q-11 1 -17.5 8.5t-6.5 17.5q0 15 12 26.5
t35 11.5q27 0 41.5 -18t14.5 -44q0 -35 -27 -64t-74 -29h-276l196 446h-74q-51 0 -51 -14q0 -3 2.5 -4t6 -2t6 -8t2.5 -21q0 -20 -13 -31t-31 -11q-22 0 -39.5 14.5t-17.5 40.5q0 33 26 61.5t70 28.5h275l-191 -423q5 0 23 -2t35.5 -3t29.5 -1q43 0 43 20zM266 443
q-31 0 -53 -32.5t-31 -77t-9 -93.5q0 -129 66 -129q31 0 51 20.5t24 53.5v223q-4 13 -16.5 24t-31.5 11zM233 -129q0 -18 13 -30.5t27 -12.5q19 0 30 23t11 66v29q-81 -33 -81 -75z" />
    <glyph glyph-name="i_x" unicode="ix" horiz-adv-x="635" 
d="M47 500h144v-340q0 -68 55 -68q37 0 76 26t63 67l-124 315h141l84 -213q77 106 77 153q0 9 -1 14q-4 0 -7.5 -1t-7.5 -1q-30 0 -46 17t-16 40q0 25 18.5 40t43.5 15q31 0 53.5 -23t22.5 -68q0 -93 -113 -247l19 -47q11 -27 17.5 -41.5t23.5 -30.5t37 -16q29 0 48.5 25
t22.5 63h42q-8 -58 -27 -97.5t-45 -57t-48 -24t-46 -6.5q-47 0 -80 31.5t-66 105.5q-41 -59 -102 -98t-126 -39q-61 0 -97 46t-36 139v321zM36 633q0 33 23 56.5t56 23.5t56.5 -23.5t23.5 -56.5t-23.5 -56t-56.5 -23t-56 23t-23 56z" />
    <glyph glyph-name="i_z" unicode="i&#x7a;" horiz-adv-x="637" 
d="M36 633q0 33 23 56.5t56 23.5t56.5 -23.5t23.5 -56.5t-23.5 -56t-56.5 -23t-56 23t-23 56zM47 500h144v-340q0 -41 11 -55t41 -14q19 0 31 6q1 -7 1 -20q0 -45 -27 -64t-62 -19q-139 0 -139 155v351zM574 91q-11 1 -17.5 8.5t-6.5 17.5q0 15 12 26.5t35 11.5
q27 0 41.5 -18t14.5 -44q0 -35 -27 -64t-74 -29h-276l196 446h-74q-51 0 -51 -14q0 -3 2.5 -4t6 -2t6 -8t2.5 -21q0 -20 -13 -31t-31 -11q-22 0 -39.5 14.5t-17.5 40.5q0 33 26 61.5t70 28.5h275l-191 -423q5 0 23 -2t35.5 -3t29.5 -1q43 0 43 20z" />
    <glyph glyph-name="iacute_x" unicode="&#xed;x" horiz-adv-x="635" 
d="M47 500h144v-340q0 -68 55 -68q37 0 76 26t63 67l-124 315h141l84 -213q77 106 77 153q0 9 -1 14q-4 0 -7.5 -1t-7.5 -1q-30 0 -46 17t-16 40q0 25 18.5 40t43.5 15q31 0 53.5 -23t22.5 -68q0 -93 -113 -247l19 -47q11 -27 17.5 -41.5t23.5 -30.5t37 -16q29 0 48.5 25
t22.5 63h42q-8 -58 -27 -97.5t-45 -57t-48 -24t-46 -6.5q-47 0 -80 31.5t-66 105.5q-41 -59 -102 -98t-126 -39q-61 0 -97 46t-36 139v321zM78 561l51 189h105l-81 -189h-75z" />
    <glyph glyph-name="iacute_z" unicode="&#xed;&#x7a;" horiz-adv-x="637" 
d="M47 500h144v-340q0 -41 11 -55t41 -14q19 0 31 6q1 -7 1 -20q0 -45 -27 -64t-62 -19q-139 0 -139 155v351zM574 91q-11 1 -17.5 8.5t-6.5 17.5q0 15 12 26.5t35 11.5q27 0 41.5 -18t14.5 -44q0 -35 -27 -64t-74 -29h-276l196 446h-74q-51 0 -51 -14q0 -3 2.5 -4t6 -2
t6 -8t2.5 -21q0 -20 -13 -31t-31 -11q-22 0 -39.5 14.5t-17.5 40.5q0 33 26 61.5t70 28.5h275l-191 -423q5 0 23 -2t35.5 -3t29.5 -1q43 0 43 20zM77 561l51 189h105l-81 -189h-75z" />
    <glyph glyph-name="j_x" unicode="jx" horiz-adv-x="627" 
d="M47 500l686 685v-462q109 42 185 155zM581 1318q0 33 23 56.5t56 23.5t56.5 -23.5t23.5 -56.5t-23.5 -56t-56.5 -23t-56 23t-23 56v0z" />
    <glyph glyph-name="j_z" unicode="j&#x7a;" horiz-adv-x="615" 
d="M47 500h144v-580q0 -51 -12.5 -86t-34 -52.5t-44 -24.5t-48.5 -7q-59 0 -99 31t-40 82q0 88 134 133v504zM288 406l128 -117l7 -11q1 -4 -3 -4q10 0 22 10.5t12 20.5q0 12 -14 52q-6 18 4 18q-9 0 -25.5 -7t-26 -10t-17.5 8t-8 42q0 -35 -27 -64t-74 -29h-276l196 446
h-74q-51 0 -51 -14q0 -3 2.5 -4t6 -2t6 -8t2.5 -21q0 -20 -13 -31t-31 -11q-22 0 -39.5 14.5t-17.5 40.5q0 33 26 61.5t70 28.5h275l-191 -423q5 0 23 -2t35.5 -3t29.5 -1q43 0 43 20zM-98 831q0 33 23 56.5t56 23.5t56.5 -23.5t23.5 -56.5t-23.5 -56t-56.5 -23t-56 23
t-23 56zM-170 70q0 -18 13 -31t28 -13q40 0 40 89v29q-81 -34 -81 -74z" />
    <glyph glyph-name="l_x" unicode="lx" horiz-adv-x="649" 
d="M92 -68l-1 501l144 20v-540q0 -68 55 -68q37 0 76 25.5t63 66.5l-125 316h141l84 -213q78 105 78 153q0 9 -1 14q-4 0 -7.5 -1t-7.5 -1q-30 0 -46 17t-16 40q0 25 18.5 40t43.5 15q31 0 53.5 -23t22.5 -68q0 -96 -114 -247l19 -47q10 -27 17.5 -42t24 -30.5t36.5 -15.5
q29 0 48.5 25t22.5 63h42q-8 -58 -27 -97.5t-45 -57t-48 -24t-46 -6.5q-47 0 -80 31.5t-66 104.5q-41 -59 -99 -97.5t-123 -38.5q-61 0 -99 46.5t-38 138.5z" />
    <glyph glyph-name="l_z" unicode="l&#x7a;" horiz-adv-x="635" 
d="M355 145l191 81q0 -63 -15 -94.5t-39.5 -31.5t-48.5 9t-50.5 22.5t-37.5 13.5zM593 906l170 -49v-540q-2 0 -24 -5q24 5 50 5q18 0 28 8q1 -7 1 -21q0 -40 -24 -62t-62 -22q-139 0 -139 155v531zM1144 248l90 -498q1 0 5.5 -0.5t6.5 0t5 2t4.5 5t2.5 11t1 17.5
q28 35 87 35q-24 0 -43 16t-19 46q0 -35 -27 -64t-74 -29h-276l196 446h-74q0 -31 -34 -31q149 0 149 44z" />
    <glyph glyph-name="m_x" unicode="mx" horiz-adv-x="1144" 
d="M844 448l420 -123l-53 84q79 108 79 154q0 9 -1 14q-4 0 -7.5 -1t-7.5 -1q-30 0 -46 17t-16 40q0 25 18.5 40t43.5 15q31 0 53.5 -23t22.5 -66q0 -99 -114 -250l18 -46q10 -27 17.5 -42t24 -30.5t36.5 -15.5q48 0 48 3q0 1 -23 1h42q-8 -58 -27 -97.5t-45 -57t-48 -24
t-46 -6.5q-47 0 -80 32t-67 106q0 -54 -52 -103t-131 -49q69 0 125.5 -23t56.5 -60q0 18 1 65t1 63q0 109 -53 109q-26 0 -40.5 -26t-17.5 -66v-321h-144v345q0 27 -10 48t-32 21q-5 0 -47.5 -2t-73.5 -2h-321v-144h500v144h-52v-53q38 57 110 57q19 0 17 4q-3 10 -51 17
q-17 3 -32 3q0 5 7.5 15t20.5 21t36.5 19t50.5 8q-12 0 -36 6.5t-47.5 13t-46 10.5t-36.5 0t-14 -19q0 -23 -2 -76.5t-2 -71.5q0 -85 57 -85q35 0 75 27t65 68z" />
    <glyph glyph-name="m_z" unicode="m&#x7a;" horiz-adv-x="1125" 
d="M549 302q0 111 -52 111q-51 0 -59 -92v-321h-144v345q0 69 -43 69q-26 0 -41.5 -26t-18.5 -67v-321h-144v500h144v-52q38 57 106 57q91 0 125 -85q37 84 123 84q140 0 140 -184q0 -17 -2 -71.5t-2 -72.5q0 -46 12 -65.5t45 -19.5q20 0 28 6q0 -103 -90 -103
q-129 0 -129 186q0 13 1 61.5t1 60.5zM1062 91q-11 1 -17.5 8.5t-6.5 17.5q0 15 12 26.5t35 11.5q27 0 41.5 -18t14.5 -44q0 -35 -27 -64t-74 -29h-276l196 446h-74q-51 0 -51 -14q0 -3 2.5 -4t6 -2t6 -8t2.5 -21q0 -20 -13 -31t-31 -11q-22 0 -39.5 14.5t-17.5 40.5
q0 33 26 61.5t70 28.5h275l-191 -423q5 0 23 -2t35.5 -3t29.5 -1q43 0 43 20z" />
    <glyph glyph-name="n_z" unicode="n&#x7a;" horiz-adv-x="882" 
d="M302 304q0 109 -53 109q-26 0 -40.5 -26t-17.5 -66v-321h-144v500h144v-52q37 56 105 56q64 0 103 -42.5t39 -137.5q0 -23 -2 -76.5t-2 -71.5q0 -44 11.5 -64.5t41.5 -20.5q25 0 32 6q0 -103 -88 -103q-69 0 -100 50.5t-31 131.5q0 18 1 65t1 63zM819 91q-11 1 -17.5 8.5
t-6.5 17.5q0 15 12 26.5t35 11.5q27 0 41.5 -18t14.5 -44q0 -35 -27 -64t-74 -29h-276l196 446h-74q-51 0 -51 -14q0 -3 2.5 -4t6 -2t6 -8t2.5 -21q0 -20 -13 -31t-31 -11q-22 0 -39.5 14.5t-17.5 40.5q0 33 26 61.5t70 28.5h275l-191 -423q5 0 23 -2t35.5 -3t29.5 -1
q43 0 43 20z" />
    <glyph glyph-name="o_ae" unicode="o&#xe6;" horiz-adv-x="1088" 
d="M244 505q133 0 160 -143q32 16 65 43t54 47.5t56.5 36.5t79.5 16q104 0 161 -44q49 44 120 44q133 0 133 -123q0 -72 -55 -123.5t-136 -56.5q4 -68 25 -96t61 -28q46 0 78 14t48 32t42 55h34q-76 -185 -237 -185q-121 0 -169 91q-30 -91 -114 -91q-165 0 -165 165
q0 131 197 131q23 0 47 -4q6 29 6 61q0 44 -20.5 71.5t-65.5 27.5q-38 0 -67.5 -14t-47 -33t-50.5 -43.5t-74 -39.5q2 -28 2 -45q0 -126 -46.5 -201.5t-148.5 -75.5q-82 0 -134.5 54t-52.5 172q0 48 9.5 93.5t32 91t67 73t105.5 27.5zM245 88q41 0 61 52t20 139v16
q-20 1 -31 19t-11 42q0 32 26 42q-17 47 -51 47q-40 0 -61 -66.5t-21 -148.5q0 -142 68 -142zM995 387q0 69 -36 69q-34 0 -55 -65t-23 -141q49 3 81.5 43.5t32.5 93.5zM713 229q-37 0 -62.5 -19t-25.5 -55q0 -64 63 -64q46 0 46 137q-4 0 -11 0.5t-10 0.5z" />
    <glyph glyph-name="o_s" unicode="os" horiz-adv-x="774" 
d="M524 511l144 20q26 -101 54.5 -188t39.5 -126.5t11 -84.5q33 20 60 47h42q-42 -62 -115 -114q-33 -71 -132 -71q-84 0 -127 44t-43 111q0 33 16 53t39 20q61 0 61 -49q0 -16 -11 -27t-28 -11q-21 0 -30 13q16 -75 74 -75q25 0 37 13t12 43q0 40 -8.5 72t-32.5 100
t-44 138q-50 -107 -132 -137q0 -5 0.5 -15t0.5 -16q0 -126 -46.5 -201.5t-148.5 -75.5q-82 0 -134.5 54t-52.5 172q0 48 9.5 93.5t32 91t67 73t105.5 27.5q136 0 162 -152q64 14 118 158zM245 88q41 0 61 52t20 139v13q-40 9 -40 59q0 32 26 42q-18 52 -53 52
q-40 0 -61 -66.5t-21 -148.5q0 -142 68 -142z" />
    <glyph glyph-name="o_s_x" unicode="osx" horiz-adv-x="1146" 
d="M244 505q136 0 162 -152q64 14 118 158l144 20q26 -101 55 -189t39.5 -127.5t10.5 -85.5v-6q73 34 109 72l-120 305h141l82 -209q75 102 75 149q0 9 -1 14q-4 0 -7.5 -1t-7.5 -1q-30 0 -46 17t-16 40q0 25 18.5 40t43.5 15q31 0 53.5 -23t22.5 -68q0 -94 -110 -243
l20 -51q7 -17 10 -25t10.5 -22.5t14.5 -21.5t18 -13t24 -6q29 0 48.5 25t23.5 63h42q-8 -58 -27.5 -97.5t-45.5 -57t-48 -24t-46 -6.5q-48 0 -81.5 34t-68.5 114q-20 -17 -46.5 -32t-59 -30.5t-42.5 -21.5q-35 -64 -128 -64q-84 0 -127 44t-43 111q0 33 16 53t39 20
q61 0 61 -49q0 -16 -11 -27t-28 -11q-21 0 -30 13q16 -75 74 -75q25 0 37 13t12 43q0 40 -8.5 72t-32.5 100t-44 138q-50 -107 -132 -137q0 -5 0.5 -15t0.5 -16q0 -126 -46.5 -201.5t-148.5 -75.5q-82 0 -134.5 54t-52.5 172q0 48 9.5 93.5t32 91t67 73t105.5 27.5zM245 88
q41 0 61 52t20 139v13q-40 9 -40 59q0 32 26 42q-18 52 -53 52q-40 0 -61 -66.5t-21 -148.5q0 -142 68 -142z" />
    <glyph glyph-name="o_s_z" unicode="os&#x7a;" horiz-adv-x="1139" 
d="M524 511l144 20q26 -101 55 -189t39.5 -127.5t10.5 -85.5q0 -69 -42.5 -102t-102.5 -33q-84 0 -127 44t-43 111q0 33 16 53t39 20q61 0 61 -49q0 -16 -11 -27t-28 -11q-21 0 -30 13q16 -75 74 -75q25 0 37 13t12 43q0 40 -8.5 72t-32.5 100t-44 138q-50 -107 -132 -137
q0 -5 0.5 -15t0.5 -16q0 -126 -46.5 -201.5t-148.5 -75.5q-82 0 -134.5 54t-52.5 172q0 48 9.5 93.5t32 91t67 73t105.5 27.5q136 0 162 -152q64 14 118 158zM1076 91q-11 1 -17.5 8.5t-6.5 17.5q0 15 12 26.5t35 11.5q27 0 41.5 -18t14.5 -44q0 -35 -27 -64t-74 -29h-276
l196 446h-74q-51 0 -51 -14q0 -3 2.5 -4t6 -2t6 -8t2.5 -21q0 -20 -13 -31t-31 -11q-22 0 -39.5 14.5t-17.5 40.5q0 33 26 61.5t70 28.5h275l-191 -423q5 0 23 -2t35.5 -3t29.5 -1q43 0 43 20zM245 88q41 0 61 52t20 139v13q-40 9 -40 59q0 32 26 42q-18 52 -53 52
q-40 0 -61 -66.5t-21 -148.5q0 -142 68 -142z" />
    <glyph glyph-name="o_x" unicode="ox" horiz-adv-x="858" 
d="M237 505q134 0 165 -152q51 8 97 100l-18 47h141l80 -203q70 97 70 143q0 9 -1 14q-4 0 -7.5 -1t-7.5 -1q-30 0 -46 17t-16 40q0 25 18.5 40t43.5 15q31 0 53.5 -23t22.5 -66q0 -92 -106 -239l23 -57q9 -22 13.5 -32t14.5 -26t22 -23t27 -7q29 0 48.5 25t23.5 63h42
q-8 -58 -27.5 -97.5t-45.5 -57t-48 -24t-46 -6.5q-53 0 -89 41.5t-76 143.5l-3 7q-68 -51 -68 -100q0 -8 1 -12q5 1 13 1q25 0 39 -17.5t14 -45.5q0 -41 -46 -41q-41 0 -62 25t-21 64q0 45 31.5 96t76.5 85l-62 156q-44 -71 -111 -95q2 -32 2 -50q0 -117 -49.5 -187.5
t-130.5 -70.5q-92 0 -147 54.5t-55 174.5q0 47 10 92.5t32 90t65 72t100 27.5zM252 88q32 0 53 53.5t21 132.5v18q-40 9 -40 59q0 32 27 42q-17 52 -55 52q-37 0 -59 -68t-22 -145q0 -87 20 -115.5t55 -28.5z" />
    <glyph glyph-name="oacute_s" unicode="&#xf3;s" horiz-adv-x="774" 
d="M524 511l144 20q26 -101 54.5 -188t39.5 -126.5t11 -84.5q33 20 60 47h42q-42 -62 -115 -114q-33 -71 -132 -71q-84 0 -127 44t-43 111q0 33 16 53t39 20q61 0 61 -49q0 -16 -11 -27t-28 -11q-21 0 -30 13q16 -75 74 -75q25 0 37 13t12 43q0 40 -8.5 72t-32.5 100
t-44 138q-50 -107 -132 -137q0 -5 0.5 -15t0.5 -16q0 -126 -46.5 -201.5t-148.5 -75.5q-82 0 -134.5 54t-52.5 172q0 48 9.5 93.5t32 91t67 73t105.5 27.5q136 0 162 -152q64 14 118 158zM245 88q41 0 61 52t20 139v13q-40 9 -40 59q0 32 26 42q-18 52 -53 52
q-40 0 -61 -66.5t-21 -148.5q0 -142 68 -142zM188 561l51 189h105l-81 -189h-75z" />
    <glyph glyph-name="oacute_s_x" unicode="&#xf3;sx" horiz-adv-x="1146" 
d="M524 511l144 20q26 -101 55 -189t39.5 -127.5t10.5 -85.5v-6q73 34 109 72l-120 305h141l82 -209q75 102 75 149q0 9 -1 14q-4 0 -7.5 -1t-7.5 -1q-30 0 -46 17t-16 40q0 25 18.5 40t43.5 15q31 0 53.5 -23t22.5 -68q0 -94 -110 -243l20 -51q7 -17 10 -25t10.5 -22.5
t14.5 -21.5t18 -13t24 -6q29 0 48.5 25t23.5 63h42q-8 -58 -27.5 -97.5t-45.5 -57t-48 -24t-46 -6.5q-48 0 -81.5 34t-68.5 114q-20 -17 -46.5 -32t-59 -30.5t-42.5 -21.5q-35 -64 -128 -64q-84 0 -127 44t-43 111q0 33 16 53t39 20q61 0 61 -49q0 -16 -11 -27t-28 -11
q-21 0 -30 13q16 -75 74 -75q25 0 37 13t12 43q0 40 -8.5 72t-32.5 100t-44 138q-50 -107 -132 -137q0 -5 0.5 -15t0.5 -16q0 -126 -46.5 -201.5t-148.5 -75.5q-82 0 -134.5 54t-52.5 172q0 48 9.5 93.5t32 91t67 73t105.5 27.5q136 0 162 -152q64 14 118 158zM245 88
q41 0 61 52t20 139v13q-40 9 -40 59q0 32 26 42q-18 52 -53 52q-40 0 -61 -66.5t-21 -148.5q0 -142 68 -142zM225 561l51 189h105l-81 -189h-75z" />
    <glyph glyph-name="oacute_s_z" unicode="&#xf3;s&#x7a;" horiz-adv-x="1140" 
d="M237 505q134 0 165 -152q68 10 123 158l144 20q26 -101 55 -189t39.5 -127.5t10.5 -85.5q0 -69 -42.5 -102t-102.5 -33q-84 0 -127 44t-43 111q0 33 16 53t39 20q61 0 61 -49q0 -16 -11 -27t-28 -11q-21 0 -30 13q16 -75 74 -75q25 0 37 13t12 43q0 40 -8.5 72t-32.5 100
t-44 138q-50 -108 -134 -137q2 -32 2 -50q0 -117 -49.5 -187.5t-130.5 -70.5q-92 0 -147 54.5t-55 174.5q0 47 10 92.5t32 90t65 72t100 27.5zM1077 91q-11 1 -17.5 8.5t-6.5 17.5q0 15 12 26.5t35 11.5q27 0 41.5 -18t14.5 -44q0 -35 -27 -64t-74 -29h-276l196 446h-74
q-51 0 -51 -14q0 -3 2.5 -4t6 -2t6 -8t2.5 -21q0 -20 -13 -31t-31 -11q-22 0 -39.5 14.5t-17.5 40.5q0 33 26 61.5t70 28.5h275l-191 -423q5 0 23 -2t35.5 -3t29.5 -1q43 0 43 20zM252 88q32 0 53 53.5t21 132.5v18q-39 9 -39 59q0 32 26 42q-17 52 -55 52q-37 0 -59 -68
t-22 -145q0 -87 20 -115.5t55 -28.5zM205 561l51 189h105l-81 -189h-75z" />
    <glyph glyph-name="oacute_x" unicode="&#xf3;x" horiz-adv-x="858" 
d="M237 505q134 0 165 -152q51 8 97 100l-18 47h141l80 -203q70 97 70 143q0 9 -1 14q-4 0 -7.5 -1t-7.5 -1q-30 0 -46 17t-16 40q0 25 18.5 40t43.5 15q31 0 53.5 -23t22.5 -66q0 -92 -106 -239l23 -57q9 -22 13.5 -32t14.5 -26t22 -23t27 -7q29 0 48.5 25t23.5 63h42
q-8 -58 -27.5 -97.5t-45.5 -57t-48 -24t-46 -6.5q-53 0 -89 41.5t-76 143.5l-3 7q-68 -51 -68 -100q0 -8 1 -12q5 1 13 1q25 0 39 -17.5t14 -45.5q0 -41 -46 -41q-41 0 -62 25t-21 64q0 45 31.5 96t76.5 85l-62 156q-44 -71 -111 -95q2 -32 2 -50q0 -117 -49.5 -187.5
t-130.5 -70.5q-92 0 -147 54.5t-55 174.5q0 47 10 92.5t32 90t65 72t100 27.5zM252 88q32 0 53 53.5t21 132.5v18q-40 9 -40 59q0 32 27 42q-17 52 -55 52q-37 0 -59 -68t-22 -145q0 -87 20 -115.5t55 -28.5zM194 561l51 189h105l-81 -189h-75z" />
    <glyph glyph-name="r_x" unicode="rx" horiz-adv-x="789" 
d="M401 500h141l89 -205q72 99 72 145q0 9 -1 14q-4 0 -7.5 -1t-7.5 -1q-30 0 -46 17t-16 40q0 25 18.5 40t43.5 15q31 0 53.5 -23t22.5 -66q0 -92 -106 -239l25 -57q12 -28 19.5 -42.5t23.5 -30t35 -15.5q29 0 48.5 25t22.5 63h42q-25 -185 -163 -185q-53 0 -88.5 41
t-80.5 144l-3 6q-67 -50 -67 -99q0 -8 1 -12q4 1 12 1q25 0 39.5 -17.5t14.5 -45.5q0 -41 -47 -41q-41 0 -62 25t-21 64q0 44 31 94t75 85zM47 500h144v-62q56 67 108 67q36 0 61 -28t25 -61q0 -24 -14.5 -41.5t-43.5 -17.5q-20 0 -31.5 10t-14.5 21.5t-10.5 21.5t-19.5 10
q-23 0 -60 -40v-380h-144v500z" />
    <glyph glyph-name="r_z" unicode="r&#x7a;" horiz-adv-x="659" 
d="M255 418q-21 0 -34 -9.5t-30 -30.5v-378h-144v500h144v-62q20 20 31.5 30.5t33 21t43.5 10.5h334l-155 -423q20 0 50 -6t43 -6q27 0 27 26q-11 1 -17.5 8.5t-6.5 17.5q0 15 12 26.5t35 11.5q27 0 41.5 -18t14.5 -44q0 -35 -27 -64t-74 -29h-265l160 443h-93q6 -15 6 -31
q0 -27 -14.5 -43.5t-42.5 -16.5q-19 0 -30.5 10.5t-15 22.5t-10 22.5t-16.5 10.5z" />
    <glyph glyph-name="s_x" unicode="sx" horiz-adv-x="741" 
d="M137 511l144 20q16 -61 34.5 -129t26 -96t15 -62t9.5 -57t2 -52q0 -8 -1 -12q74 33 110 72l-120 305h141l82 -209q75 102 75 149q0 9 -1 14q-4 0 -7.5 -1t-7.5 -1q-30 0 -46 17t-16 40q0 25 18.5 40t43.5 15q31 0 53.5 -23t22.5 -68q0 -94 -110 -243l20 -51q7 -17 10 -25
t10.5 -22.5t14.5 -21.5t18 -13t24 -6q29 0 48.5 25t23.5 63h42q-8 -58 -27.5 -97.5t-45.5 -57t-48 -24t-46 -6.5q-48 0 -81.5 34t-68.5 115q-30 -24 -92 -56.5t-67 -35.5q-47 -57 -140 -57q-81 0 -128.5 46.5t-47.5 101.5q0 54 37 73q60 157 76 296zM140 170q0 -16 -9.5 -28
t-25.5 -12q-21 0 -30 13q15 -70 76 -70q71 0 71 70q0 21 -1 37t-7 41.5t-9.5 39.5t-16.5 60.5t-21 75.5q-11 -53 -55 -185q28 -13 28 -42z" />
    <glyph glyph-name="s_z" unicode="s&#x7a;" horiz-adv-x="744" 
d="M137 511l144 20q16 -61 34.5 -129t26 -96t15 -62t9.5 -57t2 -52q0 -72 -51.5 -106.5t-116.5 -34.5q-81 0 -128.5 46.5t-47.5 101.5q0 54 37 73q60 157 76 296zM681 91q-11 1 -17.5 8.5t-6.5 17.5q0 15 12 26.5t35 11.5q27 0 41.5 -18t14.5 -44q0 -35 -27 -64t-74 -29
h-276l196 446h-74q-51 0 -51 -14q0 -3 2.5 -4t6 -2t6 -8t2.5 -21q0 -20 -13 -31t-31 -11q-22 0 -39.5 14.5t-17.5 40.5q0 33 26 61.5t70 28.5h275l-191 -423q5 0 23 -2t35.5 -3t29.5 -1q43 0 43 20zM140 170q0 -16 -9.5 -28t-25.5 -12q-21 0 -30 13q15 -70 76 -70
q71 0 71 70q0 21 -1 37t-7 41.5t-9.5 39.5t-16.5 60.5t-21 75.5q-11 -53 -55 -185q28 -13 28 -42z" />
    <glyph glyph-name="t_x" unicode="tx" horiz-adv-x="634" 
d="M47 179v281h-32v40h32v138l144 20v-158h210l84 -213q77 106 77 153q0 9 -1 14q-4 0 -7.5 -1t-7.5 -1q-30 0 -46 17t-16 40q0 25 18.5 40t43.5 15q31 0 53.5 -23t22.5 -68q0 -93 -113 -247l19 -47q11 -27 17.5 -41.5t23.5 -30.5t37 -16q29 0 48.5 25t22.5 63h42
q-8 -58 -27 -97.5t-45 -57t-48 -24t-46 -6.5q-47 0 -80 31.5t-66 105.5q-43 -59 -105 -98t-127 -39q-60 0 -94 45.5t-34 139.5zM191 460v-300q0 -68 55 -68q37 0 76 25.5t63 66.5l-109 276h-85z" />
    <glyph glyph-name="t_z" unicode="t&#x7a;" horiz-adv-x="700" 
d="M637 91q-11 1 -17.5 8.5t-6.5 17.5q0 15 12 26.5t35 11.5q27 0 41.5 -18t14.5 -44q0 -35 -27 -64t-74 -29h-276l196 446h-74q-51 0 -51 -14q0 -3 2.5 -4t6 -2t6 -8t2.5 -21q0 -20 -13 -31t-31 -11q-22 0 -39.5 14.5t-17.5 40.5q0 33 26 61.5t70 28.5h275l-191 -423
q5 0 23 -2t35.5 -3t29.5 -1q43 0 43 20zM47 638l144 20v-158h60v-40h-60v-300q0 -41 11 -55t41 -14q18 0 28 8q1 -7 1 -21q0 -40 -24 -62t-62 -22q-139 0 -139 155v311h-32v40h32v138z" />
    <glyph glyph-name="u_v" unicode="uv" horiz-adv-x="916" 
d="M47 500h144v-340q0 -69 41 -69q26 0 42.5 24.5t19.5 63.5v321h143v-500h-122v91q-39 -97 -134 -97q-134 0 -134 155v351zM813 520q42 0 68 -48t26 -146q0 -58 -10 -112.5t-32 -106t-64 -82.5t-99 -31q-68 0 -110 43.5t-42 122.5v286l-28 13v41h174v-340q0 -14 0.5 -21
t2.5 -18t6 -16.5t12 -9.5t20 -4q37 0 63.5 37.5t37 89t10.5 110.5q0 40 -6 75l-3 16q-12 -4 -22 -4q-23 0 -38.5 20.5t-15.5 40.5q0 17 13.5 30.5t36.5 13.5z" />
    <glyph glyph-name="u_x" unicode="ux" horiz-adv-x="898" 
d="M47 500h144v-340q0 -69 41 -69q26 0 42.5 24.5t19.5 63.5v321h144v-346q0 -63 55 -63q38 0 77 27t62 67l-124 315h141l84 -214q79 108 79 154q0 9 -1 14q-4 0 -7.5 -1t-7.5 -1q-30 0 -46 17t-16 40q0 25 18.5 40t43.5 15q31 0 53.5 -23t22.5 -68q0 -95 -114 -248l18 -46
q11 -27 17.5 -41.5t23.5 -30.5t37 -16q29 0 48.5 25t22.5 63h42q-8 -58 -27 -97.5t-45 -57t-48 -24t-46 -6.5q-46 0 -79 31t-65 102q-77 -133 -207 -133q-43 0 -81 26t-54 70q-38 -96 -134 -96q-134 0 -134 155v351z" />
    <glyph glyph-name="y_p" unicode="yp" horiz-adv-x="953" 
d="M533 537h144v-75q41 43 108 43q75 0 121.5 -59.5t46.5 -195.5q0 -46 -9 -88.5t-28.5 -81.5t-57 -62.5t-88.5 -23.5t-93 3v-211l-144 -36v252q-51 -2 -95 -11v-71q0 -170 -144 -170q-56 0 -95.5 31t-39.5 85q0 86 135 135v49q-38 -56 -108 -56q-60 0 -99.5 46t-39.5 139
v321h144v-340q0 -69 42 -69q54 0 61 88v321h144v-459q41 11 95 19v477zM721 76q34 0 56 31.5t29.5 70.5t7.5 84q0 171 -79 171q-17 0 -33.5 -13t-24.5 -37v-308q14 1 44 1zM213 -130q0 -16 12 -29t30 -13q17 0 28 23.5t11 65.5v29q-81 -32 -81 -76z" />
    <glyph glyph-name="y_x" unicode="yx" horiz-adv-x="872" 
d="M294 500h144v-462q53 20 96.5 54.5t87.5 99.5l-121 308h141l85 -216q63 90 63 147q0 4 -5 24q-12 -2 -17 -2q-31 0 -45.5 20.5t-14.5 43.5q0 18 13 28.5t34 10.5q40 0 65 -34t25 -80q0 -81 -96 -214l20 -49q11 -27 17.5 -41.5t23.5 -30.5t37 -16q29 0 48.5 25t22.5 63h42
q-25 -184 -167 -184q-46 0 -79 31t-66 104q-63 -88 -210 -136v-74q0 -170 -144 -170q-56 0 -95.5 31t-39.5 85q0 73 135 126v58q-37 -55 -109 -55q-60 0 -99 45.5t-39 138.5v321h144v-340q0 -69 42 -69q54 0 61 88v321zM213 -130q0 -16 12 -29t30 -13q17 0 28 23.5t11 65.5
v29q-81 -32 -81 -76z" />
    <glyph glyph-name="y_z" unicode="y&#x7a;" horiz-adv-x="888" 
d="M294 500h144v-580q0 -51 -12.5 -86t-34 -52.5t-44 -24.5t-48.5 -7q-59 0 -99 31t-40 82q0 88 134 133v55q-39 -57 -113 -57q-134 0 -134 155v351h144v-340q0 -69 41 -69q26 0 42.5 24.5t19.5 63.5v321zM825 91q-11 1 -17.5 8.5t-6.5 17.5q0 15 12 26.5t35 11.5
q27 0 41.5 -18t14.5 -44q0 -35 -27 -64t-74 -29h-276l196 446h-74q-51 0 -51 -14q0 -3 2.5 -4t6 -2t6 -8t2.5 -21q0 -20 -13 -31t-31 -11q-22 0 -39.5 14.5t-17.5 40.5q0 33 26 61.5t70 28.5h275l-191 -423q5 0 23 -2t35.5 -3t29.5 -1q43 0 43 20zM213 -128q0 -18 13 -31
t28 -13q40 0 40 89v29q-81 -34 -81 -74z" />
    <glyph glyph-name=".notdef" horiz-adv-x="385" 
 />
    <glyph glyph-name=".null" horiz-adv-x="0" 
 />
    <glyph glyph-name="nonmarkingreturn" horiz-adv-x="333" 
 />
    <glyph glyph-name="space" unicode=" " horiz-adv-x="215" 
 />
    <glyph glyph-name="exclam" unicode="!" horiz-adv-x="266" 
d="M176 231h-85l-29 469h144zM53 79q0 33 23 56.5t56 23.5t56.5 -23.5t23.5 -56.5t-23.5 -56t-56.5 -23t-56 23t-23 56z" />
    <glyph glyph-name="quotedbl" unicode="&#x22;" horiz-adv-x="349" 
d="M41 561l21 189h105l-51 -189h-75zM198 561l21 189h105l-51 -189h-75z" />
    <glyph glyph-name="numbersign" unicode="#" horiz-adv-x="557" 
d="M336 -27v138h-120v-138h-57v138h-119v102h119v113h-119v102h119v290h57v-290h120v290h57v-290h125v-102h-125v-113h125v-102h-125v-138h-57zM216 326v-113h120v113h-120z" />
    <glyph glyph-name="dollar" unicode="$" horiz-adv-x="385" 
d="M335 506q0 -56 -37 -56q-21 0 -43 23q16 9 16 39q0 25 -19.5 44t-53.5 20v-157q9 -6 33.5 -20.5t37 -22.5t32 -24.5t29 -31.5t17.5 -37.5t8 -48.5q0 -60 -42 -93t-115 -34v-134h-36v136q-57 7 -92 37.5t-35 88.5q0 33 16.5 53t42.5 20q20 0 32.5 -7.5t14.5 -17.5
q-30 -6 -30 -51q0 -56 51 -81v198q-5 3 -24.5 16.5t-25.5 18t-21.5 16.5t-21.5 20.5t-14.5 21t-11.5 25.5t-3 28q0 43 36.5 75.5t85.5 39.5v108h36v-106q137 -5 137 -106zM254 215q0 61 -56 108v-179q56 3 56 71zM131 515q0 -39 31 -68v121q-31 -18 -31 -53z" />
    <glyph glyph-name="percent" unicode="%" horiz-adv-x="636" 
d="M518 750l-315 -750h-72l315 750h72zM150 702q111 0 111 -158q0 -65 -27.5 -117.5t-80.5 -52.5q-62 0 -94.5 38.5t-32.5 128.5q0 70 32.5 115.5t91.5 45.5zM98 549q0 -138 50 -138q26 0 40 34.5t14 86.5q0 50 -8 82t-18 42.5t-22 10.5q-20 0 -38 -32t-18 -86zM500 328
q111 0 111 -158q0 -65 -27.5 -117.5t-80.5 -52.5q-62 0 -94.5 38.5t-32.5 128.5q0 70 32.5 115.5t91.5 45.5zM448 175q0 -138 50 -138q26 0 40 34.5t14 86.5q0 50 -8 82t-18 42.5t-22 10.5q-20 0 -38 -32t-18 -86z" />
    <glyph glyph-name="ampersand" unicode="&#x26;" horiz-adv-x="670" 
d="M656 413h6q2 -10 2 -16q0 -41 -36.5 -78t-90.5 -45q-2 -125 -76.5 -208.5t-197.5 -83.5q-108 0 -167.5 65t-59.5 156q0 73 36 135.5t100 78.5q-91 57 -91 152q0 73 49.5 128t129.5 55q85 0 126.5 -39.5t41.5 -94.5q0 -37 -15 -64t-39 -27q-25 0 -46 23q26 14 26 69
q0 77 -72 77q-34 0 -55 -34t-21 -80q0 -55 34 -101.5t99 -62.5q-61 -14 -96.5 -74.5t-35.5 -128.5q0 -59 30.5 -98t90.5 -39q82 0 123.5 47t50.5 147q-13 0 -40 3t-40 3q-66 0 -84 -45l-7 1q2 63 45 102t118 39q14 0 39.5 -2.5t37.5 -2.5q30 0 54 11t31 32z" />
    <glyph glyph-name="quotesingle" unicode="'" horiz-adv-x="192" 
d="M41 561l21 189h105l-51 -189h-75z" />
    <glyph glyph-name="parenleft" unicode="(" horiz-adv-x="279" 
d="M245 750l22 -40q-70 -39 -111.5 -173.5t-41.5 -290.5q0 -291 157 -467l-26 -29q-102 91 -154.5 221t-52.5 279q0 164 54.5 306t152.5 194z" />
    <glyph glyph-name="parenright" unicode=")" horiz-adv-x="280" 
d="M34 -250l-21 40q70 39 111 173t41 291q0 291 -157 467l27 29q102 -92 154.5 -221.5t52.5 -279.5q0 -164 -55 -305.5t-153 -193.5z" />
    <glyph glyph-name="asterisk" unicode="*" horiz-adv-x="400" 
d="M166 752h65v-134l102 61l35 -52l-108 -65l109 -61l-25 -52l-113 63v-136h-65v130l-96 -57l-35 52l105 63l-112 63l25 52l113 -64v137z" />
    <glyph glyph-name="plus" unicode="+" horiz-adv-x="443" 
d="M278 439v-122h128v-112h-129v-123h-113v123h-127v112h129v122h112z" />
    <glyph glyph-name="comma" unicode="," horiz-adv-x="234" 
d="M39 89q0 28 21.5 49t49.5 21q38 0 60 -29t22 -74t-24.5 -96.5t-66.5 -85.5q-14 8 -14 24q0 14 13.5 41t13.5 41t-19 27.5t-37.5 33t-18.5 48.5z" />
    <glyph glyph-name="hyphen" unicode="-" horiz-adv-x="319" 
d="M260 301v-79h-201v79h201z" />
    <glyph glyph-name="period" unicode="." horiz-adv-x="237" 
d="M39 79q0 33 23 56.5t56 23.5t56.5 -23.5t23.5 -56.5t-23.5 -56t-56.5 -23t-56 23t-23 56z" />
    <glyph glyph-name="slash" unicode="/" horiz-adv-x="526" 
d="M512 750l-425 -1000h-72l425 1000h72z" />
    <glyph glyph-name="zero" unicode="0" horiz-adv-x="597" 
d="M309 750q55 0 98 -21t69.5 -56t44 -83t24 -97.5t6.5 -104.5q0 -107 -24 -192.5t-83 -143.5t-148 -58q-116 0 -183.5 95.5t-67.5 274.5q0 180 69.5 283t194.5 103zM200 364q0 -138 32.5 -207.5t78.5 -69.5q49 0 77.5 82.5t28.5 227.5q0 78 -8.5 135t-22.5 88t-30.5 45.5
t-35.5 14.5q-50 0 -85 -86t-35 -230z" />
    <glyph glyph-name="one" unicode="1" horiz-adv-x="333" 
d="M256 748v-748h-144v598h-96v53q97 0 240 97z" />
    <glyph glyph-name="two" unicode="2" horiz-adv-x="510" 
d="M147 122q25 0 90 -9t99 -9q52 0 76.5 15.5t47.5 53.5q1 -2 4.5 -11t6.5 -18t5.5 -25.5t2.5 -35.5q0 -50 -22.5 -72t-82.5 -22q-45 0 -122 18t-127 18q-10 0 -23.5 -5t-28.5 -13t-21 -10l-3 7q-3 6 -5 12t-4 18.5t-2 26.5q0 52 27.5 103.5t66 95t77.5 88t66.5 101.5
t27.5 117q0 123 -94 123q-60 0 -60 -52q0 -27 14 -55t41 -36q-29 -34 -69 -34q-37 0 -65 29.5t-28 78.5q0 57 42.5 93t136.5 36q118 0 173 -56.5t55 -140.5q0 -60 -27.5 -113.5t-69.5 -93.5t-85 -75.5t-80.5 -74t-50.5 -73.5h11z" />
    <glyph glyph-name="three" unicode="3" horiz-adv-x="535" 
d="M218 257q-72 0 -72 -82q0 -55 28.5 -78t65.5 -23q55 0 82.5 45.5t27.5 106.5q0 75 -42 129t-124 63q68 19 108 67.5t40 102.5q0 42 -25 71.5t-69 29.5q-31 0 -48.5 -15t-17.5 -43q0 -25 13.5 -51.5t37.5 -33.5q-30 -34 -70 -34q-37 0 -63.5 28.5t-26.5 73.5q0 61 52 98
t137 37q95 0 149 -45t54 -114q0 -48 -28 -95.5t-81 -77.5q83 -24 121.5 -67t38.5 -110q0 -96 -65.5 -171t-176.5 -75q-23 0 -47.5 3t-59.5 15t-61 31t-45 56t-19 85q0 58 26 91t75 33q67 0 85 -51z" />
    <glyph glyph-name="four" unicode="4" horiz-adv-x="513" 
d="M269 270h-252q4 33 44 166t40 203q0 67 -18 111q59 0 89 -23.5t30 -91.5q0 -40 -15 -88.5t-39.5 -107.5t-33.5 -90h155v381l145 20v-401h63v-79h-63v-270h-145v270z" />
    <glyph glyph-name="five" unicode="5" horiz-adv-x="518" 
d="M425 749q13 -43 13 -62q0 -87 -95 -87q-30 0 -98 12t-74 13l-30 -181q58 31 121 31q104 0 164 -69.5t60 -171.5q0 -45 -13.5 -86t-40.5 -76.5t-75.5 -56.5t-111.5 -21q-38 0 -71 6.5t-66 23t-52.5 50.5t-19.5 83q0 63 30 93.5t73 30.5q63 0 83 -51q-39 -5 -57.5 -20.5
t-18.5 -47.5q0 -43 29.5 -68.5t67.5 -25.5q52 0 77 49t25 111q0 80 -40.5 121t-103.5 41q-74 0 -146 -52l60 396q26 -3 57 -7.5t52.5 -7t45.5 -2.5q80 0 155 32z" />
    <glyph glyph-name="six" unicode="6" horiz-adv-x="552" 
d="M231 329q-20 19 -20 42q0 36 35.5 64t87.5 28q50 0 88 -19.5t58.5 -51t30.5 -66.5t10 -72q0 -110 -64 -185t-177 -75q-101 0 -168.5 75.5t-67.5 242.5q0 118 28 214t93.5 160t159.5 64q67 0 104.5 -29.5t37.5 -73.5q0 -25 -12 -43.5t-33 -18.5q-15 0 -34 10q12 14 12 35
q0 25 -20.5 42.5t-48.5 17.5q-46 0 -82 -55.5t-53.5 -139.5t-17.5 -178q0 -232 116 -232q56 0 84.5 50.5t28.5 119.5q0 65 -24.5 98t-67.5 33q-57 0 -84 -57z" />
    <glyph glyph-name="seven" unicode="7" horiz-adv-x="473" 
d="M472 733q0 -24 -22.5 -68.5t-55 -98.5t-64.5 -114.5t-54.5 -132.5t-22.5 -136q0 -36 5.5 -65t9.5 -41t17.5 -37.5t16.5 -32.5q-31 -16 -60 -16q-66 0 -100.5 49t-34.5 120q0 49 24 106t58.5 107.5t69.5 97t59 86.5t24 63q0 10 -55 17.5t-90 7.5q-105 0 -105 -77
q-33 1 -55 34t-22 79q0 40 23.5 54t71.5 14q40 0 139 -12.5t141 -12.5q40 0 82 9z" />
    <glyph glyph-name="eight" unicode="8" horiz-adv-x="551" 
d="M277 78q43 0 73 44t30 97q0 57 -35.5 98t-79.5 61q-43 -20 -66.5 -66.5t-23.5 -94.5q0 -56 30 -97.5t72 -41.5zM281 -6q-106 0 -175 68.5t-69 159.5q0 63 36 118t107 77q-112 59 -112 160q0 70 53 121.5t147 51.5q92 0 150.5 -50t58.5 -118q0 -47 -28.5 -92t-81.5 -73
q72 -22 112.5 -74.5t40.5 -118.5q0 -89 -65.5 -159.5t-173.5 -70.5zM273 451q36 27 57 69t21 81t-20.5 68.5t-55.5 29.5t-57 -30.5t-22 -74.5q0 -87 77 -143z" />
    <glyph glyph-name="nine" unicode="9" horiz-adv-x="551" 
d="M320 445q20 -19 20 -42q0 -36 -35.5 -64t-87.5 -28q-50 0 -88 19.5t-58.5 51t-30.5 66.5t-10 72q0 98 64 164t177 66q101 0 168.5 -75.5t67.5 -242.5q0 -118 -28 -214t-93.5 -160t-159.5 -64q-66 0 -104 39t-38 85q0 25 12 43.5t33 18.5q15 0 34 -10q-12 -14 -12 -35
q0 -25 20.5 -42.5t48.5 -17.5q47 0 82.5 50.5t53 129.5t17.5 172q0 134 -35 194.5t-81 60.5q-38 0 -65 -27t-37.5 -62.5t-10.5 -73.5q0 -65 24.5 -98t67.5 -33q57 0 84 57z" />
    <glyph glyph-name="colon" unicode=":" horiz-adv-x="271" 
d="M56 135q0 33 23 56.5t56 23.5t56.5 -23.5t23.5 -56.5t-23.5 -56t-56.5 -23t-56 23t-23 56zM56 375q0 33 23 56.5t56 23.5t56.5 -23.5t23.5 -56.5t-23.5 -56t-56.5 -23t-56 23t-23 56z" />
    <glyph glyph-name="semicolon" unicode=";" horiz-adv-x="272" 
d="M54 375q0 33 23 56.5t56 23.5t56.5 -23.5t23.5 -56.5t-23.5 -56t-56.5 -23t-56 23t-23 56zM62 89q0 28 21.5 49t49.5 21q38 0 60 -29t22 -74t-24.5 -96.5t-66.5 -85.5q-14 8 -14 24q0 14 13.5 41t13.5 41t-18.5 27.5t-37.5 33t-19 48.5z" />
    <glyph glyph-name="less" unicode="&#x3c;" horiz-adv-x="358" 
d="M300 429l-30 -55l-215 -120l214 -96v-57l-244 137v41z" />
    <glyph glyph-name="equal" unicode="=" horiz-adv-x="493" 
d="M430 428v-112h-367v112h367zM430 213v-112h-367v112h367z" />
    <glyph glyph-name="greater" unicode="&#x3e;" horiz-adv-x="362" 
d="M59 374l-3 55l278 -150v-54l-277 -124l2 57l219 96z" />
    <glyph glyph-name="question" unicode="?" horiz-adv-x="420" 
d="M395 548q0 -45 -16 -81.5t-40 -61.5t-48.5 -48.5t-44 -55t-24.5 -69.5h-66q-3 16 -3 30q0 36 19 72.5t42 63t42 66.5t19 81q0 101 -74 101q-34 0 -53 -22.5t-19 -53.5q0 -24 12.5 -44.5t34.5 -28.5q-16 -42 -64 -42q-37 0 -62.5 28.5t-25.5 77.5q0 56 44 97.5t144 41.5
q47 0 82 -11t53.5 -26.5t30 -37.5t14.5 -39.5t3 -37.5zM106 79q0 33 23 56.5t56 23.5t56.5 -23.5t23.5 -56.5t-23.5 -56t-56.5 -23t-56 23t-23 56z" />
    <glyph glyph-name="at" unicode="@" horiz-adv-x="564" 
d="M238 -38q-38 0 -72 10.5t-65 32.5t-49 63t-18 96q0 163 100.5 278t240.5 115q27 0 51 -5.5t50 -20.5t41.5 -48.5t15.5 -82.5q0 -98 -53 -181t-117 -83q-33 0 -45 26q-28 -42 -63 -42q-59 0 -59 88q0 46 15 96.5t46.5 89t69.5 38.5q26 0 39 -17l4 15l55 -6l-45 -192
q-4 -16 -4 -23q0 -19 12 -19q23 0 55 69.5t32 131.5q0 48 -24 80.5t-79 32.5q-51 0 -96.5 -30.5t-76 -78t-48 -103.5t-17.5 -108q0 -141 133 -141q96 0 152 71q23 -10 23 -43q0 -48 -56 -78.5t-148 -30.5zM315 216l43 167q-8 10 -21 10q-32 0 -57.5 -61.5t-25.5 -107.5
q0 -45 21 -45q13 0 37 19q0 9 3 18z" />
    <glyph glyph-name="A" unicode="A" horiz-adv-x="603" 
d="M557 0h-145v363q-71 29 -137 35q-48 -189 -48 -359q0 -112 36 -153q-27 0 -43.5 1.5t-42 10.5t-40 26t-26 50.5t-11.5 81.5q0 148 72 344q-103 -6 -111 -53q5 0 13 -13t8 -24q0 -15 -14 -24t-35 -9q-31 0 -53.5 19t-22.5 52q0 48 49.5 79t128.5 31q25 0 59 -3
q55 130 128 212.5t155 82.5q42 0 80 -14v-736zM412 407v271q-72 -46 -125 -237q69 -13 125 -34z" />
    <glyph glyph-name="B" unicode="B" horiz-adv-x="679" 
d="M213 636l144 20v-222h7q49 0 80.5 45t31.5 102q0 51 -37 87t-111 36q-88 0 -151.5 -51.5t-63.5 -144.5q0 -28 4.5 -50.5t9.5 -32t12.5 -20t8.5 -12.5q-130 0 -130 121q0 95 93.5 165.5t226.5 70.5q113 0 177 -52.5t64 -123.5q0 -90 -74 -141q82 -11 123 -68t41 -136
q0 -32 -4.5 -64t-16.5 -65.5t-30 -59t-48 -41.5t-67 -16q-123 0 -123 81q0 21 9 51q43 -36 75 -36q35 0 52 41.5t17 99.5q0 28 -5 53.5t-17.5 52.5t-40 43.5t-67.5 16.5q-19 0 -46 -3v-383h-144v636z" />
    <glyph glyph-name="C" unicode="C" 
d="M555 180l25 -10q-21 -88 -92.5 -137t-168.5 -49q-130 0 -201 93t-71 273q0 58 7 111.5t26 107t47.5 93t75.5 64t106 24.5q81 0 136.5 -41t55.5 -117q0 -68 -54 -68q-35 0 -63 26q12 7 20.5 28.5t8.5 43.5q0 33 -19.5 57t-50.5 24q-63 0 -98 -100t-35 -237
q0 -291 172 -291q56 0 102 28.5t71 76.5z" />
    <glyph glyph-name="D" unicode="D" horiz-adv-x="707" 
d="M213 636l145 20v-562q32 -19 58 -19q60 0 90.5 99.5t30.5 239.5q0 143 -44 216.5t-162 73.5q-100 0 -158.5 -52.5t-58.5 -148.5q0 -21 3 -39t8 -30t9.5 -20t9 -14t5.5 -7q-131 0 -131 118q0 101 92 170t235 69q88 0 154 -28.5t105 -79.5t58 -115.5t19 -141.5
q0 -93 -24 -182t-70 -150.5t-103 -61.5t-126 48v-39h-145v636z" />
    <glyph glyph-name="E" unicode="E" horiz-adv-x="447" 
d="M496 180l25 -10q-20 -88 -91 -138t-163 -50q-107 0 -166.5 65t-59.5 157q0 72 36 134.5t100 78.5q-91 57 -91 151q0 74 54 129t146 55q64 0 104.5 -30t40.5 -94q0 -37 -13.5 -62t-38.5 -25t-51 25q14 4 22.5 24.5t8.5 42.5q0 34 -19.5 47t-44.5 13q-42 0 -63 -31t-21 -78
q0 -58 34 -103.5t99 -62.5q-61 -14 -96.5 -74.5t-35.5 -128.5q0 -59 30.5 -98t89.5 -39q52 0 100.5 28t63.5 74z" />
    <glyph glyph-name="F" unicode="F" horiz-adv-x="558" 
d="M356 450h146v-74h-146v-376h-146v668q-48 -3 -72 -33.5t-24 -104.5q0 -93 41 -137q-68 0 -101 32t-33 100q0 101 69.5 163t208.5 62q34 0 91 -6t90 -6q54 0 89 12q-1 -72 -23 -96t-63 -24q-37 0 -127 18v-198z" />
    <glyph glyph-name="G" unicode="G" horiz-adv-x="593" 
d="M439 419l118 -1v-416q0 -40 -10 -75t-32 -66.5t-63.5 -49.5t-97.5 -18q-88 0 -131 41t-43 101q0 52 30 92.5t92 40.5q87 0 87 -102q-20 21 -50 21q-36 0 -52.5 -17.5t-16.5 -43.5q0 -33 21.5 -58t58.5 -25q35 0 55.5 25.5t20.5 77.5v248q-48 -85 -151 -85
q-105 0 -173.5 84t-68.5 227q0 146 75 238t212 92q89 0 154 -39.5t65 -118.5q0 -68 -55 -68q-46 0 -74 26q13 4 20.5 24.5t7.5 39.5q0 11 -3 23.5t-11 27t-26 23.5t-43 9q-77 0 -122.5 -79.5t-45.5 -192.5q0 -109 41.5 -169t94.5 -60q50 0 81 57.5t35 165.5z" />
    <glyph glyph-name="H" unicode="H" horiz-adv-x="694" 
d="M357 748v-298h147v298h144v-748h-144v376h-147v-376h-144v678q-100 -48 -100 -168q0 -29 4.5 -51.5t9.5 -32t12.5 -20t8.5 -13.5q-130 0 -130 121q0 94 91 165t206 71q16 0 42 -2z" />
    <glyph glyph-name="I" unicode="I" horiz-adv-x="403" 
d="M357 748v-748h-144v678q-100 -48 -100 -168q0 -28 4.5 -51t9.5 -32.5t12.5 -21t8.5 -12.5q-130 0 -130 121q0 94 91 165t206 71q16 0 42 -2z" />
    <glyph glyph-name="J" unicode="J" horiz-adv-x="434" 
d="M348 750h40v-720q0 -120 -48 -178.5t-158 -58.5q-91 0 -138 37.5t-47 105.5q0 22 5 42t17.5 42t39.5 35t65 13q85 0 85 -102q-26 21 -56 21q-66 0 -66 -58q0 -39 25.5 -62.5t64.5 -23.5q33 0 51.5 25.5t18.5 97.5v714q-102 -47 -102 -175q0 -27 5 -49t10.5 -32.5
t12.5 -20t7 -10.5q-62 0 -96 29t-34 87q0 99 90.5 170t207.5 71z" />
    <glyph glyph-name="K" unicode="K" horiz-adv-x="649" 
d="M357 748v-320l174 317h93l-213 -320q7 0 17 0.5t18 0.5q79 0 117.5 -39t38.5 -129q0 -20 -2.5 -76t-2.5 -71q0 -90 57 -111q-57 -17 -97 -17q-49 0 -72 26.5t-23 84.5q0 17 3.5 78.5t3.5 86.5q0 122 -78 122q-16 0 -34 -4v-377h-144v678q-100 -48 -100 -173
q0 -21 3 -38.5t7.5 -29.5t8.5 -20t9.5 -15.5t6.5 -8.5q-62 0 -96 29t-34 87q0 99 90.5 170t206.5 71q16 0 42 -2z" />
    <glyph glyph-name="L" unicode="L" horiz-adv-x="453" 
d="M356 738v-719q38 -8 164 -68t199 -60q44 0 79 16q1 -6 1 -18q0 -51 -29.5 -95t-81.5 -44q-42 0 -100 35.5t-109 78t-119 78t-126 35.5q-15 0 -23 -1v692q-99 -49 -99 -172q0 -15 1.5 -28t4 -24t5.5 -19t7 -15.5t6.5 -11.5t6.5 -9t4 -6q-62 0 -96 29t-34 87q0 99 90.5 170
t206.5 71q16 0 42 -2z" />
    <glyph glyph-name="M" unicode="M" horiz-adv-x="788" 
d="M205 0h-80l107 685q-117 -46 -117 -175q0 -28 5 -50.5t10 -32.5t12.5 -21t8.5 -13q-130 0 -130 118q0 90 80.5 164.5t182.5 74.5q41 0 81 -14l89 -527l108 527h144l51 -736h-144l-31 449l-93 -449h-137l-76 449z" />
    <glyph glyph-name="N" unicode="N" horiz-adv-x="718" 
d="M581 748h91v-748h-138l-226 498v-498h-96v678q-96 -46 -96 -162q0 -24 2.5 -43t7 -32t8 -20t10 -16t8.5 -12q-67 0 -99.5 31.5t-32.5 101.5q0 90 67 157t188 67q41 0 73 -14l233 -530v542z" />
    <glyph glyph-name="O" unicode="O" horiz-adv-x="697" 
d="M391 656q-39 -26 -61 -131t-22 -213q0 -68 10 -116.5t26.5 -71t32 -32t32.5 -9.5q57 0 89 96.5t32 233.5q0 88 -14 148t-41 90t-57 41.5t-71 11.5q-101 0 -168 -58.5t-67 -160.5q0 -51 27 -92q-122 0 -122 107q0 102 102 176t246 74q68 0 121 -19t87 -52t56.5 -80
t31.5 -99t9 -113q0 -72 -13 -136.5t-41.5 -124.5t-84 -96t-131.5 -36q-107 0 -174 75t-67 242q0 59 9 117t28.5 113t57 89t86.5 34q26 0 51 -8z" />
    <glyph glyph-name="P" unicode="P" horiz-adv-x="602" 
d="M213 636l144 20v-334q58 6 93 72t35 147q0 163 -169 163q-93 0 -148 -50.5t-55 -151.5q0 -15 1 -27.5t3.5 -22.5t5 -17t6.5 -14l6 -10.5t7 -10t6 -7.5q-130 0 -130 116q0 101 91 171t219 70q122 0 197 -62t75 -163q0 -58 -25.5 -111t-81.5 -91t-131 -38h-5v-285h-144v636
z" />
    <glyph glyph-name="Q" unicode="Q" horiz-adv-x="697" 
d="M391 656q-39 -26 -61 -131t-22 -213q0 -105 24 -165q31 10 60 10q45 0 84 -26q54 90 54 282q0 88 -14 148t-41 90t-57 41.5t-71 11.5q-101 0 -168 -58.5t-67 -160.5q0 -51 27 -92q-122 0 -122 107q0 102 102 176t246 74q68 0 121 -19t87 -52t56.5 -80t31.5 -99t9 -113
q0 -101 -26 -191t-84 -144q24 -26 40.5 -40.5t43.5 -27.5t56 -13q8 0 24 2q-9 -49 -29.5 -67.5t-57.5 -18.5q-40 0 -71.5 19.5t-46.5 42t-34 59.5q-39 -14 -85 -14q-107 0 -174 75t-67 242q0 59 9 117t28.5 113t57 89t86.5 34q26 0 51 -8zM375 120q-11 0 -25 -3
q24 -34 59 -34q15 0 28 7q-27 30 -62 30z" />
    <glyph glyph-name="R" unicode="R" horiz-adv-x="654" 
d="M213 636l144 20v-231h8q50 0 79.5 44t29.5 104q0 131 -149 131q-94 0 -152.5 -52.5t-58.5 -148.5q0 -26 5 -47.5t10 -31.5t12 -20t7 -11q-130 0 -130 116q0 100 90 170.5t228 70.5q110 0 177.5 -48t67.5 -133q0 -97 -77 -150q98 -24 98 -161q0 -20 -2.5 -76t-2.5 -71
q0 -90 57 -111q-57 -17 -97 -17q-49 0 -72 26.5t-23 84.5q0 17 3.5 78.5t3.5 86.5q0 59 -17.5 90.5t-61.5 31.5q-17 0 -33 -4v-377h-144v636z" />
    <glyph glyph-name="S" unicode="S" horiz-adv-x="529" 
d="M456 624q0 -38 -17 -61.5t-47 -23.5q-28 0 -50 21q29 20 29 68q0 32 -21 51.5t-60 19.5q-85 0 -85 -92q0 -39 17.5 -70t45 -51.5t61 -40t67.5 -41.5t61.5 -48.5t45 -68.5t17.5 -95q0 -107 -65.5 -158.5t-175.5 -51.5q-104 0 -175 44.5t-71 139.5q0 67 35 108t85 41
q29 0 57.5 -15.5t41.5 -50.5q-101 0 -101 -90q0 -49 30.5 -73t81.5 -24q50 0 75 24t25 78q0 49 -21.5 88t-54.5 63t-70.5 50.5t-70.5 51t-54.5 64.5t-21.5 91q0 85 57.5 131.5t158.5 46.5q23 0 44 -3t53.5 -14t52.5 -39t20 -70z" />
    <glyph glyph-name="T" unicode="T" horiz-adv-x="672" 
d="M582 620q-50 0 -155 22v-642h-145v662h-10q-86 0 -120.5 -38t-34.5 -116q0 -25 2.5 -44t8 -31.5t9 -18.5t10.5 -14l7 -8q-66 0 -100 31t-34 103q0 102 71.5 162.5t226.5 60.5q56 0 133 -11.5t116 -11.5q70 0 118 21q3 -20 3 -35q0 -46 -25 -69t-81 -23z" />
    <glyph glyph-name="U" unicode="U" horiz-adv-x="771" 
d="M584 748h142v-538q0 -103 -71 -160t-168 -57t-168 57t-71 160v482q-65 -19 -100.5 -66t-35.5 -116q0 -23 2 -41t7 -31t8.5 -19.5t10 -15.5t7.5 -10q-130 0 -130 120q0 96 96 166.5t229 70.5q23 0 49 -5v-545q0 -52 28.5 -80.5t67.5 -28.5q40 0 68.5 28.5t28.5 80.5v548z
" />
    <glyph glyph-name="V" unicode="V" horiz-adv-x="713" 
d="M356 748l156 -615l132 612h74l-168 -745h-148l-181 683q-52 -21 -80.5 -66t-28.5 -107q0 -28 4.5 -50.5t9.5 -32.5t12.5 -21.5t8.5 -12.5q-130 0 -130 121q0 94 91 165t206 71q16 0 42 -2z" />
    <glyph glyph-name="W" unicode="W" horiz-adv-x="1009" 
d="M356 748l120 -615l99 612h127l120 -612l99 612h77l-139 -745h-151l-100 509l-102 -509h-144l-141 683q-109 -45 -109 -177q0 -27 5 -49.5t10.5 -32.5t12 -19.5t7.5 -11.5q-62 0 -96 29t-34 87q0 99 90.5 170t206.5 71q16 0 42 -2z" />
    <glyph glyph-name="X" unicode="X" horiz-adv-x="649" 
d="M651 0h-159l-108 272l-133 -272h-65l165 356l-129 327q-52 -21 -80.5 -66t-28.5 -107q0 -29 4.5 -51.5t9.5 -32t12.5 -20t8.5 -13.5q-130 0 -130 121q0 94 91 165t206 71q16 0 42 -2l109 -279l118 276h65l-150 -361z" />
    <glyph glyph-name="Y" unicode="Y" horiz-adv-x="649" 
d="M532 0h-160v308l-151 375q-52 -21 -80.5 -66t-28.5 -107q0 -29 4.5 -51.5t9.5 -32t12.5 -20t8.5 -13.5q-130 0 -130 121q0 94 91 165t206 71q16 0 42 -2l143 -359l96 356h66l-129 -437v-308z" />
    <glyph glyph-name="Z" unicode="Z" horiz-adv-x="556" 
d="M470 85q-9 0 -17.5 10.5t-8.5 32.5q0 23 14.5 34.5t34.5 11.5q31 0 48.5 -23t17.5 -50q0 -39 -28 -70t-78 -31h-401l282 696q-9 0 -65 1t-75 1q-87 0 -87 -20q23 -9 23 -39q0 -20 -12.5 -36t-33.5 -16q-32 0 -49 23.5t-17 50.5q0 37 26.5 63t76.5 26h393l-280 -685
q12 0 46 -1t51 -1q128 0 139 22z" />
    <glyph glyph-name="bracketleft" unicode="[" horiz-adv-x="296" 
d="M275 -188v-62h-204v1000h203v-62h-110v-876h111z" />
    <glyph glyph-name="backslash" unicode="\" horiz-adv-x="526" 
d="M439 -250l-425 1000h72l425 -1000h-72z" />
    <glyph glyph-name="bracketright" unicode="]" horiz-adv-x="296" 
d="M21 688v62h204v-1000h-204v62h111v876h-111z" />
    <glyph glyph-name="asciicircum" unicode="^" horiz-adv-x="421" 
d="M224 561h-32l-77 80l-140 -80h-44l172 189h21z" />
    <glyph glyph-name="underscore" unicode="_" horiz-adv-x="441" 
d="M396 79v-79h-351v79h351z" />
    <glyph glyph-name="grave" unicode="`" horiz-adv-x="201" 
d="M-36 561l-99 189h105l69 -189h-75z" />
    <glyph glyph-name="a" unicode="a" horiz-adv-x="526" 
d="M315 500h144v-340q0 -41 11 -55t41 -14q29 0 48.5 25t22.5 63h42q-6 -47 -21 -82t-32.5 -54t-40 -30.5t-40 -15t-36.5 -3.5q-96 0 -119 92q-42 -92 -129 -92q-73 0 -124.5 56t-51.5 176q0 48 10.5 95.5t32.5 89.5t60 68t88 26q75 0 94 -53v48zM315 179v225q-11 39 -49 39
q-44 0 -67 -65t-23 -143q0 -50 7.5 -82t21 -44t22.5 -15t23 -3q24 0 44.5 24t20.5 64z" />
    <glyph glyph-name="b" unicode="b" horiz-adv-x="444" 
d="M46 149l1 531l144 20v-225q43 30 78 30q73 0 117.5 -62.5t44.5 -174.5q0 -39 -5.5 -74.5t-20.5 -73t-38.5 -64.5t-63.5 -44.5t-91 -17.5q-82 0 -124 41.5t-42 113.5zM328 259q0 80 -23 126.5t-62 46.5q-37 0 -52 -18v-264q0 -59 50 -59q33 0 53.5 27.5t27 62.5t6.5 78z
" />
    <glyph glyph-name="c" unicode="c" horiz-adv-x="384" 
d="M288 345q3 16 3 30q0 77 -41 77q-37 0 -57 -67t-20 -152q0 -89 25 -122t78 -33q54 0 87.5 25.5t67.5 75.5h34q-74 -185 -238 -185q-90 0 -143 55.5t-53 174.5q0 37 5 73t19 74.5t36 67.5t59.5 47.5t85.5 18.5q70 0 101 -34t31 -78q0 -27 -10.5 -43.5t-28.5 -16.5
q-20 0 -41 12z" />
    <glyph glyph-name="d" unicode="d" horiz-adv-x="526" 
d="M315 680l144 20v-540q0 -41 11 -55t41 -14q29 0 48.5 25t22.5 63h42q-6 -47 -21 -82t-32.5 -54t-40 -30.5t-40 -15t-36.5 -3.5q-96 0 -119 92q-42 -92 -129 -92q-73 0 -124.5 56t-51.5 176q0 48 10.5 95.5t32.5 89.5t60 68t88 26q75 0 94 -53v228zM315 179v225
q-11 39 -49 39q-44 0 -67 -65t-23 -143q0 -50 7.5 -82t21 -44t22.5 -15t23 -3q24 0 44.5 24t20.5 64z" />
    <glyph glyph-name="e" unicode="e" horiz-adv-x="384" 
d="M275 78q55 0 88.5 25t67.5 76h34q-74 -185 -237 -185q-91 0 -144 56t-53 173q0 38 6 74.5t21 75t38 67t61 47t86 18.5q36 0 62 -10.5t38.5 -24t20 -32t8.5 -29t1 -20.5q0 -84 -58 -133.5t-138 -53.5q2 -68 23.5 -96t74.5 -28zM296 388q0 32 -11 48t-27 16q-33 0 -55 -59
t-26 -143q50 4 84.5 43.5t34.5 94.5z" />
    <glyph glyph-name="f" unicode="f" horiz-adv-x="267" 
d="M340 600h-47q-6 33 -15 47t-31 14q-56 0 -56 -82v-79h73v-40h-73v-540q0 -51 -13 -86.5t-35 -52.5t-43.5 -24t-45.5 -7q-62 0 -106 37.5t-44 94.5q0 49 35 75.5t108 50.5v571q0 50 13 86t36 53t45 24t48 7q67 0 106 -42t45 -107zM-43 -111q0 -23 16.5 -36.5t33.5 -13.5
q41 0 41 78v58q-91 -32 -91 -86z" />
    <glyph glyph-name="g" unicode="g" horiz-adv-x="507" 
d="M314 500h144v-464q44 17 66.5 48.5t29.5 94.5h42q-8 -89 -45 -129.5t-93 -58.5v-71q0 -51 -12.5 -86.5t-34.5 -52.5t-44 -24t-48 -7q-59 0 -99 31t-40 82q0 88 134 133v84q-39 -66 -113 -66q-71 0 -122.5 54.5t-51.5 166.5q0 48 10.5 93t32.5 86t62.5 66t94.5 25
q68 0 87 -50v45zM266 443q-31 0 -53 -32.5t-31 -77t-9 -93.5q0 -129 66 -129q31 0 51 20.5t24 53.5v223q-4 13 -16.5 24t-31.5 11zM233 -129q0 -18 13 -30.5t27 -12.5q19 0 30 23t11 66v29q-81 -33 -81 -75z" />
    <glyph glyph-name="h" unicode="h" 
d="M301 303q0 110 -51 110t-59 -92v-321h-144v680l144 20v-252q37 56 107 56q140 0 140 -184q0 -18 -2 -72t-2 -71q0 -45 11 -65.5t41 -20.5q22 0 35.5 13t18.5 28t12 47h42q-7 -57 -23 -96t-38 -57.5t-42.5 -25t-45.5 -6.5q-146 0 -146 187q0 12 1 60t1 62z" />
    <glyph glyph-name="i" unicode="i" horiz-adv-x="267" 
d="M47 500h144v-340q0 -41 11 -55t41 -14q29 0 48.5 25t22.5 63h42q-6 -47 -21 -82t-32.5 -54t-40 -30.5t-40 -15t-36.5 -3.5q-139 0 -139 155v351zM36 633q0 33 23 56.5t56 23.5t56.5 -23.5t23.5 -56.5t-23.5 -56t-56.5 -23t-56 23t-23 56z" />
    <glyph glyph-name="j" unicode="j" horiz-adv-x="240" 
d="M47 500l225 489v-464q44 17 66.5 48.5t29.5 94.5h42q-8 -89 -45 -129.5t-93 -58.5v-71q0 -51 -12.5 -86t-34 -52.5t-44 -24.5t-48.5 -7q-59 0 -99 31t-40 82q0 88 134 133h-81v15zM119 1122q0 33 23 56.5t56 23.5t56.5 -23.5t23.5 -56.5t-23.5 -56t-56.5 -23t-56 23
t-23 56zM47 361q0 -18 13 -31t28 -13q40 0 40 89v29q-81 -34 -81 -74z" />
    <glyph glyph-name="k" unicode="k" horiz-adv-x="518" 
d="M352 500l52 203l-170 -138q5 1 14 -15t13 -16q62 0 102.5 -30.5t40.5 -96.5q0 -13 -2 -49.5t-2 -44.5q0 -23 10.5 -35t38.5 -12q33 0 45.5 19t23.5 69h42q-14 -108 -53.5 -146.5t-97.5 -38.5q-72 0 -108 39t-36 99l1 17q1 -8 1 -71q32 0 32 14q-9 13 -36 16
q-54 0 -72 -60v-223h-144v680l144 20v-352z" />
    <glyph glyph-name="l" unicode="l" horiz-adv-x="267" 
d="M47 680l144 20v-540q0 -41 11 -55t41 -14q29 0 48.5 25t22.5 63h42q-6 -47 -21 -82t-32.5 -54t-40 -30.5t-40 -15t-36.5 -3.5q-139 0 -139 155v531z" />
    <glyph glyph-name="m" unicode="m" horiz-adv-x="752" 
d="M549 302l-339 109q-26 0 -41 -26.5t-18 -66.5v-321h-144v500h144v-52q38 57 117 57q76 0 153 -82q38 85 124 85q140 0 140 -184q0 -18 -2 -72t-2 -71q0 -45 11 -65.5t41 -20.5q22 0 35.5 13t18.5 28t12 47h42q-14 -107 -54 -146t-96 -39q-73 0 -108.5 49.5t-35.5 136.5
q0 12 1 60t1 61z" />
    <glyph glyph-name="n" unicode="n" 
d="M302 302q0 111 -52 111q-51 0 -59 -92v-321h-144v500h144v-52q37 56 107 56q140 0 140 -184q0 -18 -2 -72t-2 -71q0 -46 10 -66t39 -20q32 0 45.5 21.5t23.5 66.5h42q-8 -58 -23.5 -96.5t-37 -57t-42 -25t-45.5 -6.5q-146 0 -146 187q0 12 1 60t1 61z" />
    <glyph glyph-name="o" unicode="o" horiz-adv-x="439" 
d="M244 505q140 0 163 -158h7q27 0 67.5 18t69.5 42l15 -27q-40 -59 -155 -82q1 -9 1 -27q0 -126 -46.5 -201.5t-148.5 -75.5q-82 0 -134.5 54t-52.5 172q0 48 9.5 93.5t32 91t67 73t105.5 27.5zM245 88q41 0 61 52t20 139v15q-39 8 -39 50q0 39 25 47q-17 54 -53 54
q-40 0 -61 -66.5t-21 -148.5q0 -142 68 -142z" />
    <glyph glyph-name="p" unicode="p" horiz-adv-x="468" 
d="M47 537h144v-75q41 43 106 43q75 0 122.5 -59t47.5 -185q0 -52 -9 -97t-29 -84.5t-57 -62.5t-88 -23q-64 0 -93 35v-243l-144 -36v787zM236 81q48 0 70 57t22 137q0 42 -6.5 73t-15 46.5t-20.5 25t-19.5 11.5t-15.5 2q-43 0 -60 -50v-279q15 -23 45 -23z" />
    <glyph glyph-name="q" unicode="q" horiz-adv-x="486" 
d="M314 500h144v-714l-144 -36v299q-41 -55 -108 -55q-73 0 -124.5 56t-51.5 176q0 48 10.5 95.5t32.5 89.5t60 68t88 26q74 0 93 -50v45zM266 443q-44 0 -67 -65t-23 -143q0 -50 7.5 -82t21 -44t22.5 -15t23 -3q21 0 40.5 19t23.5 52v246q-15 35 -48 35z" />
    <glyph glyph-name="r" unicode="r" horiz-adv-x="376" 
d="M47 500h144v-62q56 67 108 67q36 0 61 -28t25 -61q0 -24 -14.5 -41.5t-43.5 -17.5q-20 0 -31.5 10t-14.5 21.5t-10.5 21.5t-19.5 10q-23 0 -60 -40v-380h-144v500z" />
    <glyph glyph-name="s" unicode="s" horiz-adv-x="382" 
d="M429 179h42q-45 -68 -131 -128q-47 -57 -140 -57q-81 0 -128.5 46.5t-47.5 101.5q0 54 37 73q60 157 76 296l144 20q16 -61 34.5 -129t26 -96t15 -62t9.5 -57t2 -52v-6q36 25 61 50zM140 170q0 -16 -9.5 -28t-25.5 -12q-21 0 -30 13q15 -70 76 -70q71 0 71 70q0 21 -1 37
t-7 41.5t-9.5 39.5t-16.5 60.5t-21 75.5q-11 -53 -55 -185q28 -13 28 -42z" />
    <glyph glyph-name="t" unicode="t" horiz-adv-x="267" 
d="M47 638l144 20v-158h61v-40h-61v-300q0 -41 11 -55t41 -14q29 0 48.5 25t22.5 63h42q-6 -47 -21 -82t-32.5 -54t-40 -30.5t-40 -15t-36.5 -3.5q-139 0 -139 155v311h-32v40h32v138z" />
    <glyph glyph-name="u" unicode="u" 
d="M295 500h144v-340q0 -38 10 -53.5t36 -15.5q68 0 77 88h42q-6 -47 -21 -82t-32.5 -54t-40 -30.5t-40.5 -15t-37 -3.5q-98 0 -119 95q-37 -95 -133 -95q-134 0 -134 155v351h144v-340q0 -69 41 -69q27 0 45 25t18 63v321z" />
    <glyph glyph-name="v" unicode="v" horiz-adv-x="414" 
d="M309 520q96 0 96 -188q0 -62 -10.5 -118.5t-33 -107.5t-64.5 -81.5t-98 -30.5q-71 0 -111.5 45t-40.5 121v340h144v-340q0 -36 10 -52.5t33 -16.5q53 0 82 76t29 172q0 46 -8 86q-3 -10 -30 -10q-20 0 -34 21t-14 42q0 19 13 30.5t37 11.5z" />
    <glyph glyph-name="w" unicode="w" horiz-adv-x="661" 
d="M556 520q96 0 96 -188q0 -62 -10.5 -118.5t-33 -107.5t-64.5 -81.5t-98 -30.5q-101 0 -137 84q-39 -84 -128 -84q-134 0 -134 155v351h144v-340q0 -69 41 -69q26 0 42.5 24.5t19.5 63.5v321h144v-340q0 -36 10 -52.5t33 -16.5q53 0 82 76t29 172q0 46 -8 86
q-3 -10 -30 -10q-20 0 -34 21t-14 42q0 19 13 30.5t37 11.5z" />
    <glyph glyph-name="x" unicode="x" horiz-adv-x="522" 
d="M394 243l23 -65q29 -87 78 -87q30 0 49.5 23.5t23.5 64.5h42q-7 -56 -26.5 -95.5t-44.5 -57.5t-46 -25t-42 -7q-50 0 -89.5 41.5t-73.5 132.5l-103 -168h-72l153 228l-40 112q-17 49 -29 66t-26 17q-32 0 -57.5 -64t-25.5 -180h-42q0 61 8 114.5t25.5 103.5t51.5 79
t81 29q94 0 134 -119l26 -78q63 87 63 132q0 9 -1 14q-4 0 -7.5 -1t-7.5 -1q-30 0 -46 17t-16 40q0 25 18.5 40t43.5 15q31 0 53.5 -23t22.5 -68q0 -89 -101 -230z" />
    <glyph glyph-name="y" unicode="y" horiz-adv-x="486" 
d="M294 500h144v-464q44 17 66.5 48.5t29.5 94.5h42q-8 -89 -45 -129.5t-93 -58.5v-71q0 -51 -12.5 -86t-34 -52.5t-44 -24.5t-48.5 -7q-59 0 -99 31t-40 82q0 88 134 133v55q-39 -57 -113 -57q-134 0 -134 155v351h144v-340q0 -69 41 -69q26 0 42.5 24.5t19.5 63.5v321z
M213 -128q0 -18 13 -31t28 -13q40 0 40 89v29q-81 -34 -81 -74z" />
    <glyph glyph-name="z" unicode="z" horiz-adv-x="428" 
d="M365 91q-11 1 -17.5 8.5t-6.5 17.5q0 15 12 26.5t35 11.5q27 0 41.5 -18t14.5 -44q0 -35 -27 -64t-74 -29h-276l196 446h-74q-51 0 -51 -14q0 -3 2.5 -4t6 -2t6 -8t2.5 -21q0 -20 -13 -31t-31 -11q-22 0 -39.5 14.5t-17.5 40.5q0 33 26 61.5t70 28.5h275l-191 -423
q5 0 23 -2t35.5 -3t29.5 -1q43 0 43 20z" />
    <glyph glyph-name="braceleft" unicode="{" horiz-adv-x="285" 
d="M261 -181v-54q-32 -8 -59 -8q-125 0 -125 123q0 44 21 141.5t21 134.5q0 73 -62 73q-14 0 -32 -3v56q18 -3 32 -3q62 0 62 73q0 37 -21 134.5t-21 141.5q0 123 125 123q27 0 59 -8v-54q-32 4 -44 4q-43 0 -58.5 -20.5t-15.5 -64.5q0 -54 21.5 -150t21.5 -125
q0 -45 -29 -79q29 -34 29 -79q0 -29 -21.5 -125t-21.5 -150q0 -44 15.5 -64.5t58.5 -20.5q12 0 44 4z" />
    <glyph glyph-name="bar" unicode="|" horiz-adv-x="235" 
d="M164 751v-1001h-93v1001h93z" />
    <glyph glyph-name="braceright" unicode="}" horiz-adv-x="285" 
d="M24 -235v54q32 -4 44 -4q43 0 58.5 20.5t15.5 64.5q0 54 -21.5 150t-21.5 125q0 45 29 79q-29 34 -29 79q0 29 21.5 125t21.5 150q0 44 -15.5 64.5t-58.5 20.5q-12 0 -44 -4v54q32 8 59 8q125 0 125 -123q0 -44 -21 -141.5t-21 -134.5q0 -73 62 -73q14 0 32 3v-56
q-18 3 -32 3q-62 0 -62 -73q0 -37 21 -134.5t21 -141.5q0 -123 -125 -123q-27 0 -59 8z" />
    <glyph glyph-name="asciitilde" unicode="~" horiz-adv-x="438" 
d="M405 670l7 -1q-2 -37 -43.5 -68.5t-96.5 -31.5q-34 0 -92 18.5t-84 18.5q-38 0 -61 -26l-6 2q28 98 146 98q38 0 91.5 -16.5t80.5 -16.5q41 0 58 23z" />
    <glyph glyph-name="exclamdown" unicode="&#xa1;" horiz-adv-x="255" 
d="M85 221h85l29 -469h-144zM208 373q0 -33 -23 -56.5t-56 -23.5t-56.5 23.5t-23.5 56.5t23.5 56t56.5 23t56 -23t23 -56z" />
    <glyph glyph-name="cent" unicode="&#xa2;" horiz-adv-x="392" 
d="M210 -27v172q-81 4 -131.5 55t-50.5 160q0 104 48 166.5t134 69.5v122h39v-122q45 -3 74 -25.5t29 -63.5q0 -50 -59 -52q8 19 8 39q0 25 -13.5 43t-38.5 20v-350q43 1 68.5 12.5t46.5 44.5q-4 -61 -30.5 -86.5t-84.5 -31.5v-173h-39zM134 365q0 -127 76 -153v337
q-36 -18 -56 -69.5t-20 -114.5z" />
    <glyph glyph-name="sterling" unicode="&#xa3;" horiz-adv-x="488" 
d="M400 423l7 -1q-2 -37 -43.5 -68.5t-96.5 -31.5q-13 0 -19 1v-232q14 2 47.5 3t53 4t51.5 18t64 42q2 -26 2 -38q0 -56 -19.5 -88t-53.5 -32h-295v359h-7q-38 0 -61 -26l-6 2q16 60 74 85v299l150 31v-330q71 -20 94 -20q41 0 58 23z" />
    <glyph glyph-name="currency" unicode="&#xa4;" horiz-adv-x="458" 
d="M45 492l38 36l56 -56q41 30 91 30q49 0 89 -29l56 56l36 -36l-55 -55q30 -41 30 -92q0 -50 -30 -91l55 -55l-36 -36l-55 55q-40 -29 -90 -29q-51 0 -92 30l-56 -56l-36 36l56 56q-29 40 -29 89q0 50 29 90zM230 446q-41 0 -70.5 -29.5t-29.5 -70.5t29.5 -70.5t70.5 -29.5
t70.5 29.5t29.5 70.5t-29.5 70.5t-70.5 29.5z" />
    <glyph glyph-name="yen" unicode="&#xa5;" horiz-adv-x="711" 
d="M537 192h129v-50h-129v-142h-160v142h-98v50h98v65h-98v50h98l-151 376q-52 -21 -80.5 -66t-28.5 -107q0 -29 4.5 -51.5t9.5 -32t12.5 -20t8.5 -13.5q-130 0 -130 121q0 94 91 165t206 71q16 0 42 -2l143 -359l96 356h66l-129 -438h129v-50h-129v-65z" />
    <glyph glyph-name="brokenbar" unicode="&#xa6;" horiz-adv-x="235" 
d="M71 222h93v-472h-93v472zM164 301h-93v451h93v-451z" />
    <glyph glyph-name="section" unicode="&#xa7;" horiz-adv-x="520" 
d="M437 639q0 -65 -52 -65q-22 0 -40 16q23 15 23 55q0 28 -18 48t-50 20q-35 0 -55 -25t-20 -63q0 -42 28 -75t67.5 -57.5t79 -51.5t67.5 -70t28 -99q0 -51 -21.5 -87.5t-61.5 -47.5q3 -16 3 -34q0 -75 -47 -116t-134 -41q-31 0 -61 5.5t-63 20.5t-53.5 48t-20.5 81
t20.5 73.5t53.5 25.5q41 0 89 -50q-38 -4 -52.5 -17.5t-14.5 -42.5q0 -41 23.5 -67.5t72.5 -26.5q39 0 54 18.5t15 55.5q0 53 -26 94t-63 67.5t-74 51t-63 58.5t-26 77q0 80 73 115q-13 33 -13 67q0 75 52 112.5t126 37.5q15 0 31 -1.5t39.5 -8t40.5 -17.5t30 -33t13 -51z
M402 227q0 45 -28.5 82.5t-64.5 59.5t-84 54t-74 60q-10 -8 -10 -25q0 -28 31.5 -58.5t72 -56t85.5 -67t66 -86.5q6 15 6 37z" />
    <glyph glyph-name="dieresis" unicode="&#xa8;" horiz-adv-x="392" 
d="M56 634q0 25 18 43t43 18t43 -18t18 -43t-18 -43t-43 -18t-43 17.5t-18 43.5zM236 634q0 25 18 43t43 18t43 -18t18 -43t-18 -43t-43 -18t-43 17.5t-18 43.5z" />
    <glyph glyph-name="copyright" unicode="&#xa9;" horiz-adv-x="554" 
d="M136 336q0 65 45.5 106.5t103.5 41.5q41 0 75 -24t48 -71l-47 -18q-5 29 -27.5 44.5t-51.5 15.5q-37 0 -64 -24t-27 -66q0 -45 27.5 -76t67.5 -31q51 0 75 45l44 -29q-45 -68 -123 -68q-60 0 -103 45.5t-43 108.5zM277 76q-99 0 -170.5 74.5t-71.5 180.5q0 107 71 181.5
t171 74.5t171 -74t71 -181t-71 -181.5t-171 -74.5zM81 331q0 -89 58 -151t140 -62q81 0 139 62t58 151t-58 151t-139 62q-82 0 -140 -62t-58 -151z" />
    <glyph glyph-name="ordfeminine" unicode="&#xaa;" horiz-adv-x="355" 
d="M285 740l-3 -184q0 -19 5 -28.5t21 -9.5q10 0 15 2q-6 -50 -46 -50q-29 0 -43.5 13t-24.5 41q-25 -57 -77 -57q-47 0 -69.5 38t-22.5 91q0 59 27 104t80 45q31 0 52 -16v11h86zM170 711q-25 0 -39 -34.5t-14 -76.5q0 -47 14 -67.5t30 -20.5q25 0 38 48v142q-17 9 -29 9z
" />
    <glyph glyph-name="guillemotleft" unicode="&#xab;" horiz-adv-x="514" 
d="M196 449l51 -45l-143 -151l167 -140l-31 -44l-219 185zM404 449l51 -45l-143 -151l167 -140l-31 -44l-219 185z" />
    <glyph glyph-name="logicalnot" unicode="&#xac;" horiz-adv-x="466" 
d="M404 301v-250h-111v171h-252v79h363z" />
    <glyph glyph-name="uni00AD" unicode="&#xad;" horiz-adv-x="319" 
d="M260 301v-79h-201v79h201z" />
    <glyph glyph-name="registered" unicode="&#xae;" horiz-adv-x="554" 
d="M277 79q-99 0 -170.5 74.5t-71.5 180.5q0 107 71 181.5t171 74.5t171 -74t71 -181t-71 -181.5t-171 -74.5zM81 334q0 -89 58 -151t140 -62q81 0 139 62t58 151t-58 151t-139 62q-82 0 -140 -62t-58 -151zM181 192l1 291h97q53 0 81.5 -22t28.5 -62q0 -28 -16.5 -48.5
t-42.5 -28.5l65 -125l-47 -7l-62 125h-59v-123h-46zM227 442v-89h45q71 0 71 44q0 45 -61 45h-55z" />
    <glyph glyph-name="degree" unicode="&#xb0;" horiz-adv-x="319" 
d="M166 702q111 0 111 -158q0 -65 -27.5 -117.5t-80.5 -52.5q-62 0 -94.5 38.5t-32.5 128.5q0 70 32.5 115.5t91.5 45.5zM114 549q0 -138 50 -138q26 0 40 34.5t14 86.5q0 50 -8 82t-18 42.5t-22 10.5q-20 0 -38 -32t-18 -86z" />
    <glyph glyph-name="plusminus" unicode="&#xb1;" horiz-adv-x="478" 
d="M297 543l-1 -122h128v-112h-129v-123h-111v123h-129v112h129v122h113zM422 147v-79h-367v79h367z" />
    <glyph glyph-name="twosuperior" unicode="&#xb2;" horiz-adv-x="344" 
d="M106 416q21 0 62.5 -5t58.5 -5q10 0 18 1.5t12.5 2.5t11 6.5t8 6.5t9 10t9.5 11q6 -39 6 -53q0 -31 -13.5 -42t-43.5 -11q-27 0 -73 8t-56 8q-34 0 -59 -11q-8 24 -8 35q0 28 15.5 55t38 50t45 47.5t38 57.5t15.5 69q0 62 -47 62q-20 0 -33 -11t-13 -32q0 -29 23 -36
q-18 -19 -43 -19q-19 0 -29 15.5t-10 35.5q0 36 29.5 56.5t85.5 20.5q121 0 121 -100q0 -34 -15 -63.5t-38.5 -51t-47.5 -39.5t-46 -39t-31 -40z" />
    <glyph glyph-name="threesuperior" unicode="&#xb3;" horiz-adv-x="347" 
d="M147 480q-40 -4 -40 -48q0 -56 53 -56q64 0 64 71q0 41 -25.5 75.5t-73.5 48.5q37 9 59.5 36.5t22.5 58.5q0 23 -13.5 38.5t-39.5 15.5q-39 0 -39 -32q0 -15 8.5 -29.5t22.5 -18.5q-18 -19 -41 -19q-21 0 -36.5 16t-15.5 40q0 32 28 52t78 20q58 0 91 -27t33 -64
q0 -55 -64 -88q46 -12 69.5 -39.5t23.5 -61.5q0 -19 -7.5 -39.5t-23.5 -41t-48.5 -33.5t-76.5 -13q-12 0 -25 2t-37 10t-39 30t-15 55q0 68 58 68q36 0 49 -27z" />
    <glyph glyph-name="acute" unicode="&#xb4;" horiz-adv-x="316" 
d="M1 561l51 189h105l-81 -189h-75z" />
    <glyph glyph-name="mu" unicode="&#xb5;" 
d="M295 500h144v-340q0 -38 10 -53.5t36 -15.5q68 0 77 88h42q-6 -47 -21 -82t-32.5 -54t-40 -30.5t-40.5 -15t-37 -3.5q-98 0 -119 95q-37 -91 -123 -95v-124l-144 -36v666h144v-340q0 -69 41 -69q27 0 45 25t18 63v321z" />
    <glyph glyph-name="paragraph" unicode="&#xb6;" horiz-adv-x="518" 
d="M316 682v-343q27 0 40 4v227q0 79 -40 112zM317 288l1 -369h-94v368q-92 16 -146.5 89t-54.5 163q0 86 51.5 148t149.5 62t163 -57.5t65 -179.5v-593h-95v380q-14 -5 -40 -11z" />
    <glyph glyph-name="periodcentered" unicode="&#xb7;" horiz-adv-x="277" 
d="M42 267q0 40 28 68.5t68 28.5t68.5 -28.5t28.5 -68.5t-28.5 -68t-68.5 -28t-68 28t-28 68z" />
    <glyph glyph-name="cedilla" unicode="&#xb8;" horiz-adv-x="227" 
d="M252 -128q0 -42 -29 -66t-70 -24q-53 0 -113 28q12 32 33 32q22 0 45 -13.5t35 -13.5q10 0 16 10t6 23q0 18 -12.5 31.5t-35.5 13.5q-31 0 -49 -12l21 148l40 -23l-13 -72q30 8 51 8q75 0 75 -70z" />
    <glyph glyph-name="onesuperior" unicode="&#xb9;" horiz-adv-x="227" 
d="M165 749v-404h-85v337h-55l2 25q71 0 138 42z" />
    <glyph glyph-name="ordmasculine" unicode="&#xba;" horiz-adv-x="307" 
d="M243 671q6 4 10 8.5t9 12t8 11.5l8 -11q-5 -45 -29 -58q5 -22 5 -39q0 -60 -30 -94.5t-69 -34.5q-62 0 -88 32.5t-26 106.5q0 69 33.5 104.5t85.5 35.5q23 0 41.5 -8t18.5 -20q0 -14 -21 -22q-11 19 -30 19q-26 0 -38 -34.5t-12 -75.5q0 -85 45 -85q47 0 47 77
q0 11 -2 31q-20 4 -20 27q0 13 9.5 24.5t21.5 11.5q19 0 23 -19z" />
    <glyph glyph-name="guillemotright" unicode="&#xbb;" horiz-adv-x="517" 
d="M319 69l-51 45l143 151l-167 140l31 44l219 -185zM111 69l-51 45l143 151l-167 140l31 44l219 -185z" />
    <glyph glyph-name="onequarter" unicode="&#xbc;" horiz-adv-x="679" 
d="M453 750l-260 -821h-72l260 821h72zM534 150h-144q2 16 21 85t19 108q0 32 -14 63q32 0 55 -18t23 -55q0 -25 -9.5 -50t-24 -52t-19.5 -42h93v206l85 11v-217h34l-4 -39h-30v-149h-85v149zM161 629v-404h-85v337h-55l2 25q71 0 138 42z" />
    <glyph glyph-name="onehalf" unicode="&#xbd;" horiz-adv-x="688" 
d="M472 750l-260 -821h-72l260 821h72zM161 629v-404h-85v337h-55l2 25q71 0 138 42zM465 76q21 0 62.5 -5t58.5 -5q10 0 18 1.5t12.5 2.5t11 6.5t8 6.5t9 10t9.5 11q6 -39 6 -53q0 -31 -13.5 -42t-43.5 -11q-27 0 -73 8t-56 8q-34 0 -59 -11q-8 24 -8 35q0 28 15.5 55
t38 50t45 47.5t38 57.5t15.5 69q0 62 -47 62q-20 0 -33 -11t-13 -32q0 -29 23 -36q-18 -19 -43 -19q-19 0 -29 15.5t-10 35.5q0 36 29.5 56.5t85.5 20.5q121 0 121 -100q0 -34 -15 -63.5t-38.5 -51t-47.5 -39.5t-46 -39t-31 -40z" />
    <glyph glyph-name="threequarters" unicode="&#xbe;" horiz-adv-x="780" 
d="M548 750l-260 -821h-72l260 821h72zM132 360q-40 -4 -40 -48q0 -56 53 -56q64 0 64 71q0 41 -25.5 75.5t-73.5 48.5q37 9 59.5 36.5t22.5 58.5q0 23 -13.5 38.5t-39.5 15.5q-39 0 -39 -32q0 -15 8.5 -29.5t22.5 -18.5q-18 -19 -41 -19q-21 0 -36.5 16t-15.5 40
q0 32 28 52t78 20q58 0 91 -27t33 -64q0 -55 -64 -88q46 -12 69.5 -39.5t23.5 -61.5q0 -19 -7.5 -39.5t-23.5 -41t-48.5 -33.5t-76.5 -13q-12 0 -25 2t-37 10t-39 30t-15 55q0 68 58 68q36 0 49 -27zM638 150h-144q2 16 21 85t19 108q0 32 -14 63q32 0 55 -18t23 -55
q0 -25 -9.5 -50t-24 -52t-19.5 -42h93v206l85 11v-217h34l-4 -39h-30v-149h-85v149z" />
    <glyph glyph-name="questiondown" unicode="&#xbf;" horiz-adv-x="416" 
d="M23 -95q0 45 16 81.5t40 61.5t48.5 48.5t44 55t24.5 69.5h66q3 -17 3 -30q0 -36 -19 -72.5t-42 -63t-42 -66t-19 -81.5q0 -101 74 -101q34 0 53 22.5t19 53.5q0 24 -12.5 44.5t-34.5 28.5q16 42 64 42q37 0 62.5 -28.5t25.5 -77.5q0 -56 -44 -97.5t-144 -41.5
q-47 0 -82 11t-53.5 26.5t-30 37.5t-14.5 39.5t-3 37.5zM312 374q0 -33 -23 -56.5t-56 -23.5t-56.5 23.5t-23.5 56.5t23.5 56t56.5 23t56 -23t23 -56z" />
    <glyph glyph-name="Agrave" unicode="&#xc0;" horiz-adv-x="603" 
d="M557 0h-145v363q-71 29 -137 35q-48 -189 -48 -359q0 -112 36 -153q-27 0 -43.5 1.5t-42 10.5t-40 26t-26 50.5t-11.5 81.5q0 148 72 344q-103 -6 -111 -53q5 0 13 -13t8 -24q0 -15 -14 -24t-35 -9q-31 0 -53.5 19t-22.5 52q0 48 49.5 79t128.5 31q25 0 59 -3
q55 130 128 212.5t155 82.5q42 0 80 -14v-736zM412 407v271q-72 -46 -125 -237q69 -13 125 -34zM395 811l-99 189h105l69 -189h-75z" />
    <glyph glyph-name="Aacute" unicode="&#xc1;" horiz-adv-x="603" 
d="M557 0h-145v363q-71 29 -137 35q-48 -189 -48 -359q0 -112 36 -153q-27 0 -43.5 1.5t-42 10.5t-40 26t-26 50.5t-11.5 81.5q0 148 72 344q-103 -6 -111 -53q5 0 13 -13t8 -24q0 -15 -14 -24t-35 -9q-31 0 -53.5 19t-22.5 52q0 48 49.5 79t128.5 31q25 0 59 -3
q55 130 128 212.5t155 82.5q42 0 80 -14v-736zM412 407v271q-72 -46 -125 -237q69 -13 125 -34zM397 811l51 189h105l-81 -189h-75z" />
    <glyph glyph-name="Acircumflex" unicode="&#xc2;" horiz-adv-x="603" 
d="M557 0h-145v363q-71 29 -137 35q-48 -189 -48 -359q0 -112 36 -153q-27 0 -43.5 1.5t-42 10.5t-40 26t-26 50.5t-11.5 81.5q0 148 72 344q-103 -6 -111 -53q5 0 13 -13t8 -24q0 -15 -14 -24t-35 -9q-31 0 -53.5 19t-22.5 52q0 48 49.5 79t128.5 31q25 0 59 -3
q55 130 128 212.5t155 82.5q42 0 80 -14v-736zM572 811h-32l-77 80l-140 -80h-44l172 189h21zM412 407v271q-72 -46 -125 -237q69 -13 125 -34z" />
    <glyph glyph-name="Atilde" unicode="&#xc3;" horiz-adv-x="603" 
d="M557 0h-145v363q-71 29 -137 35q-48 -189 -48 -359q0 -112 36 -153q-27 0 -43.5 1.5t-42 10.5t-40 26t-26 50.5t-11.5 81.5q0 148 72 344q-103 -6 -111 -53q5 0 13 -13t8 -24q0 -15 -14 -24t-35 -9q-31 0 -53.5 19t-22.5 52q0 48 49.5 79t128.5 31q25 0 59 -3
q55 130 128 212.5t155 82.5q42 0 80 -14v-736zM629 920l7 -1q-2 -37 -43.5 -68.5t-96.5 -31.5q-34 0 -92 18.5t-84 18.5q-38 0 -61 -26l-6 2q28 98 146 98q38 0 91.5 -16.5t80.5 -16.5q41 0 58 23zM412 407v271q-72 -46 -125 -237q69 -13 125 -34z" />
    <glyph glyph-name="Adieresis" unicode="&#xc4;" horiz-adv-x="603" 
d="M557 0h-145v363q-71 29 -137 35q-48 -189 -48 -359q0 -112 36 -153q-27 0 -43.5 1.5t-42 10.5t-40 26t-26 50.5t-11.5 81.5q0 148 72 344q-103 -6 -111 -53q5 0 13 -13t8 -24q0 -15 -14 -24t-35 -9q-31 0 -53.5 19t-22.5 52q0 48 49.5 79t128.5 31q25 0 59 -3
q55 130 128 212.5t155 82.5q42 0 80 -14v-736zM412 407v271q-72 -46 -125 -237q69 -13 125 -34zM489 884q0 25 18 43t43 18t43 -18t18 -43t-18 -43t-43 -18q-26 0 -43.5 17.5t-17.5 43.5zM309 884q0 25 18 43t43 18t43 -18t18 -43t-18 -43t-43 -18q-26 0 -43.5 17.5
t-17.5 43.5z" />
    <glyph glyph-name="Aring" unicode="&#xc5;" horiz-adv-x="603" 
d="M557 0h-145v363q-71 29 -137 35q-48 -189 -48 -359q0 -112 36 -153q-27 0 -43.5 1.5t-42 10.5t-40 26t-26 50.5t-11.5 81.5q0 148 72 344q-103 -6 -111 -53q5 0 13 -13t8 -24q0 -15 -14 -24t-35 -9q-31 0 -53.5 19t-22.5 52q0 48 49.5 79t128.5 31q25 0 59 -3
q55 130 128 212.5t155 82.5q42 0 80 -14v-736zM432 963q39 0 57 -23t18 -55q0 -35 -20 -59t-58 -24q-37 0 -58.5 24t-21.5 57t22 56.5t61 23.5zM412 407v271q-72 -46 -125 -237q69 -13 125 -34zM470 882q0 48 -39 48q-18 0 -30 -12t-12 -35q0 -46 42 -46q39 0 39 45z" />
    <glyph glyph-name="AE" unicode="&#xc6;" horiz-adv-x="841" 
d="M833 0h-367v363q-71 30 -138 36q-48 -189 -48 -356q0 -57 5 -91t11 -42.5t13 -13.5t8 -9q-26 2 -37 2.5t-33 4.5t-32 10t-24.5 18.5t-21 29t-11.5 42.5t-5 59q0 150 73 347q-51 -3 -78.5 -15t-32.5 -38q5 0 12.5 -13t7.5 -24q0 -33 -53 -33q-29 0 -50.5 19.5t-21.5 54.5
q0 42 50.5 73t121.5 31q30 0 64 -3q56 132 128.5 215.5t152.5 83.5q26 0 86.5 -10t97.5 -10q57 0 113 19q0 -1 -2 -22t-3.5 -26.5t-7 -21.5t-13.5 -22t-22.5 -12t-34.5 -6q-44 0 -131 32v-253h155l-5 -74h-150v-239h223v-106zM466 407v272q-72 -47 -127 -239q77 -15 127 -33
z" />
    <glyph glyph-name="Ccedilla" unicode="&#xc7;" horiz-adv-x="507" 
d="M477 -128q0 -42 -29 -66t-70 -24q-53 0 -113 28q12 32 33 32q22 0 45 -13.5t35 -13.5q10 0 16 10t6 23q0 18 -12.5 31.5t-35.5 13.5q-31 0 -49 -12l14 103q-129 1 -199 93.5t-70 272.5q0 58 7 111.5t26 107t47.5 93t75.5 64t106 24.5q81 0 136.5 -41t55.5 -117
q0 -68 -54 -68q-35 0 -63 26q12 7 20.5 28.5t8.5 43.5q0 33 -19.5 57t-50.5 24q-63 0 -98 -100t-35 -237q0 -291 172 -291q56 0 102 28.5t71 76.5l25 -10q-19 -78 -78.5 -125.5t-142.5 -57.5l-9 -53q30 8 51 8q75 0 75 -70z" />
    <glyph glyph-name="Egrave" unicode="&#xc8;" horiz-adv-x="447" 
d="M496 180l25 -10q-20 -88 -91 -138t-163 -50q-107 0 -166.5 65t-59.5 157q0 72 36 134.5t100 78.5q-91 57 -91 151q0 74 54 129t146 55q64 0 104.5 -30t40.5 -94q0 -37 -13.5 -62t-38.5 -25t-51 25q14 4 22.5 24.5t8.5 42.5q0 34 -19.5 47t-44.5 13q-42 0 -63 -31t-21 -78
q0 -58 34 -103.5t99 -62.5q-61 -14 -96.5 -74.5t-35.5 -128.5q0 -59 30.5 -98t89.5 -39q52 0 100.5 28t63.5 74zM241 811l-99 189h105l69 -189h-75z" />
    <glyph glyph-name="Eacute" unicode="&#xc9;" horiz-adv-x="447" 
d="M496 180l25 -10q-20 -88 -91 -138t-163 -50q-107 0 -166.5 65t-59.5 157q0 72 36 134.5t100 78.5q-91 57 -91 151q0 74 54 129t146 55q64 0 104.5 -30t40.5 -94q0 -37 -13.5 -62t-38.5 -25t-51 25q14 4 22.5 24.5t8.5 42.5q0 34 -19.5 47t-44.5 13q-42 0 -63 -31t-21 -78
q0 -58 34 -103.5t99 -62.5q-61 -14 -96.5 -74.5t-35.5 -128.5q0 -59 30.5 -98t89.5 -39q52 0 100.5 28t63.5 74zM253 811l51 189h105l-81 -189h-75z" />
    <glyph glyph-name="Ecircumflex" unicode="&#xca;" horiz-adv-x="447" 
d="M496 180l25 -10q-20 -88 -91 -138t-163 -50q-107 0 -166.5 65t-59.5 157q0 72 36 134.5t100 78.5q-91 57 -91 151q0 74 54 129t146 55q64 0 104.5 -30t40.5 -94q0 -37 -13.5 -62t-38.5 -25t-51 25q14 4 22.5 24.5t8.5 42.5q0 34 -19.5 47t-44.5 13q-42 0 -63 -31t-21 -78
q0 -58 34 -103.5t99 -62.5q-61 -14 -96.5 -74.5t-35.5 -128.5q0 -59 30.5 -98t89.5 -39q52 0 100.5 28t63.5 74zM426 811h-32l-77 80l-140 -80h-44l172 189h21z" />
    <glyph glyph-name="Edieresis" unicode="&#xcb;" horiz-adv-x="447" 
d="M496 180l25 -10q-20 -88 -91 -138t-163 -50q-107 0 -166.5 65t-59.5 157q0 72 36 134.5t100 78.5q-91 57 -91 151q0 74 54 129t146 55q64 0 104.5 -30t40.5 -94q0 -37 -13.5 -62t-38.5 -25t-51 25q14 4 22.5 24.5t8.5 42.5q0 34 -19.5 47t-44.5 13q-42 0 -63 -31t-21 -78
q0 -58 34 -103.5t99 -62.5q-61 -14 -96.5 -74.5t-35.5 -128.5q0 -59 30.5 -98t89.5 -39q52 0 100.5 28t63.5 74zM148 884q0 25 18 43t43 18t43 -18t18 -43t-18 -43t-43 -18t-43 17.5t-18 43.5zM328 884q0 25 18 43t43 18t43 -18t18 -43t-18 -43t-43 -18t-43 17.5t-18 43.5z
" />
    <glyph glyph-name="Igrave" unicode="&#xcc;" horiz-adv-x="403" 
d="M357 748v-748h-144v678q-100 -48 -100 -168q0 -28 4.5 -51t9.5 -32.5t12.5 -21t8.5 -12.5q-130 0 -130 121q0 94 91 165t206 71q16 0 42 -2zM246 811l-99 189h105l69 -189h-75z" />
    <glyph glyph-name="Iacute" unicode="&#xcd;" horiz-adv-x="403" 
d="M357 748v-748h-144v678q-100 -48 -100 -168q0 -28 4.5 -51t9.5 -32.5t12.5 -21t8.5 -12.5q-130 0 -130 121q0 94 91 165t206 71q16 0 42 -2zM251 811l51 189h105l-81 -189h-75z" />
    <glyph glyph-name="Icircumflex" unicode="&#xce;" horiz-adv-x="403" 
d="M357 748v-748h-144v678q-100 -48 -100 -168q0 -28 4.5 -51t9.5 -32.5t12.5 -21t8.5 -12.5q-130 0 -130 121q0 94 91 165t206 71q16 0 42 -2zM426 811h-32l-77 80l-140 -80h-44l172 189h21z" />
    <glyph glyph-name="Idieresis" unicode="&#xcf;" horiz-adv-x="403" 
d="M357 748v-748h-144v678q-100 -48 -100 -168q0 -28 4.5 -51t9.5 -32.5t12.5 -21t8.5 -12.5q-130 0 -130 121q0 94 91 165t206 71q16 0 42 -2zM314 884q0 25 18 43t43 18t43 -18t18 -43t-18 -43t-43 -18t-43 17.5t-18 43.5zM134 884q0 25 18 43t43 18t43 -18t18 -43
t-18 -43t-43 -18t-43 17.5t-18 43.5z" />
    <glyph glyph-name="Eth" unicode="&#xd0;" horiz-adv-x="707" 
d="M114 503q0 -21 3 -39t8 -30t9.5 -20t9 -14t5.5 -7q-131 0 -131 118q0 101 92 170t235 69q88 0 154 -28.5t105 -79.5t58 -115.5t19 -141.5q0 -93 -24 -182t-70 -150.5t-103 -61.5t-126 48v-39h-145v345h-38l4 74h34v217l145 20v-237h78l-4 -74h-74v-251q32 -19 58 -19
q60 0 90.5 99.5t30.5 239.5q0 143 -44 216.5t-162 73.5q-100 0 -158.5 -52.5t-58.5 -148.5z" />
    <glyph glyph-name="Ntilde" unicode="&#xd1;" horiz-adv-x="718" 
d="M581 748h91v-748h-138l-226 498v-498h-96v678q-96 -46 -96 -162q0 -24 2.5 -43t7 -32t8 -20t10 -16t8.5 -12q-67 0 -99.5 31.5t-32.5 101.5q0 90 67 157t188 67q41 0 73 -14l233 -530v542zM629 920l7 -1q-2 -37 -43.5 -68.5t-96.5 -31.5q-34 0 -92 18.5t-84 18.5
q-38 0 -61 -26l-6 2q28 98 146 98q38 0 91.5 -16.5t80.5 -16.5q41 0 58 23z" />
    <glyph glyph-name="Ograve" unicode="&#xd2;" horiz-adv-x="697" 
d="M391 656q-39 -26 -61 -131t-22 -213q0 -68 10 -116.5t26.5 -71t32 -32t32.5 -9.5q57 0 89 96.5t32 233.5q0 88 -14 148t-41 90t-57 41.5t-71 11.5q-101 0 -168 -58.5t-67 -160.5q0 -51 27 -92q-122 0 -122 107q0 102 102 176t246 74q68 0 121 -19t87 -52t56.5 -80
t31.5 -99t9 -113q0 -72 -13 -136.5t-41.5 -124.5t-84 -96t-131.5 -36q-107 0 -174 75t-67 242q0 59 9 117t28.5 113t57 89t86.5 34q26 0 51 -8zM375 811l-99 189h105l69 -189h-75z" />
    <glyph glyph-name="Oacute" unicode="&#xd3;" horiz-adv-x="697" 
d="M391 656q-39 -26 -61 -131t-22 -213q0 -68 10 -116.5t26.5 -71t32 -32t32.5 -9.5q57 0 89 96.5t32 233.5q0 88 -14 148t-41 90t-57 41.5t-71 11.5q-101 0 -168 -58.5t-67 -160.5q0 -51 27 -92q-122 0 -122 107q0 102 102 176t246 74q68 0 121 -19t87 -52t56.5 -80
t31.5 -99t9 -113q0 -72 -13 -136.5t-41.5 -124.5t-84 -96t-131.5 -36q-107 0 -174 75t-67 242q0 59 9 117t28.5 113t57 89t86.5 34q26 0 51 -8zM370 811l51 189h105l-81 -189h-75z" />
    <glyph glyph-name="Ocircumflex" unicode="&#xd4;" horiz-adv-x="697" 
d="M391 656q-39 -26 -61 -131t-22 -213q0 -68 10 -116.5t26.5 -71t32 -32t32.5 -9.5q57 0 89 96.5t32 233.5q0 88 -14 148t-41 90t-57 41.5t-71 11.5q-101 0 -168 -58.5t-67 -160.5q0 -51 27 -92q-122 0 -122 107q0 102 102 176t246 74q68 0 121 -19t87 -52t56.5 -80
t31.5 -99t9 -113q0 -72 -13 -136.5t-41.5 -124.5t-84 -96t-131.5 -36q-107 0 -174 75t-67 242q0 59 9 117t28.5 113t57 89t86.5 34q26 0 51 -8zM559 811h-32l-77 80l-140 -80h-44l172 189h21z" />
    <glyph glyph-name="Otilde" unicode="&#xd5;" horiz-adv-x="697" 
d="M391 656q-39 -26 -61 -131t-22 -213q0 -68 10 -116.5t26.5 -71t32 -32t32.5 -9.5q57 0 89 96.5t32 233.5q0 88 -14 148t-41 90t-57 41.5t-71 11.5q-101 0 -168 -58.5t-67 -160.5q0 -51 27 -92q-122 0 -122 107q0 102 102 176t246 74q68 0 121 -19t87 -52t56.5 -80
t31.5 -99t9 -113q0 -72 -13 -136.5t-41.5 -124.5t-84 -96t-131.5 -36q-107 0 -174 75t-67 242q0 59 9 117t28.5 113t57 89t86.5 34q26 0 51 -8zM584 920l7 -1q-2 -37 -43.5 -68.5t-96.5 -31.5q-34 0 -92 18.5t-84 18.5q-38 0 -61 -26l-6 2q28 98 146 98q38 0 91.5 -16.5
t80.5 -16.5q41 0 58 23z" />
    <glyph glyph-name="Odieresis" unicode="&#xd6;" horiz-adv-x="697" 
d="M391 656q-39 -26 -61 -131t-22 -213q0 -68 10 -116.5t26.5 -71t32 -32t32.5 -9.5q57 0 89 96.5t32 233.5q0 88 -14 148t-41 90t-57 41.5t-71 11.5q-101 0 -168 -58.5t-67 -160.5q0 -51 27 -92q-122 0 -122 107q0 102 102 176t246 74q68 0 121 -19t87 -52t56.5 -80
t31.5 -99t9 -113q0 -72 -13 -136.5t-41.5 -124.5t-84 -96t-131.5 -36q-107 0 -174 75t-67 242q0 59 9 117t28.5 113t57 89t86.5 34q26 0 51 -8zM251 884q0 25 18 43t43 18t43 -18t18 -43t-18 -43t-43 -18q-26 0 -43.5 17.5t-17.5 43.5zM431 884q0 25 18 43t43 18t43 -18
t18 -43t-18 -43t-43 -18q-26 0 -43.5 17.5t-17.5 43.5z" />
    <glyph glyph-name="multiply" unicode="&#xd7;" horiz-adv-x="445" 
d="M43 355l51 64l129 -107l129 107l50 -65l-115 -95l115 -94l-50 -65l-129 106l-129 -106l-51 64l115 95z" />
    <glyph glyph-name="Oslash" unicode="&#xd8;" horiz-adv-x="660" 
d="M431 -71h-52v65q-105 0 -166 68.5t-61 220.5q0 57 10 113.5t30 108.5t56.5 84.5t83.5 32.5q23 0 47 -7v40q-17 4 -39 4q-100 0 -166 -55t-66 -145q0 -32 6 -51.5t13 -28.5t7 -11q-118 0 -118 103q0 92 99.5 161.5t238.5 69.5q4 0 12.5 -0.5t12.5 -0.5v49h52v-55
q214 -43 214 -332q0 -58 -11.5 -114.5t-35.5 -109t-67 -90t-100 -49.5v-71zM296 283q0 -88 20.5 -147.5t62.5 -65.5v541q-38 -31 -60.5 -129.5t-22.5 -198.5zM511 386q0 195 -80 249v-545q36 36 58 120t22 176z" />
    <glyph glyph-name="Ugrave" unicode="&#xd9;" horiz-adv-x="771" 
d="M584 748h142v-538q0 -103 -71 -160t-168 -57t-168 57t-71 160v482q-65 -19 -100.5 -66t-35.5 -116q0 -23 2 -41t7 -31t8.5 -19.5t10 -15.5t7.5 -10q-130 0 -130 120q0 96 96 166.5t229 70.5q23 0 49 -5v-545q0 -52 28.5 -80.5t67.5 -28.5q40 0 68.5 28.5t28.5 80.5v548z
M452 811l-99 189h105l69 -189h-75z" />
    <glyph glyph-name="Uacute" unicode="&#xda;" horiz-adv-x="771" 
d="M584 748h142v-538q0 -103 -71 -160t-168 -57t-168 57t-71 160v482q-65 -19 -100.5 -66t-35.5 -116q0 -23 2 -41t7 -31t8.5 -19.5t10 -15.5t7.5 -10q-130 0 -130 120q0 96 96 166.5t229 70.5q23 0 49 -5v-545q0 -52 28.5 -80.5t67.5 -28.5q40 0 68.5 28.5t28.5 80.5v548z
M428 811l51 189h105l-81 -189h-75z" />
    <glyph glyph-name="Ucircumflex" unicode="&#xdb;" horiz-adv-x="771" 
d="M584 748h142v-538q0 -103 -71 -160t-168 -57t-168 57t-71 160v482q-65 -19 -100.5 -66t-35.5 -116q0 -23 2 -41t7 -31t8.5 -19.5t10 -15.5t7.5 -10q-130 0 -130 120q0 96 96 166.5t229 70.5q23 0 49 -5v-545q0 -52 28.5 -80.5t67.5 -28.5q40 0 68.5 28.5t28.5 80.5v548z
M611 811h-32l-77 80l-140 -80h-44l172 189h21z" />
    <glyph glyph-name="Udieresis" unicode="&#xdc;" horiz-adv-x="771" 
d="M584 748h142v-538q0 -103 -71 -160t-168 -57t-168 57t-71 160v482q-65 -19 -100.5 -66t-35.5 -116q0 -23 2 -41t7 -31t8.5 -19.5t10 -15.5t7.5 -10q-130 0 -130 120q0 96 96 166.5t229 70.5q23 0 49 -5v-545q0 -52 28.5 -80.5t67.5 -28.5q40 0 68.5 28.5t28.5 80.5v548z
M514 884q0 25 18 43t43 18t43 -18t18 -43t-18 -43t-43 -18t-43 17.5t-18 43.5zM334 884q0 25 18 43t43 18t43 -18t18 -43t-18 -43t-43 -18t-43 17.5t-18 43.5z" />
    <glyph glyph-name="Yacute" unicode="&#xdd;" horiz-adv-x="649" 
d="M532 0h-160v308l-151 375q-52 -21 -80.5 -66t-28.5 -107q0 -29 4.5 -51.5t9.5 -32t12.5 -20t8.5 -13.5q-130 0 -130 121q0 94 91 165t206 71q16 0 42 -2l143 -359l96 356h66l-129 -437v-308zM430 811l51 189h105l-81 -189h-75z" />
    <glyph glyph-name="Thorn" unicode="&#xde;" horiz-adv-x="604" 
d="M191 730l145 20v-111q126 -5 195.5 -74t69.5 -162q0 -92 -63 -160t-174 -68h-28v-175h-145v559q-77 -48 -77 -156q0 -43 7.5 -68.5t17.5 -37.5t11 -14q-67 0 -99 29.5t-32 93.5t48.5 120.5t123.5 87.5v116zM336 212h13q63 0 100.5 61.5t37.5 139.5q0 74 -38.5 126
t-112.5 55v-382z" />
    <glyph glyph-name="germandbls" unicode="&#xdf;" horiz-adv-x="450" 
d="M197 530v-744l-144 -36v780q0 52 13 87.5t37 52.5t48 23.5t54 6.5q78 0 122.5 -37.5t44.5 -106.5q0 -91 -70 -129q143 -45 143 -205q0 -103 -46.5 -162.5t-100.5 -59.5q-9 0 -31 2v59q37 0 55.5 46.5t18.5 117.5q0 75 -24 115t-83 53l5 58q67 33 67 96q0 35 -16 50
t-38 15q-55 0 -55 -82z" />
    <glyph glyph-name="agrave" unicode="&#xe0;" horiz-adv-x="526" 
d="M315 500h144v-340q0 -41 11 -55t41 -14q29 0 48.5 25t22.5 63h42q-6 -47 -21 -82t-32.5 -54t-40 -30.5t-40 -15t-36.5 -3.5q-96 0 -119 92q-42 -92 -129 -92q-73 0 -124.5 56t-51.5 176q0 48 10.5 95.5t32.5 89.5t60 68t88 26q75 0 94 -53v48zM266 443q-44 0 -67 -65
t-23 -143q0 -50 7.5 -82t21 -44t22.5 -15t23 -3q24 0 44.5 23.5t20.5 63.5v227q-14 38 -49 38zM241 561l-99 189h105l69 -189h-75z" />
    <glyph glyph-name="aacute" unicode="&#xe1;" horiz-adv-x="526" 
d="M315 500h144v-340q0 -41 11 -55t41 -14q29 0 48.5 25t22.5 63h42q-6 -47 -21 -82t-32.5 -54t-40 -30.5t-40 -15t-36.5 -3.5q-96 0 -119 92q-42 -92 -129 -92q-73 0 -124.5 56t-51.5 176q0 48 10.5 95.5t32.5 89.5t60 68t88 26q75 0 94 -53v48zM266 443q-44 0 -67 -65
t-23 -143q0 -50 7.5 -82t21 -44t22.5 -15t23 -3q24 0 44.5 24t20.5 64v226q-14 38 -49 38zM221 561l51 189h105l-81 -189h-75z" />
    <glyph glyph-name="acircumflex" unicode="&#xe2;" horiz-adv-x="526" 
d="M315 500h144v-340q0 -41 11 -55t41 -14q29 0 48.5 25t22.5 63h42q-6 -47 -21 -82t-32.5 -54t-40 -30.5t-40 -15t-36.5 -3.5q-96 0 -119 92q-42 -92 -129 -92q-73 0 -124.5 56t-51.5 176q0 48 10.5 95.5t32.5 89.5t60 68t88 26q75 0 94 -53v48zM266 443q-44 0 -67 -65
t-23 -143q0 -50 7.5 -82t21 -44t22.5 -15t23 -3q24 0 44.5 23.5t20.5 63.5v227q-14 38 -49 38zM426 561h-32l-77 80l-140 -80h-44l172 189h21z" />
    <glyph glyph-name="atilde" unicode="&#xe3;" horiz-adv-x="526" 
d="M315 500h144v-340q0 -41 11 -55t41 -14q29 0 48.5 25t22.5 63h42q-6 -47 -21 -82t-32.5 -54t-40 -30.5t-40 -15t-36.5 -3.5q-96 0 -119 92q-42 -92 -129 -92q-73 0 -124.5 56t-51.5 176q0 48 10.5 95.5t32.5 89.5t60 68t88 26q75 0 94 -53v48zM266 443q-44 0 -67 -65
t-23 -143q0 -50 7.5 -82t21 -44t22.5 -15t23 -3q24 0 44.5 24t20.5 64v226q-14 38 -49 38zM459 670l7 -1q-2 -37 -43.5 -68.5t-96.5 -31.5q-34 0 -92 18.5t-84 18.5q-38 0 -61 -26l-6 2q28 98 146 98q38 0 91.5 -16.5t80.5 -16.5q41 0 58 23z" />
    <glyph glyph-name="adieresis" unicode="&#xe4;" horiz-adv-x="526" 
d="M315 500h144v-340q0 -41 11 -55t41 -14q29 0 48.5 25t22.5 63h42q-6 -47 -21 -82t-32.5 -54t-40 -30.5t-40 -15t-36.5 -3.5q-96 0 -119 92q-42 -92 -129 -92q-73 0 -124.5 56t-51.5 176q0 48 10.5 95.5t32.5 89.5t60 68t88 26q75 0 94 -53v48zM315 179v225q-11 39 -49 39
q-44 0 -67 -65t-23 -143q0 -50 7.5 -82t21 -44t22.5 -15t23 -3q24 0 44.5 24t20.5 64zM145 634q0 25 18 43t43 18t43 -18t18 -43t-18 -43t-43 -18q-26 0 -43.5 17.5t-17.5 43.5zM325 634q0 25 18 43t43 18t43 -18t18 -43t-18 -43t-43 -18q-26 0 -43.5 17.5t-17.5 43.5z" />
    <glyph glyph-name="aring" unicode="&#xe5;" horiz-adv-x="526" 
d="M315 500h144v-340q0 -41 11 -55t41 -14q29 0 48.5 25t22.5 63h42q-6 -47 -21 -82t-32.5 -54t-40 -30.5t-40 -15t-36.5 -3.5q-96 0 -119 92q-42 -92 -129 -92q-73 0 -124.5 56t-51.5 176q0 48 10.5 95.5t32.5 89.5t60 68t88 26q75 0 94 -53v48zM315 179v225q-11 39 -49 39
q-44 0 -67 -65t-23 -143q0 -50 7.5 -82t21 -44t22.5 -15t23 -3q24 0 44.5 24t20.5 64zM281 713q39 0 57 -23t18 -55q0 -35 -20 -59t-58 -24q-37 0 -58.5 24t-21.5 57t22 56.5t61 23.5zM319 632q0 48 -39 48q-18 0 -30 -12t-12 -35q0 -46 42 -46q39 0 39 45z" />
    <glyph glyph-name="ae" unicode="&#xe6;" horiz-adv-x="646" 
d="M205 -6q-64 0 -111.5 37.5t-47.5 126.5q0 132 191 132q29 0 53 -4q6 24 6 57q0 45 -21 73.5t-59 28.5q-68 0 -111 -47l-34 29q27 36 58 54t51.5 21t56.5 3q81 0 138 -40q49 44 126 44q66 0 100 -33t34 -95q0 -72 -55 -123t-135 -56q1 -13 5 -32q11 -53 30 -72.5t49 -19.5
q46 0 78 14t48 32t42 55h34q-75 -183 -237 -183q-121 0 -167 94q-14 -45 -40.5 -70.5t-81.5 -25.5zM557 387q0 69 -37 69q-36 0 -56.5 -62.5t-21.5 -143.5q49 3 82 44t33 93zM278 229q-42 0 -67 -20t-25 -53q0 -21 7 -35t18 -20t18.5 -8t15.5 -2q26 0 38 29.5t13 107.5
q-7 1 -18 1z" />
    <glyph glyph-name="ccedilla" unicode="&#xe7;" horiz-adv-x="384" 
d="M288 345q3 16 3 30q0 77 -41 77q-37 0 -57 -67t-20 -152q0 -89 25 -122t78 -33q54 0 87.5 25.5t67.5 75.5h34q-67 -166 -204 -183l2 10l-40 23l-5 -35q-87 3 -137 58.5t-50 171.5q0 37 5 73t19 74.5t36 67.5t59.5 47.5t85.5 18.5q70 0 101 -34t31 -78q0 -27 -10.5 -43.5
t-28.5 -16.5q-20 0 -41 12zM376 -128q0 -42 -29 -66t-70 -24q-53 0 -113 28q12 32 33 32q22 0 45 -13.5t35 -13.5q10 0 16 10t6 23q0 18 -12.5 31.5t-35.5 13.5q-31 0 -49 -12l16 113h9q12 0 34 2l-11 -62q30 8 51 8q75 0 75 -70z" />
    <glyph glyph-name="egrave" unicode="&#xe8;" horiz-adv-x="384" 
d="M275 78q55 0 88.5 25t67.5 76h34q-74 -185 -237 -185q-91 0 -144 56t-53 173q0 38 6 74.5t21 75t38 67t61 47t86 18.5q36 0 62 -10.5t38.5 -24t20 -32t8.5 -29t1 -20.5q0 -84 -58 -133.5t-138 -53.5q2 -68 23.5 -96t74.5 -28zM201 561l-99 189h105l69 -189h-75zM296 388
q0 32 -11 48t-27 16q-33 0 -55 -59t-26 -143q50 4 84.5 43.5t34.5 94.5z" />
    <glyph glyph-name="eacute" unicode="&#xe9;" horiz-adv-x="384" 
d="M275 78q55 0 88.5 25t67.5 76h34q-74 -185 -237 -185q-91 0 -144 56t-53 173q0 38 6 74.5t21 75t38 67t61 47t86 18.5q36 0 62 -10.5t38.5 -24t20 -32t8.5 -29t1 -20.5q0 -84 -58 -133.5t-138 -53.5q2 -68 23.5 -96t74.5 -28zM192 561l51 189h105l-81 -189h-75zM296 388
q0 32 -11 48t-27 16q-33 0 -55 -59t-26 -143q50 4 84.5 43.5t34.5 94.5z" />
    <glyph glyph-name="ecircumflex" unicode="&#xea;" horiz-adv-x="384" 
d="M275 78q55 0 88.5 25t67.5 76h34q-74 -185 -237 -185q-91 0 -144 56t-53 173q0 38 6 74.5t21 75t38 67t61 47t86 18.5q36 0 62 -10.5t38.5 -24t20 -32t8.5 -29t1 -20.5q0 -84 -58 -133.5t-138 -53.5q2 -68 23.5 -96t74.5 -28zM389 561h-32l-77 80l-140 -80h-44l172 189
h21zM296 388q0 32 -11 48t-27 16q-33 0 -55 -59t-26 -143q50 4 84.5 43.5t34.5 94.5z" />
    <glyph glyph-name="edieresis" unicode="&#xeb;" horiz-adv-x="384" 
d="M275 78q55 0 88.5 25t67.5 76h34q-74 -185 -237 -185q-91 0 -144 56t-53 173q0 38 6 74.5t21 75t38 67t61 47t86 18.5q36 0 62 -10.5t38.5 -24t20 -32t8.5 -29t1 -20.5q0 -84 -58 -133.5t-138 -53.5q2 -68 23.5 -96t74.5 -28zM296 388q0 32 -11 48t-27 16q-33 0 -55 -59
t-26 -143q50 4 84.5 43.5t34.5 94.5zM104 634q0 25 18 43t43 18t43 -18t18 -43t-18 -43t-43 -18t-43 17.5t-18 43.5zM284 634q0 25 18 43t43 18t43 -18t18 -43t-18 -43t-43 -18t-43 17.5t-18 43.5z" />
    <glyph glyph-name="igrave" unicode="&#xec;" horiz-adv-x="267" 
d="M47 500h144v-340q0 -41 11 -55t41 -14q29 0 48.5 25t22.5 63h42q-6 -47 -21 -82t-32.5 -54t-40 -30.5t-40 -15t-36.5 -3.5q-139 0 -139 155v351zM87 561l-99 189h105l69 -189h-75z" />
    <glyph glyph-name="iacute" unicode="&#xed;" horiz-adv-x="267" 
d="M47 500h144v-340q0 -41 11 -55t41 -14q29 0 48.5 25t22.5 63h42q-6 -47 -21 -82t-32.5 -54t-40 -30.5t-40 -15t-36.5 -3.5q-139 0 -139 155v351zM86 561l51 189h105l-81 -189h-75z" />
    <glyph glyph-name="icircumflex" unicode="&#xee;" horiz-adv-x="267" 
d="M47 500h144v-340q0 -41 11 -55t41 -14q29 0 48.5 25t22.5 63h42q-6 -47 -21 -82t-32.5 -54t-40 -30.5t-40 -15t-36.5 -3.5q-139 0 -139 155v351zM265 561h-32l-77 80l-140 -80h-44l172 189h21z" />
    <glyph glyph-name="idieresis" unicode="&#xef;" horiz-adv-x="267" 
d="M47 500h144v-340q0 -41 11 -55t41 -14q29 0 48.5 25t22.5 63h42q-6 -47 -21 -82t-32.5 -54t-40 -30.5t-40 -15t-36.5 -3.5q-139 0 -139 155v351zM-26 634q0 25 18 43t43 18t43 -18t18 -43t-18 -43t-43 -18t-43 17.5t-18 43.5zM154 634q0 25 18 43t43 18t43 -18t18 -43
t-18 -43t-43 -18t-43 17.5t-18 43.5z" />
    <glyph glyph-name="eth" unicode="&#xf0;" horiz-adv-x="538" 
d="M471 415v-255q0 -40 10 -54.5t41 -14.5q54 0 63 88h42q-7 -47 -21 -81t-30.5 -52.5t-38 -29t-38 -13.5t-35.5 -3q-86 0 -117 86q-42 -92 -129 -92q-73 0 -124.5 56t-51.5 176q0 48 10.5 95.5t32.5 89.5t60 68t88 26q78 0 94 -44v24q0 53 -6 90l-74 -12l-6 39l69 12
q-17 41 -60 86h45q65 -32 101 -71l75 13l9 -41l-55 -9q46 -71 46 -177zM278 443q-44 0 -67 -65t-23 -143q0 -50 7.5 -82t21 -44t22.5 -15t23 -3q24 0 44.5 24t20.5 64v234q-17 30 -49 30z" />
    <glyph glyph-name="ntilde" unicode="&#xf1;" 
d="M302 302q0 111 -52 111q-51 0 -59 -92v-321h-144v500h144v-52q37 56 107 56q140 0 140 -184q0 -18 -2 -72t-2 -71q0 -46 10 -66t39 -20q32 0 45.5 21.5t23.5 66.5h42q-8 -58 -23.5 -96.5t-37 -57t-42 -25t-45.5 -6.5q-146 0 -146 187q0 12 1 60t1 61zM427 670l7 -1
q-2 -37 -43.5 -68.5t-96.5 -31.5q-34 0 -92 18.5t-84 18.5q-38 0 -61 -26l-6 2q28 98 146 98q38 0 91.5 -16.5t80.5 -16.5q41 0 58 23z" />
    <glyph glyph-name="ograve" unicode="&#xf2;" horiz-adv-x="439" 
d="M244 505q140 0 163 -158h7q27 0 67.5 18t69.5 42l15 -27q-40 -59 -155 -82q1 -9 1 -27q0 -126 -46.5 -201.5t-148.5 -75.5q-82 0 -134.5 54t-52.5 172q0 48 9.5 93.5t32 91t67 73t105.5 27.5zM245 88q41 0 61 52t20 139v15q-39 8 -39 50q0 39 25 47q-17 54 -53 54
q-40 0 -61 -66.5t-21 -148.5q0 -142 68 -142zM213 561l-99 189h105l69 -189h-75z" />
    <glyph glyph-name="oacute" unicode="&#xf3;" horiz-adv-x="439" 
d="M244 505q140 0 163 -158h7q27 0 67.5 18t69.5 42l15 -27q-40 -59 -155 -82q1 -9 1 -27q0 -126 -46.5 -201.5t-148.5 -75.5q-82 0 -134.5 54t-52.5 172q0 48 9.5 93.5t32 91t67 73t105.5 27.5zM245 88q41 0 61 52t20 139v15q-39 8 -39 50q0 39 25 47q-17 54 -53 54
q-40 0 -61 -66.5t-21 -148.5q0 -142 68 -142zM205 561l51 189h105l-81 -189h-75z" />
    <glyph glyph-name="ocircumflex" unicode="&#xf4;" horiz-adv-x="439" 
d="M244 505q140 0 163 -158h7q27 0 67.5 18t69.5 42l15 -27q-40 -59 -155 -82q1 -9 1 -27q0 -126 -46.5 -201.5t-148.5 -75.5q-82 0 -134.5 54t-52.5 172q0 48 9.5 93.5t32 91t67 73t105.5 27.5zM245 88q41 0 61 52t20 139v15q-39 8 -39 50q0 39 25 47q-17 54 -53 54
q-40 0 -61 -66.5t-21 -148.5q0 -142 68 -142zM380 561h-32l-77 80l-140 -80h-44l172 189h21z" />
    <glyph glyph-name="otilde" unicode="&#xf5;" horiz-adv-x="439" 
d="M244 505q140 0 163 -158h7q27 0 67.5 18t69.5 42l15 -27q-40 -59 -155 -82q1 -9 1 -27q0 -126 -46.5 -201.5t-148.5 -75.5q-82 0 -134.5 54t-52.5 172q0 48 9.5 93.5t32 91t67 73t105.5 27.5zM245 88q41 0 61 52t20 139v15q-39 8 -39 50q0 39 25 47q-17 54 -53 54
q-40 0 -61 -66.5t-21 -148.5q0 -142 68 -142zM421 670l7 -1q-2 -37 -43.5 -68.5t-96.5 -31.5q-34 0 -92 18.5t-84 18.5q-38 0 -61 -26l-6 2q28 98 146 98q38 0 91.5 -16.5t80.5 -16.5q41 0 58 23z" />
    <glyph glyph-name="odieresis" unicode="&#xf6;" horiz-adv-x="439" 
d="M244 505q140 0 163 -158h7q27 0 67.5 18t69.5 42l15 -27q-40 -59 -155 -82q1 -9 1 -27q0 -126 -46.5 -201.5t-148.5 -75.5q-82 0 -134.5 54t-52.5 172q0 48 9.5 93.5t32 91t67 73t105.5 27.5zM245 88q41 0 61 52t20 139v15q-39 8 -39 50q0 39 25 47q-17 54 -53 54
q-40 0 -61 -66.5t-21 -148.5q0 -142 68 -142zM88 634q0 25 18 43t43 18t43 -18t18 -43t-18 -43t-43 -18t-43 17.5t-18 43.5zM268 634q0 25 18 43t43 18t43 -18t18 -43t-18 -43t-43 -18t-43 17.5t-18 43.5z" />
    <glyph glyph-name="divide" unicode="&#xf7;" horiz-adv-x="414" 
d="M150 79q0 33 23 56.5t56 23.5t56.5 -23.5t23.5 -56.5t-23.5 -56t-56.5 -23t-56 23t-23 56zM150 414q0 33 23 56.5t56 23.5t56.5 -23.5t23.5 -56.5t-23.5 -56t-56.5 -23t-56 23t-23 56zM380 285v-79h-350v79h350z" />
    <glyph glyph-name="oslash" unicode="&#xf8;" horiz-adv-x="439" 
d="M277 -103h-52v97q-89 2 -142 56.5t-53 172.5q0 46 9.5 90t30 88t61 72t94.5 31v101h51v-104q98 -19 125 -144q65 7 128 60h32q-15 -31 -57.5 -62.5t-94.5 -47.5q3 -25 3 -55q0 -100 -36.5 -167t-98.5 -85v-103zM252 88q32 0 53 53.5t21 132.5q0 4 -0.5 11.5t-0.5 10.5
q-43 6 -43 60q0 17 8.5 29t20.5 13q-17 47 -53 47q-37 0 -59 -68t-22 -145q0 -87 20 -115.5t55 -28.5z" />
    <glyph glyph-name="ugrave" unicode="&#xf9;" 
d="M295 500h144v-340q0 -38 10 -53.5t36 -15.5q68 0 77 88h42q-6 -47 -21 -82t-32.5 -54t-40 -30.5t-40.5 -15t-37 -3.5q-98 0 -119 95q-37 -95 -133 -95q-134 0 -134 155v351h144v-340q0 -69 41 -69q27 0 45 25t18 63v321zM208 561l-99 189h105l69 -189h-75z" />
    <glyph glyph-name="uacute" unicode="&#xfa;" 
d="M295 500h144v-340q0 -38 10 -53.5t36 -15.5q68 0 77 88h42q-6 -47 -21 -82t-32.5 -54t-40 -30.5t-40.5 -15t-37 -3.5q-98 0 -119 95q-37 -95 -133 -95q-134 0 -134 155v351h144v-340q0 -69 41 -69q27 0 45 25t18 63v321zM205 561l51 189h105l-81 -189h-75z" />
    <glyph glyph-name="ucircumflex" unicode="&#xfb;" 
d="M295 500h144v-340q0 -38 10 -53.5t36 -15.5q68 0 77 88h42q-6 -47 -21 -82t-32.5 -54t-40 -30.5t-40.5 -15t-37 -3.5q-98 0 -119 95q-37 -95 -133 -95q-134 0 -134 155v351h144v-340q0 -69 41 -69q27 0 45 25t18 63v321zM388 561h-32l-77 80l-140 -80h-44l172 189h21z
" />
    <glyph glyph-name="udieresis" unicode="&#xfc;" 
d="M295 500h144v-340q0 -38 10 -53.5t36 -15.5q68 0 77 88h42q-6 -47 -21 -82t-32.5 -54t-40 -30.5t-40.5 -15t-37 -3.5q-98 0 -119 95q-37 -95 -133 -95q-134 0 -134 155v351h144v-340q0 -69 41 -69q27 0 45 25t18 63v321zM275 634q0 25 18 43t43 18t43 -18t18 -43t-18 -43
t-43 -18q-26 0 -43.5 17.5t-17.5 43.5zM95 634q0 25 18 43t43 18t43 -18t18 -43t-18 -43t-43 -18q-26 0 -43.5 17.5t-17.5 43.5z" />
    <glyph glyph-name="yacute" unicode="&#xfd;" horiz-adv-x="486" 
d="M294 500h144v-464q44 17 66.5 48.5t29.5 94.5h42q-8 -89 -45 -129.5t-93 -58.5v-71q0 -51 -12.5 -86t-34 -52.5t-44 -24.5t-48.5 -7q-59 0 -99 31t-40 82q0 88 134 133v55q-39 -57 -113 -57q-134 0 -134 155v351h144v-340q0 -69 41 -69q26 0 42.5 24.5t19.5 63.5v321z
M204 561l51 189h105l-81 -189h-75zM213 -128q0 -18 13 -31t28 -13q40 0 40 89v29q-81 -34 -81 -74z" />
    <glyph glyph-name="thorn" unicode="&#xfe;" horiz-adv-x="473" 
d="M46 -250v735q0 75 -16 122t-61 93h45q37 -18 61 -34.5t50.5 -44t41.5 -68t20 -94.5q41 46 111 46q75 0 122 -59.5t47 -195.5q0 -46 -9 -88.5t-29 -81.5t-57.5 -62.5t-88.5 -23.5q-67 0 -94 37v-245zM234 81q34 0 56 31t29.5 69.5t7.5 82.5q0 169 -78 169q-18 0 -35 -14
t-25 -39v-273q15 -26 45 -26z" />
    <glyph glyph-name="ydieresis" unicode="&#xff;" horiz-adv-x="486" 
d="M294 500h144v-464q44 17 66.5 48.5t29.5 94.5h42q-8 -89 -45 -129.5t-93 -58.5v-71q0 -51 -12.5 -86t-34 -52.5t-44 -24.5t-48.5 -7q-59 0 -99 31t-40 82q0 88 134 133v55q-39 -57 -113 -57q-134 0 -134 155v351h144v-340q0 -69 41 -69q26 0 42.5 24.5t19.5 63.5v321z
M94 634q0 25 18 43t43 18t43 -18t18 -43t-18 -43t-43 -18t-43 17.5t-18 43.5zM274 634q0 25 18 43t43 18t43 -18t18 -43t-18 -43t-43 -18t-43 17.5t-18 43.5zM213 -128q0 -18 13 -31t28 -13q40 0 40 89v29q-81 -34 -81 -74z" />
    <glyph glyph-name="Aogonek" unicode="&#x104;" horiz-adv-x="603" 
d="M528 5h-70l-5 -5h-41v363q-71 29 -137 35q-48 -189 -48 -359q0 -112 36 -153q-27 0 -43.5 1.5t-42 10.5t-40 26t-26 50.5t-11.5 81.5q0 148 72 344q-103 -6 -111 -53q5 0 13 -13t8 -24q0 -15 -14 -24t-35 -9q-31 0 -53.5 19t-22.5 52q0 48 49.5 79t128.5 31q25 0 59 -3
q55 130 128 212.5t155 82.5q42 0 80 -14v-736h-38zM412 407v271q-72 -46 -125 -237q69 -13 125 -34zM405 -99q0 51 48 99h66q-15 -10 -26 -30t-11 -40q0 -23 14 -43.5t37 -20.5q8 0 17.5 4t14 7t16.5 12.5t13 10.5l4 -31q-43 -62 -97 -62q-43 0 -69.5 29.5t-26.5 64.5z" />
    <glyph glyph-name="aogonek" unicode="&#x105;" horiz-adv-x="526" 
d="M315 500h144v-340q0 -39 11.5 -57t41.5 -18q52 0 61 94h42q-19 -132 -103 -174q-14 -7 -26.5 -29t-12.5 -47q0 -22 14 -42.5t37 -20.5q8 0 17.5 4t15 7.5t16 12t12.5 10.5q1 -16 5 -31q-3 -3 -12.5 -15t-15.5 -17.5t-17 -14t-23.5 -12t-27.5 -3.5q-44 0 -71 29.5
t-27 63.5q0 47 43 95q-80 8 -104 90q-42 -91 -129 -91q-73 0 -124.5 56t-51.5 176q0 48 10.5 95.5t32.5 89.5t60 68t88 26q80 0 94 -57v52zM266 443q-44 0 -67 -65t-23 -143q0 -50 7.5 -82t21 -44t22.5 -15t23 -3q24 0 44.5 24t20.5 64v229q-13 35 -49 35z" />
    <glyph glyph-name="Cacute" unicode="&#x106;" 
d="M555 180l25 -10q-21 -88 -92.5 -137t-168.5 -49q-130 0 -201 93t-71 273q0 58 7 111.5t26 107t47.5 93t75.5 64t106 24.5q81 0 136.5 -41t55.5 -117q0 -68 -54 -68q-35 0 -63 26q12 7 20.5 28.5t8.5 43.5q0 33 -19.5 57t-50.5 24q-63 0 -98 -100t-35 -237
q0 -291 172 -291q56 0 102 28.5t71 76.5zM298 811l51 189h105l-81 -189h-75z" />
    <glyph glyph-name="cacute" unicode="&#x107;" horiz-adv-x="384" 
d="M288 345q3 16 3 30q0 77 -41 77q-37 0 -57 -67t-20 -152q0 -89 25 -122t78 -33q54 0 87.5 25.5t67.5 75.5h34q-74 -185 -238 -185q-90 0 -143 55.5t-53 174.5q0 37 5 73t19 74.5t36 67.5t59.5 47.5t85.5 18.5q70 0 101 -34t31 -78q0 -27 -10.5 -43.5t-28.5 -16.5
q-20 0 -41 12zM210 561l51 189h105l-81 -189h-75z" />
    <glyph glyph-name="Ccircumflex" unicode="&#x108;" 
d="M555 180l25 -10q-21 -88 -92.5 -137t-168.5 -49q-130 0 -201 93t-71 273q0 58 7 111.5t26 107t47.5 93t75.5 64t106 24.5q81 0 136.5 -41t55.5 -117q0 -68 -54 -68q-35 0 -63 26q12 7 20.5 28.5t8.5 43.5q0 33 -19.5 57t-50.5 24q-63 0 -98 -100t-35 -237
q0 -291 172 -291q56 0 102 28.5t71 76.5zM456 811h-32l-77 80l-140 -80h-44l172 189h21z" />
    <glyph glyph-name="ccircumflex" unicode="&#x109;" horiz-adv-x="384" 
d="M288 345q3 16 3 30q0 77 -41 77q-37 0 -57 -67t-20 -152q0 -89 25 -122t78 -33q54 0 87.5 25.5t67.5 75.5h34q-74 -185 -238 -185q-90 0 -143 55.5t-53 174.5q0 37 5 73t19 74.5t36 67.5t59.5 47.5t85.5 18.5q70 0 101 -34t31 -78q0 -27 -10.5 -43.5t-28.5 -16.5
q-20 0 -41 12zM390 561h-32l-77 80l-140 -80h-44l172 189h21z" />
    <glyph glyph-name="Ccaron" unicode="&#x10c;" 
d="M555 180l25 -10q-21 -88 -92.5 -137t-168.5 -49q-130 0 -201 93t-71 273q0 58 7 111.5t26 107t47.5 93t75.5 64t106 24.5q81 0 136.5 -41t55.5 -117q0 -68 -54 -68q-35 0 -63 26q12 7 20.5 28.5t8.5 43.5q0 33 -19.5 57t-50.5 24q-63 0 -98 -100t-35 -237
q0 -291 172 -291q56 0 102 28.5t71 76.5zM202 1000h32l77 -80l140 80h44l-172 -189h-21z" />
    <glyph glyph-name="ccaron" unicode="&#x10d;" horiz-adv-x="384" 
d="M288 345q3 16 3 30q0 77 -41 77q-37 0 -57 -67t-20 -152q0 -89 25 -122t78 -33q54 0 87.5 25.5t67.5 75.5h34q-74 -185 -238 -185q-90 0 -143 55.5t-53 174.5q0 37 5 73t19 74.5t36 67.5t59.5 47.5t85.5 18.5q70 0 101 -34t31 -78q0 -27 -10.5 -43.5t-28.5 -16.5
q-20 0 -41 12zM132 750h32l77 -80l140 80h44l-172 -189h-21z" />
    <glyph glyph-name="dcroat" unicode="&#x111;" horiz-adv-x="526" 
d="M315 680l144 20v-79h63v-40h-63v-421q0 -41 11 -55t41 -14q29 0 48.5 25t22.5 63h42q-6 -47 -21 -82t-32.5 -54t-40 -30.5t-40 -15t-36.5 -3.5q-96 0 -119 92q-42 -92 -129 -92q-73 0 -124.5 56t-51.5 176q0 48 10.5 95.5t32.5 89.5t60 68t88 26q75 0 94 -53v129h-32v40
h32v59zM266 443q-44 0 -67 -65t-23 -143q0 -50 7.5 -82t21 -44t22.5 -15t23 -3q24 0 44.5 24t20.5 64v226q-14 38 -49 38z" />
    <glyph glyph-name="Eogonek" unicode="&#x118;" horiz-adv-x="449" 
d="M497 180l25 -10q-16 -67 -62 -112.5t-111 -64.5q-28 -26 -28 -63q0 -23 14 -43.5t37 -20.5q8 0 17.5 4t14 7t16.5 12.5t13 10.5l4 -31q-43 -62 -97 -62q-43 0 -69.5 29.5t-26.5 64.5q0 40 32 81h-8q-107 0 -166.5 65t-59.5 157q0 72 36 134.5t100 78.5q-91 57 -91 151
q0 74 54 129t146 55q64 0 104.5 -30t40.5 -94q0 -37 -13.5 -62t-38.5 -25t-51 25q14 4 22.5 24.5t8.5 42.5q0 34 -19.5 47t-44.5 13q-42 0 -63 -31t-21 -78q0 -58 34 -103.5t99 -62.5q-61 -14 -96.5 -74.5t-35.5 -128.5q0 -59 30.5 -98t89.5 -39q52 0 100.5 28t63.5 74z" />
    <glyph glyph-name="eogonek" unicode="&#x119;" horiz-adv-x="383" 
d="M303 -61q0 -29 14.5 -51t38.5 -22q8 0 17.5 4t15 8t15 11.5t13.5 10.5q1 -14 4 -31q-2 -2 -10 -12t-12.5 -14.5t-13.5 -12.5t-16.5 -12t-19.5 -7.5t-24 -3.5q-44 0 -70.5 29.5t-26.5 63.5q0 50 45 97q-18 -3 -41 -3q-93 0 -146 56t-53 178q0 47 10 92t31 89.5t63 72
t99 27.5q38 0 65 -10t40 -23t20.5 -33.5t8.5 -32t1 -27.5q0 -73 -54.5 -124.5t-134.5 -56.5q10 -75 30 -99.5t66 -24.5q54 0 88.5 25.5t66.5 75.5h34q-17 -44 -40.5 -78t-44 -51.5t-39 -33.5t-29.5 -34t-11 -43zM293 388q0 68 -37 68t-57 -62t-20 -144q49 3 81.5 43.5
t32.5 94.5z" />
    <glyph glyph-name="Gbreve" unicode="&#x11e;" horiz-adv-x="593" 
d="M439 419l118 -1v-416q0 -40 -10 -75t-32 -66.5t-63.5 -49.5t-97.5 -18q-88 0 -131 41t-43 101q0 52 30 92.5t92 40.5q87 0 87 -102q-20 21 -50 21q-36 0 -52.5 -17.5t-16.5 -43.5q0 -33 21.5 -58t58.5 -25q35 0 55.5 25.5t20.5 77.5v248q-48 -85 -151 -85
q-105 0 -173.5 84t-68.5 227q0 146 75 238t212 92q89 0 154 -39.5t65 -118.5q0 -68 -55 -68q-46 0 -74 26q13 4 20.5 24.5t7.5 39.5q0 11 -3 23.5t-11 27t-26 23.5t-43 9q-77 0 -122.5 -79.5t-45.5 -192.5q0 -109 41.5 -169t94.5 -60q50 0 81 57.5t35 165.5zM389 953h76
q0 -64 -53.5 -99.5t-127.5 -35.5t-128 35.5t-54 99.5h79q0 -43 31 -66.5t73 -23.5t73 23.5t31 66.5z" />
    <glyph glyph-name="gbreve" unicode="&#x11f;" horiz-adv-x="507" 
d="M314 500h144v-464q44 17 66.5 48.5t29.5 94.5h42q-8 -89 -45 -129.5t-93 -58.5v-71q0 -51 -12.5 -86.5t-34.5 -52.5t-44 -24t-48 -7q-59 0 -99 31t-40 82q0 88 134 133v84q-39 -66 -113 -66q-71 0 -122.5 54.5t-51.5 166.5q0 48 10.5 93t32.5 86t62.5 66t94.5 25
q68 0 87 -50v45zM266 443q-31 0 -53 -32.5t-31 -77t-9 -93.5q0 -129 66 -129q31 0 51 20.5t24 53.5v223q-4 13 -16.5 24t-31.5 11zM366 703h76q0 -64 -53.5 -99.5t-127.5 -35.5t-128 35.5t-54 99.5h79q0 -43 31 -66.5t73 -23.5t73 23.5t31 66.5zM233 -129q0 -18 13 -30.5
t27 -12.5q19 0 30 23t11 66v29q-81 -33 -81 -75z" />
    <glyph glyph-name="dotlessi" unicode="&#x131;" horiz-adv-x="267" 
d="M47 500h144v-340q0 -41 11 -55t41 -14q29 0 48.5 25t22.5 63h42q-6 -47 -21 -82t-32.5 -54t-40 -30.5t-40 -15t-36.5 -3.5q-139 0 -139 155v351z" />
    <glyph glyph-name="Lslash" unicode="&#x141;" horiz-adv-x="494" 
d="M357 738v-272l103 78l9 -61l-112 -82v-382q38 -8 164 -68t199 -60q44 0 79 16q1 -6 1 -18q0 -51 -29.5 -95t-81.5 -44q-41 0 -99.5 35.5t-109.5 78t-118.5 78t-126.5 35.5q-15 0 -23 -1v319l-54 -39l-9 53l63 47v312q-99 -49 -99 -172q0 -15 1.5 -28t4 -24t5.5 -19
t7 -15.5t6.5 -11.5t6.5 -9t4 -6q-62 0 -96 29t-34 87q0 99 90.5 170t206.5 71q16 0 42 -2z" />
    <glyph glyph-name="lslash" unicode="&#x142;" horiz-adv-x="267" 
d="M135 152h4v-44l104 77l9 -61l-113 -83v-230q0 -29 -21 -49.5t-52 -20.5q-30 0 -47 18.5t-17 47.5q0 40 32.5 86t88.5 82q9 -5 9 -14l-49 -70q0 -10 12 -17q-48 0 -48 155l-49 -36l-12 58l61 45v328z" />
    <glyph glyph-name="Nacute" unicode="&#x143;" horiz-adv-x="718" 
d="M581 748h91v-748h-138l-226 498v-498h-96v678q-96 -46 -96 -162q0 -24 2.5 -43t7 -32t8 -20t10 -16t8.5 -12q-67 0 -99.5 31.5t-32.5 101.5q0 90 67 157t188 67q41 0 73 -14l233 -530v542zM414 811l51 189h105l-81 -189h-75z" />
    <glyph glyph-name="nacute" unicode="&#x144;" 
d="M302 302q0 111 -52 111q-51 0 -59 -92v-321h-144v500h144v-52q37 56 107 56q140 0 140 -184q0 -18 -2 -72t-2 -71q0 -46 10 -66t39 -20q32 0 45.5 21.5t23.5 66.5h42q-8 -58 -23.5 -96.5t-37 -57t-42 -25t-45.5 -6.5q-146 0 -146 187q0 12 1 60t1 61zM229 561l51 189h105
l-81 -189h-75z" />
    <glyph glyph-name="Ohungarumlaut" unicode="&#x150;" horiz-adv-x="697" 
d="M391 656q-39 -26 -61 -131t-22 -213q0 -68 10 -116.5t26.5 -71t32 -32t32.5 -9.5q57 0 89 96.5t32 233.5q0 88 -14 148t-41 90t-57 41.5t-71 11.5q-101 0 -168 -58.5t-67 -160.5q0 -51 27 -92q-122 0 -122 107q0 102 102 176t246 74q68 0 121 -19t87 -52t56.5 -80
t31.5 -99t9 -113q0 -72 -13 -136.5t-41.5 -124.5t-84 -96t-131.5 -36q-107 0 -174 75t-67 242q0 59 9 117t28.5 113t57 89t86.5 34q26 0 51 -8zM328 811l51 189h95l-81 -189h-65zM458 811l51 189h95l-81 -189h-65z" />
    <glyph glyph-name="ohungarumlaut" unicode="&#x151;" horiz-adv-x="439" 
d="M244 505q140 0 163 -158h7q27 0 67.5 18t69.5 42l15 -27q-40 -59 -155 -82q1 -9 1 -27q0 -126 -46.5 -201.5t-148.5 -75.5q-82 0 -134.5 54t-52.5 172q0 48 9.5 93.5t32 91t67 73t105.5 27.5zM245 88q41 0 61 52t20 139v15q-39 8 -39 50q0 39 25 47q-17 54 -53 54
q-40 0 -61 -66.5t-21 -148.5q0 -142 68 -142zM163 561l51 189h95l-81 -189h-65zM293 561l51 189h95l-81 -189h-65z" />
    <glyph glyph-name="OE" unicode="&#x152;" horiz-adv-x="870" 
d="M669 419h132v-74h-132q-9 -150 -65 -239h246v-106h-386q-38 -6 -64 -6q-107 0 -174 75t-67 242q0 59 9 117t28.5 113t57 89t86.5 34q26 0 51 -8q-39 -26 -61 -131t-22 -213q0 -68 10 -116.5t26.5 -71t32 -32t32.5 -9.5q57 0 89 96.5t32 233.5q0 88 -14 148t-41 90
t-57 41.5t-71 11.5q-101 0 -168 -58.5t-67 -160.5q0 -51 27 -92q-122 0 -122 107q0 102 102 176t246 74q66 0 117 -18q46 18 123 18q17 0 75.5 -6t92.5 -6q53 0 88 12q0 -2 -2 -22.5t-3.5 -28t-6.5 -24.5t-11.5 -24t-18.5 -14t-28 -7q-43 0 -115.5 16.5t-89.5 18.5
q76 -85 83 -246z" />
    <glyph glyph-name="oe" unicode="&#x153;" horiz-adv-x="668" 
d="M234 510q94 0 137 -85q45 84 135 84q74 0 114 -33.5t40 -98.5q0 -72 -57.5 -119t-129.5 -57q5 -72 36 -100.5t71 -28.5q39 0 82.5 39.5t57.5 92.5h45q-30 -88 -89.5 -146t-149.5 -58q-103 0 -156 91q-23 -47 -59 -72t-77 -25q-116 0 -159 62.5t-43 200.5q0 125 56 189
t146 64zM260 91q35 0 52 39t17 101q0 26 -3 53q-25 0 -39 17t-14 41q0 44 30 57q-16 52 -52 52q-30 0 -50 -35t-26.5 -77t-6.5 -88q0 -93 24 -126.5t68 -33.5zM600 380q0 23 -11.5 49.5t-37.5 26.5q-36 0 -56 -64.5t-23 -142.5q58 1 93 40.5t35 90.5z" />
    <glyph glyph-name="Sacute" unicode="&#x15a;" horiz-adv-x="529" 
d="M456 624q0 -38 -17 -61.5t-47 -23.5q-28 0 -50 21q29 20 29 68q0 32 -21 51.5t-60 19.5q-85 0 -85 -92q0 -39 17.5 -70t45 -51.5t61 -40t67.5 -41.5t61.5 -48.5t45 -68.5t17.5 -95q0 -107 -65.5 -158.5t-175.5 -51.5q-104 0 -175 44.5t-71 139.5q0 67 35 108t85 41
q29 0 57.5 -15.5t41.5 -50.5q-101 0 -101 -90q0 -49 30.5 -73t81.5 -24q50 0 75 24t25 78q0 49 -21.5 88t-54.5 63t-70.5 50.5t-70.5 51t-54.5 64.5t-21.5 91q0 85 57.5 131.5t158.5 46.5q23 0 44 -3t53.5 -14t52.5 -39t20 -70zM232 811l51 189h105l-81 -189h-75z" />
    <glyph glyph-name="sacute" unicode="&#x15b;" horiz-adv-x="382" 
d="M429 179h42q-45 -68 -131 -128q-47 -57 -140 -57q-81 0 -128.5 46.5t-47.5 101.5q0 54 37 73q60 157 76 296l144 20q16 -61 34.5 -129t26 -96t15 -62t9.5 -57t2 -52v-6q36 25 61 50zM140 170q0 -16 -9.5 -28t-25.5 -12q-21 0 -30 13q15 -70 76 -70q71 0 71 70q0 21 -1 37
t-7 41.5t-9.5 39.5t-16.5 60.5t-21 75.5q-11 -53 -55 -185q28 -13 28 -42zM153 561l51 189h105l-81 -189h-75z" />
    <glyph glyph-name="Scaron" unicode="&#x160;" horiz-adv-x="529" 
d="M456 624q0 -38 -17 -61.5t-47 -23.5q-28 0 -50 21q29 20 29 68q0 32 -21 51.5t-60 19.5q-85 0 -85 -92q0 -39 17.5 -70t45 -51.5t61 -40t67.5 -41.5t61.5 -48.5t45 -68.5t17.5 -95q0 -107 -65.5 -158.5t-175.5 -51.5q-104 0 -175 44.5t-71 139.5q0 67 35 108t85 41
q29 0 57.5 -15.5t41.5 -50.5q-101 0 -101 -90q0 -49 30.5 -73t81.5 -24q50 0 75 24t25 78q0 49 -21.5 88t-54.5 63t-70.5 50.5t-70.5 51t-54.5 64.5t-21.5 91q0 85 57.5 131.5t158.5 46.5q23 0 44 -3t53.5 -14t52.5 -39t20 -70zM169 1000h32l77 -80l140 80h44l-172 -189h-21
z" />
    <glyph glyph-name="scaron" unicode="&#x161;" horiz-adv-x="382" 
d="M429 179h42q-45 -68 -131 -128q-47 -57 -140 -57q-81 0 -128.5 46.5t-47.5 101.5q0 54 37 73q60 157 76 296l144 20q16 -61 34.5 -129t26 -96t15 -62t9.5 -57t2 -52v-6q36 25 61 50zM140 170q0 -16 -9.5 -28t-25.5 -12q-21 0 -30 13q15 -70 76 -70q71 0 71 70q0 21 -1 37
t-7 41.5t-9.5 39.5t-16.5 60.5t-21 75.5q-11 -53 -55 -185q28 -13 28 -42zM74 750h32l77 -80l140 80h44l-172 -189h-21z" />
    <glyph glyph-name="Uhungarumlaut" unicode="&#x170;" horiz-adv-x="771" 
d="M584 748h142v-538q0 -103 -71 -160t-168 -57t-168 57t-71 160v482q-65 -19 -100.5 -66t-35.5 -116q0 -23 2 -41t7 -31t8.5 -19.5t10 -15.5t7.5 -10q-130 0 -130 120q0 96 96 166.5t229 70.5q23 0 49 -5v-545q0 -52 28.5 -80.5t67.5 -28.5q40 0 68.5 28.5t28.5 80.5v548z
M525 811l51 189h95l-81 -189h-65zM395 811l51 189h95l-81 -189h-65z" />
    <glyph glyph-name="uhungarumlaut" unicode="&#x171;" 
d="M295 500h144v-340q0 -38 10 -53.5t36 -15.5q68 0 77 88h42q-6 -47 -21 -82t-32.5 -54t-40 -30.5t-40.5 -15t-37 -3.5q-98 0 -119 95q-37 -95 -133 -95q-134 0 -134 155v351h144v-340q0 -69 41 -69q27 0 45 25t18 63v321zM262 561l51 189h95l-81 -189h-65zM132 561l51 189
h95l-81 -189h-65z" />
    <glyph glyph-name="Ydieresis" unicode="&#x178;" horiz-adv-x="649" 
d="M532 0h-160v308l-151 375q-52 -21 -80.5 -66t-28.5 -107q0 -29 4.5 -51.5t9.5 -32t12.5 -20t8.5 -13.5q-130 0 -130 121q0 94 91 165t206 71q16 0 42 -2l143 -359l96 356h66l-129 -437v-308zM514 884q0 25 18 43t43 18t43 -18t18 -43t-18 -43t-43 -18t-43 17.5t-18 43.5z
M334 884q0 25 18 43t43 18t43 -18t18 -43t-18 -43t-43 -18t-43 17.5t-18 43.5z" />
    <glyph glyph-name="Zacute" unicode="&#x179;" horiz-adv-x="556" 
d="M470 85q-9 0 -17.5 10.5t-8.5 32.5q0 23 14.5 34.5t34.5 11.5q31 0 48.5 -23t17.5 -50q0 -39 -28 -70t-78 -31h-401l282 696q-9 0 -65 1t-75 1q-87 0 -87 -20q23 -9 23 -39q0 -20 -12.5 -36t-33.5 -16q-32 0 -49 23.5t-17 50.5q0 37 26.5 63t76.5 26h393l-280 -685
q12 0 46 -1t51 -1q128 0 139 22zM264 811l51 189h105l-81 -189h-75z" />
    <glyph glyph-name="zacute" unicode="&#x17a;" horiz-adv-x="428" 
d="M365 91q-11 1 -17.5 8.5t-6.5 17.5q0 15 12 26.5t35 11.5q27 0 41.5 -18t14.5 -44q0 -35 -27 -64t-74 -29h-276l196 446h-74q-51 0 -51 -14q0 -3 2.5 -4t6 -2t6 -8t2.5 -21q0 -20 -13 -31t-31 -11q-22 0 -39.5 14.5t-17.5 40.5q0 33 26 61.5t70 28.5h275l-191 -423
q5 0 23 -2t35.5 -3t29.5 -1q43 0 43 20zM205 561l51 189h105l-81 -189h-75z" />
    <glyph glyph-name="Zdotaccent" unicode="&#x17b;" horiz-adv-x="556" 
d="M214 883q0 26 18.5 45t44.5 19t45 -19t19 -45t-19 -44.5t-45 -18.5t-44.5 18.5t-18.5 44.5zM470 85q-9 0 -17.5 10.5t-8.5 32.5q0 23 14.5 34.5t34.5 11.5q31 0 48.5 -23t17.5 -50q0 -39 -28 -70t-78 -31h-401l282 696q-9 0 -65 1t-75 1q-87 0 -87 -20q23 -9 23 -39
q0 -20 -12.5 -36t-33.5 -16q-32 0 -49 23.5t-17 50.5q0 37 26.5 63t76.5 26h393l-280 -685q12 0 46 -1t51 -1q128 0 139 22z" />
    <glyph glyph-name="zdotaccent" unicode="&#x17c;" horiz-adv-x="428" 
d="M178 634q0 26 18.5 45t44.5 19t45 -19t19 -45t-19 -44.5t-45 -18.5t-44.5 18.5t-18.5 44.5zM365 91q-11 1 -17.5 8.5t-6.5 17.5q0 15 12 26.5t35 11.5q27 0 41.5 -18t14.5 -44q0 -35 -27 -64t-74 -29h-276l196 446h-74q-51 0 -51 -14q0 -3 2.5 -4t6 -2t6 -8t2.5 -21
q0 -20 -13 -31t-31 -11q-22 0 -39.5 14.5t-17.5 40.5q0 33 26 61.5t70 28.5h275l-191 -423q5 0 23 -2t35.5 -3t29.5 -1q43 0 43 20z" />
    <glyph glyph-name="Zcaron" unicode="&#x17d;" horiz-adv-x="556" 
d="M470 85q-9 0 -17.5 10.5t-8.5 32.5q0 23 14.5 34.5t34.5 11.5q31 0 48.5 -23t17.5 -50q0 -39 -28 -70t-78 -31h-401l282 696q-9 0 -65 1t-75 1q-87 0 -87 -20q23 -9 23 -39q0 -20 -12.5 -36t-33.5 -16q-32 0 -49 23.5t-17 50.5q0 37 26.5 63t76.5 26h393l-280 -685
q12 0 46 -1t51 -1q128 0 139 22zM185 1000h32l77 -80l140 80h44l-172 -189h-21z" />
    <glyph glyph-name="zcaron" unicode="&#x17e;" horiz-adv-x="428" 
d="M365 91q-11 1 -17.5 8.5t-6.5 17.5q0 15 12 26.5t35 11.5q27 0 41.5 -18t14.5 -44q0 -35 -27 -64t-74 -29h-276l196 446h-74q-51 0 -51 -14q0 -3 2.5 -4t6 -2t6 -8t2.5 -21q0 -20 -13 -31t-31 -11q-22 0 -39.5 14.5t-17.5 40.5q0 33 26 61.5t70 28.5h275l-191 -423
q5 0 23 -2t35.5 -3t29.5 -1q43 0 43 20zM143 750h32l77 -80l140 80h44l-172 -189h-21z" />
    <glyph glyph-name="florin" unicode="&#x192;" horiz-adv-x="303" 
d="M229 460v-540q0 -51 -13 -86.5t-35 -52.5t-43.5 -24t-45.5 -7q-62 0 -106 37.5t-44 94.5q0 49 35 75.5t108 50.5v452h-60v40h60v79q0 52 13 87.5t37 52.5t48.5 23.5t56.5 6.5q76 0 107 -35t31 -114h-47q0 61 -46 61q-56 0 -56 -82v-79h74v-40h-74zM-5 -110
q0 -24 16 -37.5t33 -13.5q41 0 41 78v58q-90 -32 -90 -85z" />
    <glyph glyph-name="circumflex" unicode="&#x2c6;" horiz-adv-x="293" 
d="M174 561h-32l-77 80l-140 -80h-44l172 189h21z" />
    <glyph glyph-name="caron" unicode="&#x2c7;" horiz-adv-x="294" 
d="M-59 750h32l77 -80l140 80h44l-172 -189h-21z" />
    <glyph glyph-name="breve" unicode="&#x2d8;" horiz-adv-x="431" 
d="M206 703h76q0 -64 -53.5 -99.5t-127.5 -35.5t-128 35.5t-54 99.5h79q0 -43 31 -66.5t73 -23.5t73 23.5t31 66.5z" />
    <glyph glyph-name="ring" unicode="&#x2da;" horiz-adv-x="156" 
d="M-51 713q39 0 57 -23t18 -55q0 -35 -20 -59t-58 -24q-37 0 -58.5 24t-21.5 57t22 56.5t61 23.5zM-13 632q0 48 -39 48q-18 0 -30 -12t-12 -35q0 -46 42 -46q39 0 39 45z" />
    <glyph glyph-name="ogonek" unicode="&#x2db;" horiz-adv-x="291" 
d="M121 5h70q-18 -8 -32 -30t-14 -45t14 -43.5t37 -20.5q8 0 17.5 4t14 7t16.5 12.5t13 10.5l4 -31q-43 -62 -97 -62q-43 0 -69.5 29.5t-26.5 64.5q0 54 53 104z" />
    <glyph glyph-name="tilde" unicode="&#x2dc;" horiz-adv-x="403" 
d="M290 670l7 -1q-2 -37 -43.5 -68.5t-96.5 -31.5q-34 0 -92 18.5t-84 18.5q-38 0 -61 -26l-6 2q28 98 146 98q38 0 91.5 -16.5t80.5 -16.5q41 0 58 23z" />
    <glyph glyph-name="hungarumlaut" unicode="&#x2dd;" horiz-adv-x="436" 
d="M1 561l51 189h95l-81 -189h-65zM131 561l51 189h95l-81 -189h-65z" />
    <glyph glyph-name="endash" unicode="&#x2013;" horiz-adv-x="379" 
d="M319 301l1 -79h-261v79h260z" />
    <glyph glyph-name="emdash" unicode="&#x2014;" horiz-adv-x="469" 
d="M409 301l1 -79h-351v79h350z" />
    <glyph glyph-name="quoteleft" unicode="&#x2018;" horiz-adv-x="209" 
d="M171 584q0 -29 -21 -49.5t-52 -20.5q-30 0 -47 18.5t-17 47.5q0 40 32.5 86t88.5 82q9 -5 9 -14l-49 -70q0 -10 12 -17q44 -26 44 -63z" />
    <glyph glyph-name="quoteright" unicode="&#x2019;" horiz-adv-x="208" 
d="M42 678q0 29 21 49.5t52 20.5q30 0 47 -18.5t17 -47.5q0 -40 -32.5 -86t-88.5 -82q-9 5 -9 14l49 70q0 10 -12 17q-44 26 -44 63z" />
    <glyph glyph-name="quotesinglbase" unicode="&#x201a;" horiz-adv-x="216" 
d="M38 76q0 29 21 49.5t52 20.5q30 0 47 -18.5t17 -47.5q0 -40 -32.5 -86t-88.5 -82q-9 5 -9 14l49 70q0 10 -12 17q-44 26 -44 63z" />
    <glyph glyph-name="quotedblleft" unicode="&#x201c;" horiz-adv-x="429" 
d="M391 584q0 -29 -21 -49.5t-52 -20.5q-30 0 -47 18.5t-17 47.5q0 40 32.5 86t88.5 82q9 -5 9 -14l-49 -70q0 -10 12 -17q44 -26 44 -63zM171 584q0 -29 -21 -49.5t-52 -20.5q-30 0 -47 18.5t-17 47.5q0 40 32.5 86t88.5 82q9 -5 9 -14l-49 -70q0 -10 12 -17q44 -26 44 -63
z" />
    <glyph glyph-name="quotedblright" unicode="&#x201d;" horiz-adv-x="428" 
d="M42 678q0 29 21 49.5t52 20.5q30 0 47 -18.5t17 -47.5q0 -40 -32.5 -86t-88.5 -82q-9 5 -9 14l49 70q0 10 -12 17q-44 26 -44 63zM262 678q0 29 21 49.5t52 20.5q30 0 47 -18.5t17 -47.5q0 -40 -32.5 -86t-88.5 -82q-9 5 -9 14l49 70q0 10 -12 17q-44 26 -44 63z" />
    <glyph glyph-name="quotedblbase" unicode="&#x201e;" horiz-adv-x="436" 
d="M38 76q0 29 21 49.5t52 20.5q30 0 47 -18.5t17 -47.5q0 -40 -32.5 -86t-88.5 -82q-9 5 -9 14l49 70q0 10 -12 17q-44 26 -44 63zM258 76q0 29 21 49.5t52 20.5q30 0 47 -18.5t17 -47.5q0 -40 -32.5 -86t-88.5 -82q-9 5 -9 14l49 70q0 10 -12 17q-44 26 -44 63z" />
    <glyph glyph-name="dagger" unicode="&#x2020;" horiz-adv-x="411" 
d="M239 750v-322h151v-112h-151v-566h-72v566h-146v112h146v322h72z" />
    <glyph glyph-name="daggerdbl" unicode="&#x2021;" horiz-adv-x="429" 
d="M248 750v-322h151v-112h-151v-103h151v-112h-151v-351h-72v351h-146v112h146v103h-146v112h146v322h72z" />
    <glyph glyph-name="bullet" unicode="&#x2022;" horiz-adv-x="277" 
d="M42 267q0 40 28 68.5t68 28.5t68.5 -28.5t28.5 -68.5t-28.5 -68t-68.5 -28t-68 28t-28 68z" />
    <glyph glyph-name="ellipsis" unicode="&#x2026;" horiz-adv-x="717" 
d="M39 75q0 33 23 56.5t56 23.5t56.5 -23.5t23.5 -56.5t-23.5 -56t-56.5 -23t-56 23t-23 56zM274 75q0 33 23 56.5t56 23.5t56.5 -23.5t23.5 -56.5t-23.5 -56t-56.5 -23t-56 23t-23 56zM519 75q0 33 23 56.5t56 23.5t56.5 -23.5t23.5 -56.5t-23.5 -56t-56.5 -23t-56 23
t-23 56z" />
    <glyph glyph-name="perthousand" unicode="&#x2030;" horiz-adv-x="935" 
d="M519 750l-315 -750h-72l315 750h72zM151 702q111 0 111 -158q0 -65 -27.5 -117.5t-80.5 -52.5q-62 0 -94.5 38.5t-32.5 128.5q0 70 32.5 115.5t91.5 45.5zM99 549q0 -138 50 -138q26 0 40 34.5t14 86.5q0 50 -8 82t-18 42.5t-22 10.5q-20 0 -38 -32t-18 -86zM501 328
q111 0 111 -158q0 -65 -27.5 -117.5t-80.5 -52.5q-62 0 -94.5 38.5t-32.5 128.5q0 70 32.5 115.5t91.5 45.5zM449 175q0 -138 50 -138q26 0 40 34.5t14 86.5q0 50 -8 82t-18 42.5t-22 10.5q-20 0 -38 -32t-18 -86zM801 328q111 0 111 -158q0 -65 -27.5 -117.5t-80.5 -52.5
q-62 0 -94.5 38.5t-32.5 128.5q0 70 32.5 115.5t91.5 45.5zM749 175q0 -138 50 -138q26 0 40 34.5t14 86.5q0 50 -8 82t-18 42.5t-22 10.5q-20 0 -38 -32t-18 -86z" />
    <glyph glyph-name="guilsinglleft" unicode="&#x2039;" horiz-adv-x="306" 
d="M196 449l51 -45l-143 -151l167 -140l-31 -44l-219 185z" />
    <glyph glyph-name="guilsinglright" unicode="&#x203a;" horiz-adv-x="309" 
d="M111 69l-51 45l143 151l-167 140l31 44l219 -185z" />
    <glyph glyph-name="Euro" unicode="&#x20ac;" horiz-adv-x="618" 
d="M255 334h200l-3 -50h-194q13 -113 60.5 -156.5t132.5 -43.5q96 0 136 40l8 -29q-56 -101 -203 -101q-48 0 -92 13.5t-86 44.5t-71.5 90.5t-40.5 141.5h-77l3 50h69q-1 15 -1 46v19h-70l3 50h70q12 137 75.5 219t185.5 82q86 0 145 -40.5t59 -118.5q0 -67 -54 -67
q-35 0 -63 26q13 4 21 25.5t8 39.5q0 30 -21 59t-61 29q-58 0 -93.5 -69.5t-44.5 -184.5h200l-3 -50h-199v-24q0 -28 1 -41z" />
    <glyph glyph-name="trademark" unicode="&#x2122;" horiz-adv-x="495" 
d="M445 433h-34l-16 151l-27 -151h-49l-26 154l-14 -154h-24l22 220h40l34 -173l32 174h47zM172 628v-195h-44v199q-49 -2 -49 -45q0 -10 1.5 -17t2.5 -9.5t3.5 -5.5t3.5 -4q-40 0 -40 43q0 28 21.5 46t65.5 18q4 0 31.5 -2.5t44.5 -2.5q26 0 36 5q0 -39 -19 -39
q-13 0 -58 9z" />
    <glyph glyph-name="minus" unicode="&#x2212;" horiz-adv-x="468" 
d="M409 301v-79h-350v79h350z" />
    <glyph glyph-name="A.salt" horiz-adv-x="530" 
d="M484 0h-144v366h-155q-33 -159 -33 -303q0 -140 39 -177q-30 2 -48 4t-43 12t-39 26t-24 47t-10 75q0 67 18 157t52.5 184.5t79 175.5t104 132.5t121.5 51.5q42 0 82 -14v-737zM197 418h143v264q-87 -46 -143 -264z" />
    <glyph glyph-name="B.salt" horiz-adv-x="673" 
d="M213 636l144 20v-222h7q50 0 80 41.5t30 99.5q0 22 -5.5 41.5t-19.5 41t-46 34t-78 12.5q-95 0 -153 -53t-58 -150q0 -35 7.5 -58.5t17 -36t9.5 -13.5q-130 0 -130 116q0 100 90.5 170.5t218.5 70.5q115 0 184.5 -52t69.5 -126q0 -38 -20 -75.5t-57 -63.5
q78 -11 118.5 -67t40.5 -133q0 -98 -50 -179.5t-126 -81.5q-63 0 -130 57v-29h-144v636zM423 64q42 0 66.5 51t24.5 117q0 64 -26.5 109t-85.5 45q-18 0 -45 -3v-290q35 -29 66 -29z" />
    <glyph glyph-name="E.salt" horiz-adv-x="586" 
d="M356 419h153v-74h-153v-244h222v-101h-368v668q-46 -3 -70.5 -32.5t-24.5 -97.5q0 -54 8.5 -85t20 -45t11.5 -15q-68 0 -101 32.5t-33 109.5q0 93 71 154t221 61q17 0 75.5 -6t92.5 -6q53 0 88 12q1 -7 1 -20q0 -96 -112 -96q-40 0 -102 11v-226z" />
    <glyph glyph-name="N.salt" horiz-adv-x="703" 
d="M357 748v-94q38 96 127 96q71 0 114.5 -59.5t43.5 -170.5q0 -48 -5 -175t-5 -162q0 -49 12 -70.5t40 -21.5q30 0 43 21t23 67h42q-7 -58 -23.5 -97.5t-38.5 -57t-41.5 -24t-43.5 -6.5q-147 0 -147 198q0 41 3 158.5t3 155.5q0 47 -7 80t-19 47.5t-22 20t-21 5.5
q-30 0 -54 -37t-24 -76v-546h-157v671q-87 -50 -87 -161q0 -42 7 -66.5t17 -36.5t11 -14q-130 0 -130 121q0 94 91 165t206 71q16 0 42 -2z" />
    <glyph glyph-name="a.end" horiz-adv-x="535" 
d="M315 500h144v-340q0 -41 11 -55t41 -14q12 0 20 4q-9 -58 -26 -79.5t-58 -21.5q-91 0 -112 92q-42 -92 -129 -92q-73 0 -124.5 56t-51.5 176q0 48 10.5 95.5t32.5 89.5t60 68t88 26q75 0 94 -53v48zM266 443q-44 0 -67 -65t-23 -143q0 -50 7.5 -82t21 -44t22.5 -15t23 -3
q24 0 44.5 23.5t20.5 63.5v227q-14 38 -49 38z" />
    <glyph glyph-name="a_x.end" horiz-adv-x="913" 
d="M315 500h144v-340q0 -20 2.5 -33t15.5 -24.5t36 -11.5q38 0 77 27.5t63 67.5l-124 314h141l85 -215q62 89 62 146q0 17 -5 24q-12 -2 -17 -2q-31 0 -45.5 20.5t-14.5 43.5q0 18 13 28.5t34 10.5q40 0 65.5 -34t25.5 -80q0 -78 -96 -213l20 -50q20 -50 35 -69t46 -19
q21 0 31 6q1 -7 1 -20q0 -41 -25 -62t-64 -21q-47 0 -79.5 31t-64.5 103q-78 -134 -207 -134q-42 0 -80 25.5t-54 67.5q-42 -93 -130 -93q-73 0 -124.5 56t-51.5 176q0 48 10.5 95.5t32.5 89.5t60 68t88 26q75 0 94 -53v48zM315 179v225q-11 39 -49 39q-44 0 -67 -65
t-23 -143q0 -50 7.5 -82t21 -44t22.5 -15t23 -3q24 0 44.5 24t20.5 64z" />
    <glyph glyph-name="aacute.end" horiz-adv-x="536" 
d="M315 500h144v-340q0 -41 11 -55t41 -14q12 0 20 4q-9 -58 -26 -79.5t-58 -21.5q-91 0 -112 92q-42 -92 -129 -92q-73 0 -124.5 56t-51.5 176q0 48 10.5 95.5t32.5 89.5t60 68t88 26q75 0 94 -53v48zM266 443q-44 0 -67 -65t-23 -143q0 -50 7.5 -82t21 -44t22.5 -15t23 -3
q24 0 44.5 23.5t20.5 63.5v227q-14 38 -49 38zM220 561l51 189h105l-81 -189h-75z" />
    <glyph glyph-name="b_s.end" horiz-adv-x="810" 
d="M46 149l1 531l144 20v-225q43 30 78 30q57 0 97.5 -39t56.5 -112q63 19 114 157l144 20q26 -101 55 -189t39.5 -127.5t10.5 -85.5q0 -69 -42.5 -102t-102.5 -33q-84 0 -127 44t-43 111q0 33 15.5 53t38.5 20q62 0 62 -49q0 -16 -11 -27t-28 -11q-21 0 -30 13
q16 -75 74 -75q25 0 37 13t12 43q0 40 -8.5 72t-32.5 100t-44 138q-46 -102 -127 -134q2 -24 2 -37q0 -39 -5.5 -74.5t-20.5 -73t-38.5 -64.5t-63.5 -44.5t-91 -17.5q-82 0 -124 41.5t-42 113.5zM328 259q0 13 -2 37q-27 14 -27 55q0 18 8 29q-24 52 -64 52q-37 0 -52 -18
v-264q0 -59 50 -59q33 0 53.5 27.5t27 62.5t6.5 78z" />
    <glyph glyph-name="c.end" horiz-adv-x="383" 
d="M281 345q3 16 3 30q0 77 -41 77q-37 0 -57 -67t-20 -152q0 -89 24 -121t77 -32q54 0 96 57q-2 -72 -32.5 -107.5t-110.5 -35.5q-90 0 -143 55.5t-53 174.5q0 37 5 73t19 74.5t36 67.5t59.5 47.5t85.5 18.5q70 0 101 -34t31 -78q0 -27 -10.5 -43.5t-28.5 -16.5
q-20 0 -41 12z" />
    <glyph glyph-name="circunflex" horiz-adv-x="293" 
d="M174 561h-32l-77 80l-140 -80h-44l172 189h21z" />
    <glyph glyph-name="d.end" horiz-adv-x="534" 
d="M315 680l144 20v-540q0 -41 11 -55t41 -14q12 0 20 4q-9 -58 -26 -79.5t-58 -21.5q-91 0 -112 92q-42 -92 -129 -92q-73 0 -124.5 56t-51.5 176q0 48 10.5 95.5t32.5 89.5t60 68t88 26q75 0 94 -53v228zM266 443q-44 0 -67 -65t-23 -143q0 -50 7.5 -82t21 -44t22.5 -15
t23 -3q24 0 44.5 23.5t20.5 63.5v227q-14 38 -49 38z" />
    <glyph glyph-name="dotlessi.end" horiz-adv-x="278" 
d="M47 500h144v-340q0 -41 11 -55t41 -14q19 0 31 6q1 -7 1 -20q0 -45 -27 -64t-62 -19q-139 0 -139 155v351z" />
    <glyph glyph-name="e.end" horiz-adv-x="397" 
d="M262 89q27 0 56.5 15.5t50.5 37.5q0 -81 -37 -114.5t-104 -33.5q-92 0 -145 56t-53 176q0 46 10 91.5t31.5 89.5t63.5 71t99 27q38 0 65 -10.5t40 -23t20 -33t8 -32t1 -27.5q0 -72 -55.5 -122t-135.5 -55q9 -113 85 -113zM290 385q0 67 -37 67q-33 0 -53.5 -63.5
t-23.5 -138.5q50 4 82 43t32 92z" />
    <glyph glyph-name="e_x.end" horiz-adv-x="785" 
d="M394 500h142l84 -213q77 106 77 153q0 9 -1 14q-4 0 -7.5 -1t-7.5 -1q-30 0 -46 17t-16 40q0 25 18.5 40t43.5 15q31 0 53.5 -23t22.5 -68q0 -93 -113 -247l19 -47q19 -50 34.5 -69t46.5 -19q21 0 31 6q1 -7 1 -20q0 -41 -25 -62t-64 -21q-47 0 -80.5 32t-66.5 106
q-48 -62 -125.5 -100t-160.5 -38q-97 0 -159 54.5t-62 177.5q0 45 10 90t31.5 89.5t63.5 72t99 27.5q38 0 65 -10.5t40 -23t20 -33t8 -32t1 -27.5q0 -72 -55.5 -122t-135.5 -55q11 -126 126 -126q56 0 115.5 30t95.5 83zM294 385q0 67 -38 67q-33 0 -53.5 -63.5
t-23.5 -138.5q50 4 82.5 43t32.5 92z" />
    <glyph glyph-name="eacute.end" horiz-adv-x="397" 
d="M262 89q27 0 56.5 15.5t50.5 37.5q0 -81 -37 -114.5t-104 -33.5q-92 0 -145 56t-53 176q0 46 10 91.5t31.5 89.5t63.5 71t99 27q38 0 65 -10.5t40 -23t20 -33t8 -32t1 -27.5q0 -72 -55.5 -122t-135.5 -55q9 -113 85 -113zM174 561l51 189h105l-81 -189h-75zM290 385
q0 67 -37 67q-33 0 -53.5 -63.5t-23.5 -138.5q50 4 82 43t32 92z" />
    <glyph glyph-name="f_u.end" horiz-adv-x="782" 
d="M191 500h267v-340q0 -69 41 -69q26 0 42.5 24.5t19.5 63.5v321h144v-340q0 -41 11 -55t41 -14q12 0 20 4q-9 -58 -26 -79.5t-58 -21.5q-92 0 -112 94q-39 -94 -133 -94q-134 0 -134 155v311h-123v-540q0 -51 -13 -86.5t-35 -52.5t-43.5 -24t-45.5 -7q-62 0 -106 37.5
t-44 94.5q0 49 35 75.5t108 50.5v571q0 50 13 86t36 53t45 24t48 7q67 0 106 -42t45 -107h-47q-6 33 -15 47t-31 14q-56 0 -56 -82v-79zM-43 -111q0 -23 16.5 -36.5t33.5 -13.5q41 0 41 78v58q-91 -32 -91 -86z" />
    <glyph glyph-name="fi.end" horiz-adv-x="544" 
d="M-43 -113q0 -26 17.5 -37t33.5 -11q17 0 29 19t12 59v58q-92 -31 -92 -88zM305 618q0 31 34 37q-9 40 -63 40q-82 0 -82 -113v-82h81v-40h-80v-540q0 -49 -12.5 -84t-34.5 -53t-44.5 -25.5t-49.5 -7.5q-63 0 -106.5 37.5t-43.5 92.5q0 51 36.5 78t108.5 50v526
q0 215 205 215q189 0 189 -130q0 -31 -20 -48.5t-48 -17.5t-49 17.5t-21 47.5zM314 500h144v-340q0 -41 11 -55t41 -14q19 0 31 6q1 -7 1 -20q0 -45 -27 -64t-62 -19q-139 0 -139 155v351z" />
    <glyph glyph-name="fl.end" horiz-adv-x="556" 
d="M471 680l1 -520q0 -41 11 -55t41 -14q20 0 30 6q2 -14 2 -21q0 -37 -24.5 -59.5t-64.5 -22.5q-139 0 -139 155v521q-42 16 -86 16q-51 0 -51 -76v-110h94v-40h-93v-543q0 -167 -144 -167q-55 0 -99.5 37t-44.5 94q0 50 36 76.5t108 50.5v574q0 167 144 167q42 0 93 -11
t88 -23t98 -35zM-43 -114q0 -19 15.5 -33t33.5 -14t30.5 18.5t12.5 59.5v58q-92 -33 -92 -89z" />
    <glyph glyph-name="g.end" horiz-adv-x="502" 
d="M314 500h144v-580q0 -51 -12.5 -86.5t-34.5 -52.5t-44 -24t-48 -7q-59 0 -99 31t-40 82q0 88 134 133v84q-39 -66 -113 -66q-71 0 -122.5 54.5t-51.5 166.5q0 48 10.5 93t32.5 86t62.5 66t94.5 25q68 0 87 -50v45zM266 443q-31 0 -53 -32.5t-31 -77t-9 -93.5
q0 -129 66 -129q31 0 51 20.5t24 53.5v223q-4 13 -16.5 24t-31.5 11zM233 -129q0 -18 13 -30.5t27 -12.5q19 0 30 23t11 66v29q-81 -33 -81 -75z" />
    <glyph glyph-name="h.end" horiz-adv-x="519" 
d="M302 304q0 109 -53 109q-26 0 -40.5 -26t-17.5 -66v-321h-144v680l144 20v-252q37 56 105 56q64 0 103 -42.5t39 -137.5q0 -23 -2 -76.5t-2 -71.5q0 -44 11.5 -64.5t41.5 -20.5q25 0 32 6q0 -103 -88 -103q-69 0 -100 50.5t-31 131.5q0 18 1 65t1 63z" />
    <glyph glyph-name="i.end" horiz-adv-x="278" 
d="M36 633q0 33 23 56.5t56 23.5t56.5 -23.5t23.5 -56.5t-23.5 -56t-56.5 -23t-56 23t-23 56zM47 500h144v-340q0 -41 11 -55t41 -14q19 0 31 6q1 -7 1 -20q0 -45 -27 -64t-62 -19q-139 0 -139 155v351z" />
    <glyph glyph-name="i_x.end" horiz-adv-x="652" 
d="M47 500h144v-340q0 -68 55 -68q37 0 76 26t63 67l-124 315h141l84 -213q77 106 77 153q0 9 -1 14q-4 0 -7.5 -1t-7.5 -1q-30 0 -46 17t-16 40q0 25 18.5 40t43.5 15q31 0 53.5 -23t22.5 -68q0 -93 -113 -247l19 -47q19 -49 35 -68.5t47 -19.5q19 0 31 6q1 -7 1 -20
q0 -41 -25 -62t-64 -21q-47 0 -80 31.5t-66 105.5q-41 -59 -102 -98t-126 -39q-61 0 -97 46t-36 139v321zM36 633q0 33 23 56.5t56 23.5t56.5 -23.5t23.5 -56.5t-23.5 -56t-56.5 -23t-56 23t-23 56z" />
    <glyph glyph-name="iacute.end" horiz-adv-x="278" 
d="M47 500h144v-340q0 -41 11 -55t41 -14q19 0 31 6q1 -7 1 -20q0 -45 -27 -64t-62 -19q-139 0 -139 155v351zM77 561l51 189h105l-81 -189h-75z" />
    <glyph glyph-name="ij.end" horiz-adv-x="502" 
d="M314 500l144 128v-580q0 -51 -12.5 -86t-34 -52.5t-44 -24.5t-48.5 -7q-59 0 -99 31t-40 82q0 88 134 133v376zM47 628h144v-340q0 -41 11 -55t41 -14q19 0 31 6q1 -7 1 -20q0 -45 -27 -64t-62 -19q-139 0 -139 155v351zM36 761q0 33 23 56.5t56 23.5t56.5 -23.5
t23.5 -56.5t-23.5 -56t-56.5 -23t-56 23t-23 56zM696 1417q-39 -26 -61 -131t-22 -213q0 -68 10 -116.5t26.5 -71t32 -32t32.5 -9.5q57 0 89 96.5t32 233.5q0 88 -14 148t-41 90t-57 41.5t-71 11.5q-101 0 -168 -58.5t-67 -160.5q0 -52 27 -92q-122 0 -122 107
q0 102 102 176t246 74q68 0 121 -19t87 -52t56.5 -80t31.5 -99t9 -113q0 -72 -13 -136.5t-41.5 -124.5t-84 -96t-131.5 -36q-107 0 -174 75t-67 242q0 59 9 117t28.5 113t57 89t86.5 34q26 0 51 -8zM624 656q0 -18 13 -31t28 -13q40 0 40 89v29q-81 -34 -81 -74z" />
    <glyph glyph-name="j.end" horiz-adv-x="235" 
d="M47 500h145v-580q0 -51 -12.5 -86t-34 -52.5t-44 -24.5t-48.5 -7q-59 0 -99 31t-40 82q0 87 133 133v504zM39 633q0 33 23 56.5t56 23.5t56.5 -23.5t23.5 -56.5t-23.5 -56t-56.5 -23t-56 23t-23 56zM-33 -128q0 -18 13 -31t28 -13q40 0 40 89v29q-81 -34 -81 -74z" />
    <glyph glyph-name="k.end" horiz-adv-x="534" 
d="M47 680l313 -359q0 -9 -1 -29t-1 -31q0 -81 53 -81q23 0 33 6q0 -2 0.5 -6t0.5 -10q0 -37 -21 -62t-70 -25q-61 0 -96.5 38t-35.5 97q0 12 1 36t1 35q23 0 37 13q2 3 2 -1v-3v-15q-54 0 -72 -60v-223h-144v680z" />
    <glyph glyph-name="k.salt" horiz-adv-x="518" 
d="M314 206l4402 466q14 22 -12 27q-31 7 -62 -17q-29 -22 -29 -58q0 -67 47 -107q8 -7 2 -8h-21l-55 1l144 20v-90h-4387v18h34v52h38v-35h21v-25h-23v-20h-14v-27q-12 0 -31.5 6t-27.5 6q-32 0 -57 -16t-60 -57q36 22 87 22q63 0 102 -32t39 -100q0 -13 -2 -49.5t-2 -44.5
q0 -23 10.5 -35t38.5 -12q33 0 45.5 19t23.5 69h42q-14 -108 -53.5 -146.5t-97.5 -38.5q-72 0 -108 39t-36 99q0 7 1 34t1 40z" />
    <glyph glyph-name="l.end" horiz-adv-x="273" 
d="M47 680l144 20v-540q0 -41 11 -55t41 -14q18 0 28 8q1 -7 1 -21q0 -40 -24 -62t-62 -22q-139 0 -139 155v531z" />
    <glyph glyph-name="m.end" horiz-adv-x="766" 
d="M549 302l32 1q0 111 -52 111q-51 0 -59 -92v-321h-144v345q0 69 -43 69q-29 0 -59 -28.5t-33 -65.5v-321h-144v500h144v-52q38 57 106 57q91 0 125 -85q37 84 123 84q140 0 140 -184q0 -17 -2 -71.5t-2 -72.5q0 -46 12 -65.5t45 -19.5q20 0 28 6q0 -103 -90 -103
q-129 0 -129 186q0 13 1 61.5t1 60.5z" />
    <glyph glyph-name="n.end" horiz-adv-x="519" 
d="M302 304q0 109 -53 109q-26 0 -40.5 -26t-17.5 -66v-321h-144v500h144v-52q37 56 105 56q64 0 103 -42.5t39 -137.5q0 -23 -2 -76.5t-2 -71.5q0 -44 11.5 -64.5t41.5 -20.5q25 0 32 6q0 -103 -88 -103q-69 0 -100 50.5t-31 131.5q0 18 1 65t1 63z" />
    <glyph glyph-name="o.end" horiz-adv-x="481" 
d="M244 505q125 0 157 -127q26 13 45 65h32q-8 -30 -13.5 -47t-20.5 -43t-34 -40q2 -26 2 -42q0 -126 -46.5 -201.5t-148.5 -75.5q-82 0 -134.5 54t-52.5 172q0 48 9.5 93.5t32 91t67 73t105.5 27.5zM245 88q41 0 61 52t20 139v14q-40 9 -40 59q0 32 26 42q-18 51 -53 51
q-40 0 -61 -66.5t-21 -148.5q0 -142 68 -142z" />
    <glyph glyph-name="o_s.end" horiz-adv-x="797" 
d="M524 511l144 20q26 -101 55 -189t39.5 -127.5t10.5 -85.5q0 -69 -42.5 -102t-102.5 -33q-84 0 -127 44t-43 111q0 33 16 53t39 20q61 0 61 -49q0 -16 -11 -27t-28 -11q-21 0 -30 13q16 -75 74 -75q25 0 37 13t12 43q0 40 -8.5 72t-32.5 100t-44 138q-50 -107 -132 -137
q0 -5 0.5 -15t0.5 -16q0 -126 -46.5 -201.5t-148.5 -75.5q-82 0 -134.5 54t-52.5 172q0 48 9.5 93.5t32 91t67 73t105.5 27.5q136 0 162 -152q64 14 118 158zM245 88q41 0 61 52t20 139v13q-40 9 -40 59q0 32 26 42q-18 52 -53 52q-40 0 -61 -66.5t-21 -148.5
q0 -142 68 -142z" />
    <glyph glyph-name="oacute.end" horiz-adv-x="477" 
d="M244 505q125 0 157 -127q26 13 45 65h32q-8 -30 -13.5 -47t-20.5 -43t-34 -40q2 -26 2 -42q0 -126 -46.5 -201.5t-148.5 -75.5q-82 0 -134.5 54t-52.5 172q0 48 9.5 93.5t32 91t67 73t105.5 27.5zM245 88q41 0 61 52t20 139v14q-40 9 -40 59q0 32 26 42q-18 51 -53 51
q-40 0 -61 -66.5t-21 -148.5q0 -142 68 -142zM199 561l51 189h105l-81 -189h-75z" />
    <glyph glyph-name="oacute_s.end" horiz-adv-x="797" 
d="M524 511l144 20q26 -101 55 -189t39.5 -127.5t10.5 -85.5q0 -69 -42.5 -102t-102.5 -33q-84 0 -127 44t-43 111q0 33 16 53t39 20q61 0 61 -49q0 -16 -11 -27t-28 -11q-21 0 -30 13q16 -75 74 -75q25 0 37 13t12 43q0 40 -8.5 72t-32.5 100t-44 138q-50 -107 -132 -137
q0 -5 0.5 -15t0.5 -16q0 -126 -46.5 -201.5t-148.5 -75.5q-82 0 -134.5 54t-52.5 172q0 48 9.5 93.5t32 91t67 73t105.5 27.5q136 0 162 -152q64 14 118 158zM245 88q41 0 61 52t20 139v13q-40 9 -40 59q0 32 26 42q-18 52 -53 52q-40 0 -61 -66.5t-21 -148.5
q0 -142 68 -142zM207 561l51 189h105l-81 -189h-75z" />
    <glyph glyph-name="p.calt" 
d="M301 300q0 113 -51 113t-59 -92v-535l-144 -36v787h144v-89q37 56 107 56q140 0 140 -184q0 -18 -2 -72t-2 -71q0 -45 11 -65.5t41 -20.5q22 0 35.5 13t18.5 28t12 47h42q-7 -57 -23 -96t-38 -57.5t-42.5 -25t-45.5 -6.5q-145 0 -145 189q0 9 0.5 58t0.5 59z" />
    <glyph glyph-name="p.salt" horiz-adv-x="482" 
d="M559 282v-58q-51 -3 -105 -18q-8 -89 -45.5 -150.5t-99.5 -61.5q-40 0 -65 25.5t-25 64.5q0 84 127 139v6q0 79 -22 131.5t-69 52.5q-55 0 -64 -92v-535l-144 -36v787h144v-89q38 56 104 56q74 0 117.5 -68t44.5 -176q41 11 102 22zM278 92q0 -20 23 -20q26 0 38 73
q2 10 2 16q-63 -36 -63 -69z" />
    <glyph glyph-name="s.end" horiz-adv-x="393" 
d="M137 511l144 20q16 -61 34.5 -129t26 -96t15 -62t9.5 -57t2 -52q0 -72 -51.5 -106.5t-116.5 -34.5q-81 0 -128.5 46.5t-47.5 101.5q0 54 37 73q60 157 76 296zM140 170q0 -16 -9.5 -28t-25.5 -12q-21 0 -30 13q15 -70 76 -70q71 0 71 70q0 21 -1 37t-7 41.5t-9.5 39.5
t-16.5 60.5t-21 75.5q-11 -53 -55 -185q28 -13 28 -42z" />
    <glyph glyph-name="t.end" horiz-adv-x="282" 
d="M51 638l144 20v-158h60v-40h-60v-300q0 -41 11 -55t41 -14q18 0 28 8q1 -7 1 -21q0 -40 -24 -62t-62 -22q-139 0 -139 155v311h-32v40h32v138z" />
    <glyph glyph-name="u.end" horiz-adv-x="514" 
d="M294 500h144v-340q0 -41 11 -55t41 -14q12 0 20 4q-9 -58 -26 -79.5t-58 -21.5q-92 0 -112 94q-39 -94 -133 -94q-134 0 -134 155v351h144v-340q0 -69 41 -69q26 0 42.5 24.5t19.5 63.5v321z" />
    <glyph glyph-name="u_x.end" horiz-adv-x="901" 
d="M47 500h144v-340q0 -69 41 -69q26 0 42.5 24.5t19.5 63.5v321h144v-340q0 -69 55 -69q38 0 77 27t62 67l-124 315h141l84 -214q79 108 79 154q0 9 -1 14q-4 0 -7.5 -1t-7.5 -1q-30 0 -46 17t-16 40q0 25 18.5 40t43.5 15q31 0 53.5 -23t22.5 -68q0 -95 -114 -248l18 -46
q19 -49 35 -68.5t47 -19.5q19 0 31 6q1 -7 1 -19q0 -40 -25.5 -59t-65.5 -19q-47 0 -79 28.5t-64 98.5q-77 -133 -206 -133q-43 0 -81 26t-54 70q-38 -96 -134 -96q-134 0 -134 155v351z" />
    <glyph glyph-name="uacute.end" horiz-adv-x="515" 
d="M294 500h144v-340q0 -41 11 -55t41 -14q12 0 20 4q-9 -58 -26 -79.5t-58 -21.5q-92 0 -112 94q-39 -94 -133 -94q-134 0 -134 155v351h144v-340q0 -69 41 -69q26 0 42.5 24.5t19.5 63.5v321zM185 561l51 189h105l-81 -189h-75z" />
    <glyph glyph-name="x.end" horiz-adv-x="539" 
d="M398 249l28 -71q21 -53 36.5 -70t42.5 -17q19 0 33 6q1 -6 1 -18q0 -42 -28 -63.5t-66 -21.5q-48 0 -85.5 41.5t-71.5 132.5l-103 -168h-72l153 228l-40 112q-17 49 -29 66t-26 17q-32 0 -57.5 -64t-25.5 -180h-42q0 61 8 114.5t25.5 103.5t51.5 79t81 29q90 0 135 -119
l28 -74q60 86 60 128q0 9 -1 14q-4 0 -7.5 -1t-7.5 -1q-30 0 -46 17t-16 40q0 25 18.5 40t43.5 15q31 0 53.5 -23t22.5 -66q0 -89 -97 -226z" />
    <glyph glyph-name="y.end" horiz-adv-x="482" 
d="M294 500h144v-580q0 -51 -12.5 -86t-34 -52.5t-44 -24.5t-48.5 -7q-59 0 -99 31t-40 82q0 88 134 133v55q-39 -57 -113 -57q-134 0 -134 155v351h144v-340q0 -69 41 -69q26 0 42.5 24.5t19.5 63.5v321zM213 -128q0 -18 13 -31t28 -13q40 0 40 89v29q-81 -34 -81 -74z" />
  </font>
</defs>
</svg>
